Mono_opsz12.ufo
<glyph name="quotedbl" format="2">
	<unicode hex="0022"/>
	<advance width="514"/>
	<outline>
		<contour>
			<point x="210" y="568" type="line" smooth="yes"/>
			<point x="211" y="591"/>
			<point x="204" y="620"/>
			<point x="170" y="620" type="curve" smooth="yes"/>
			<point x="167" y="620"/>
			<point x="127" y="619"/>
			<point x="130" y="570" type="curve" smooth="yes"/>
			<point x="141" y="363" type="line" smooth="yes"/>
			<point x="142" y="352"/>
			<point x="143" y="326"/>
			<point x="170" y="326" type="curve" smooth="yes"/>
			<point x="198" y="326"/>
			<point x="199" y="352"/>
			<point x="200" y="365" type="curve" smooth="yes"/>
		</contour>
		<contour>
			<point x="384" y="569" type="line" smooth="yes"/>
			<point x="387" y="617"/>
			<point x="352" y="620"/>
			<point x="344" y="620" type="curve" smooth="yes"/>
			<point x="309" y="620"/>
			<point x="301" y="583"/>
			<point x="303" y="579" type="curve"/>
			<point x="314" y="366" type="line" smooth="yes"/>
			<point x="315" y="352"/>
			<point x="316" y="326"/>
			<point x="344" y="326" type="curve" smooth="yes"/>
			<point x="371" y="326"/>
			<point x="372" y="352"/>
			<point x="373" y="363" type="curve" smooth="yes"/>
		</contour>
	</outline>
</glyph>
<glyph name="numbersign" format="2">
  <advance width="1028"/>
  <unicode hex="0023"/>
  <outline>
    <contour>
      <point x="770" y="762" type="line"/>
      <point x="870" y="762" type="line" smooth="yes"/>
      <point x="896" y="762"/>
      <point x="960" y="762"/>
      <point x="960" y="826" type="curve" smooth="yes"/>
      <point x="960" y="892"/>
      <point x="898" y="892"/>
      <point x="870" y="892" type="curve" smooth="yes"/>
      <point x="788" y="892" type="line"/>
      <point x="820" y="1132" type="line" smooth="yes"/>
      <point x="828" y="1198"/>
      <point x="792" y="1222"/>
      <point x="756" y="1222" type="curve" smooth="yes"/>
      <point x="700" y="1222"/>
      <point x="694" y="1170"/>
      <point x="690" y="1144" type="curve" smooth="yes"/>
      <point x="658" y="892" type="line"/>
      <point x="442" y="892" type="line"/>
      <point x="474" y="1132" type="line" smooth="yes"/>
      <point x="482" y="1198"/>
      <point x="446" y="1222"/>
      <point x="410" y="1222" type="curve" smooth="yes"/>
      <point x="354" y="1222"/>
      <point x="348" y="1170"/>
      <point x="344" y="1144" type="curve" smooth="yes"/>
      <point x="312" y="892" type="line"/>
      <point x="158" y="892" type="line" smooth="yes"/>
      <point x="132" y="892"/>
      <point x="68" y="892"/>
      <point x="68" y="828" type="curve" smooth="yes"/>
      <point x="68" y="762"/>
      <point x="130" y="762"/>
      <point x="158" y="762" type="curve" smooth="yes"/>
      <point x="294" y="762" type="line"/>
      <point x="258" y="460" type="line"/>
      <point x="158" y="460" type="line" smooth="yes"/>
      <point x="132" y="460"/>
      <point x="68" y="460"/>
      <point x="68" y="396" type="curve" smooth="yes"/>
      <point x="68" y="330"/>
      <point x="130" y="330"/>
      <point x="158" y="330" type="curve" smooth="yes"/>
      <point x="240" y="330" type="line"/>
      <point x="229" y="250"/>
      <point x="219" y="170"/>
      <point x="208" y="90" type="curve" smooth="yes"/>
      <point x="196" y="0"/>
      <point x="266" y="0"/>
      <point x="272" y="0" type="curve" smooth="yes"/>
      <point x="328" y="0"/>
      <point x="334" y="52"/>
      <point x="338" y="78" type="curve" smooth="yes"/>
      <point x="349" y="162"/>
      <point x="359" y="246"/>
      <point x="370" y="330" type="curve"/>
      <point x="586" y="330" type="line"/>
      <point x="575" y="250"/>
      <point x="565" y="170"/>
      <point x="554" y="90" type="curve" smooth="yes"/>
      <point x="542" y="0"/>
      <point x="612" y="0"/>
      <point x="618" y="0" type="curve" smooth="yes"/>
      <point x="674" y="0"/>
      <point x="680" y="52"/>
      <point x="684" y="78" type="curve" smooth="yes"/>
      <point x="695" y="162"/>
      <point x="705" y="246"/>
      <point x="716" y="330" type="curve"/>
      <point x="870" y="330" type="line" smooth="yes"/>
      <point x="896" y="330"/>
      <point x="960" y="330"/>
      <point x="960" y="394" type="curve" smooth="yes"/>
      <point x="960" y="460"/>
      <point x="898" y="460"/>
      <point x="870" y="460" type="curve" smooth="yes"/>
      <point x="734" y="460" type="line"/>
    </contour>
    <contour>
      <point x="424" y="762" type="line"/>
      <point x="640" y="762" type="line"/>
      <point x="604" y="460" type="line"/>
      <point x="388" y="460" type="line"/>
    </contour>
  </outline>
</glyph>
<glyph name="dollar" format="2">
  <advance width="1028"/>
  <unicode hex="0024"/>
  <outline>
    <contour>
      <point x="572" y="1114" type="line"/>
      <point x="678" y="1102"/>
      <point x="754" y="1052"/>
      <point x="778" y="964" type="curve"/>
      <point x="754" y="946"/>
      <point x="752" y="916"/>
      <point x="752" y="906" type="curve" smooth="yes"/>
      <point x="752" y="852"/>
      <point x="796" y="824"/>
      <point x="832" y="824" type="curve" smooth="yes"/>
      <point x="842" y="824"/>
      <point x="914" y="828"/>
      <point x="914" y="914" type="curve" smooth="yes"/>
      <point x="914" y="982"/>
      <point x="888" y="1200"/>
      <point x="572" y="1232" type="curve"/>
      <point x="572" y="1306" type="line" smooth="yes"/>
      <point x="572" y="1336"/>
      <point x="572" y="1388"/>
      <point x="514" y="1388" type="curve" smooth="yes"/>
      <point x="456" y="1388"/>
      <point x="456" y="1334"/>
      <point x="456" y="1306" type="curve" smooth="yes"/>
      <point x="456" y="1230" type="line"/>
      <point x="240" y="1204"/>
      <point x="114" y="1054"/>
      <point x="114" y="906" type="curve" smooth="yes"/>
      <point x="114" y="872"/>
      <point x="116" y="646"/>
      <point x="456" y="582" type="curve"/>
      <point x="456" y="108" type="line"/>
      <point x="326" y="128"/>
      <point x="270" y="196"/>
      <point x="250" y="282" type="curve"/>
      <point x="270" y="298"/>
      <point x="276" y="324"/>
      <point x="276" y="340" type="curve" smooth="yes"/>
      <point x="276" y="394"/>
      <point x="232" y="422"/>
      <point x="196" y="422" type="curve" smooth="yes"/>
      <point x="190" y="422"/>
      <point x="114" y="422"/>
      <point x="114" y="330" type="curve" smooth="yes"/>
      <point x="114" y="194"/>
      <point x="198" y="16"/>
      <point x="456" y="-10" type="curve"/>
      <point x="456" y="-84" type="line" smooth="yes"/>
      <point x="456" y="-112"/>
      <point x="456" y="-166"/>
      <point x="514" y="-166" type="curve" smooth="yes"/>
      <point x="572" y="-166"/>
      <point x="572" y="-114"/>
      <point x="572" y="-84" type="curve" smooth="yes"/>
      <point x="572" y="-8" type="line"/>
      <point x="788" y="22"/>
      <point x="914" y="180"/>
      <point x="914" y="340" type="curve" smooth="yes"/>
      <point x="914" y="456"/>
      <point x="842" y="638"/>
      <point x="572" y="690" type="curve"/>
    </contour>
    <contour>
      <point x="456" y="714" type="line"/>
      <point x="326" y="738"/>
      <point x="234" y="816"/>
      <point x="234" y="914" type="curve" smooth="yes"/>
      <point x="234" y="1010"/>
      <point x="330" y="1094"/>
      <point x="456" y="1114" type="curve"/>
    </contour>
    <contour>
      <point x="572" y="556" type="line"/>
      <point x="696" y="534"/>
      <point x="794" y="444"/>
      <point x="794" y="334" type="curve" smooth="yes"/>
      <point x="794" y="234"/>
      <point x="712" y="134"/>
      <point x="572" y="110" type="curve"/>
    </contour>
  </outline>
</glyph>
<glyph name="percent" format="2">
  <advance width="1028"/>
  <unicode hex="0025"/>
  <outline>
    <contour>
      <point x="840" y="1280" type="line" smooth="yes"/>
      <point x="848" y="1302"/>
      <point x="852" y="1310"/>
      <point x="852" y="1322" type="curve" smooth="yes"/>
      <point x="852" y="1364"/>
      <point x="818" y="1388"/>
      <point x="788" y="1388" type="curve" smooth="yes"/>
      <point x="742" y="1388"/>
      <point x="728" y="1350"/>
      <point x="720" y="1330" type="curve" smooth="yes"/>
      <point x="188" y="-58" type="line" smooth="yes"/>
      <point x="180" y="-80"/>
      <point x="176" y="-88"/>
      <point x="176" y="-100" type="curve" smooth="yes"/>
      <point x="176" y="-136"/>
      <point x="206" y="-166"/>
      <point x="242" y="-166" type="curve" smooth="yes"/>
      <point x="286" y="-166"/>
      <point x="300" y="-130"/>
      <point x="308" y="-108" type="curve" smooth="yes"/>
    </contour>
    <contour>
      <point x="960" y="100" type="curve" smooth="yes"/>
      <point x="960" y="250"/>
      <point x="886" y="366"/>
      <point x="788" y="366" type="curve" smooth="yes"/>
      <point x="690" y="366"/>
      <point x="616" y="250"/>
      <point x="616" y="100" type="curve" smooth="yes"/>
      <point x="616" y="-50"/>
      <point x="690" y="-166"/>
      <point x="788" y="-166" type="curve" smooth="yes"/>
      <point x="886" y="-166"/>
      <point x="960" y="-50"/>
    </contour>
    <contour>
      <point x="788" y="-48" type="curve" smooth="yes"/>
      <point x="766" y="-48"/>
      <point x="728" y="6"/>
      <point x="728" y="100" type="curve" smooth="yes"/>
      <point x="728" y="194"/>
      <point x="766" y="248"/>
      <point x="788" y="248" type="curve" smooth="yes"/>
      <point x="810" y="248"/>
      <point x="848" y="194"/>
      <point x="848" y="100" type="curve" smooth="yes"/>
      <point x="848" y="6"/>
      <point x="810" y="-48"/>
    </contour>
    <contour>
      <point x="412" y="1120" type="curve" smooth="yes"/>
      <point x="412" y="1274"/>
      <point x="336" y="1388"/>
      <point x="240" y="1388" type="curve" smooth="yes"/>
      <point x="140" y="1388"/>
      <point x="68" y="1270"/>
      <point x="68" y="1122" type="curve" smooth="yes"/>
      <point x="68" y="968"/>
      <point x="144" y="854"/>
      <point x="240" y="854" type="curve" smooth="yes"/>
      <point x="340" y="854"/>
      <point x="412" y="972"/>
    </contour>
    <contour>
      <point x="240" y="972" type="curve" smooth="yes"/>
      <point x="218" y="972"/>
      <point x="180" y="1030"/>
      <point x="180" y="1120" type="curve" smooth="yes"/>
      <point x="180" y="1216"/>
      <point x="218" y="1270"/>
      <point x="240" y="1270" type="curve" smooth="yes"/>
      <point x="262" y="1270"/>
      <point x="300" y="1212"/>
      <point x="300" y="1122" type="curve" smooth="yes"/>
      <point x="300" y="1026"/>
      <point x="262" y="972"/>
    </contour>
  </outline>
</glyph>
<glyph name="ampersand" format="2">
  <advance width="1028"/>
  <unicode hex="0026"/>
  <outline>
    <contour>
      <point x="828" y="746" type="line"/>
      <point x="882" y="746" type="line" smooth="yes"/>
      <point x="910" y="746"/>
      <point x="962" y="746"/>
      <point x="962" y="804" type="curve" smooth="yes"/>
      <point x="962" y="862"/>
      <point x="910" y="862"/>
      <point x="882" y="862" type="curve" smooth="yes"/>
      <point x="708" y="862" type="line" smooth="yes"/>
      <point x="682" y="862"/>
      <point x="626" y="862"/>
      <point x="626" y="804" type="curve" smooth="yes"/>
      <point x="626" y="746"/>
      <point x="682" y="746"/>
      <point x="708" y="746" type="curve"/>
      <point x="636" y="550"/>
      <point x="582" y="406"/>
      <point x="534" y="318" type="curve"/>
      <point x="430" y="496"/>
      <point x="412" y="538"/>
      <point x="388" y="598" type="curve"/>
      <point x="490" y="716"/>
      <point x="590" y="832"/>
      <point x="590" y="976" type="curve" smooth="yes"/>
      <point x="590" y="1098"/>
      <point x="546" y="1246"/>
      <point x="408" y="1246" type="curve" smooth="yes"/>
      <point x="304" y="1246"/>
      <point x="202" y="1150"/>
      <point x="202" y="960" type="curve" smooth="yes"/>
      <point x="202" y="866"/>
      <point x="218" y="750"/>
      <point x="258" y="626" type="curve"/>
      <point x="217" y="579"/>
      <point x="177" y="533"/>
      <point x="136" y="486" type="curve" smooth="yes"/>
      <point x="96" y="440"/>
      <point x="56" y="374"/>
      <point x="56" y="268" type="curve" smooth="yes"/>
      <point x="56" y="122"/>
      <point x="144" y="-24"/>
      <point x="296" y="-24" type="curve" smooth="yes"/>
      <point x="406" y="-24"/>
      <point x="492" y="52"/>
      <point x="540" y="114" type="curve"/>
      <point x="604" y="36"/>
      <point x="684" y="-24"/>
      <point x="770" y="-24" type="curve" smooth="yes"/>
      <point x="902" y="-24"/>
      <point x="954" y="116"/>
      <point x="954" y="210" type="curve" smooth="yes"/>
      <point x="954" y="274"/>
      <point x="904" y="276"/>
      <point x="898" y="276" type="curve" smooth="yes"/>
      <point x="890" y="276"/>
      <point x="846" y="276"/>
      <point x="842" y="214" type="curve" smooth="yes"/>
      <point x="838" y="156"/>
      <point x="820" y="92"/>
      <point x="768" y="92" type="curve" smooth="yes"/>
      <point x="696" y="92"/>
      <point x="606" y="208"/>
      <point x="606" y="216" type="curve"/>
      <point x="634" y="262"/>
      <point x="688" y="370"/>
      <point x="726" y="472" type="curve" smooth="yes"/>
    </contour>
    <contour>
      <point x="346" y="728" type="curve"/>
      <point x="314" y="844"/>
      <point x="314" y="956"/>
      <point x="314" y="958" type="curve" smooth="yes"/>
      <point x="314" y="1072"/>
      <point x="360" y="1130"/>
      <point x="408" y="1130" type="curve" smooth="yes"/>
      <point x="478" y="1130"/>
      <point x="478" y="978"/>
      <point x="478" y="976" type="curve" smooth="yes"/>
      <point x="478" y="930"/>
      <point x="464" y="864"/>
    </contour>
    <contour>
      <point x="308" y="504" type="curve"/>
      <point x="384" y="338"/>
      <point x="462" y="224"/>
      <point x="470" y="212" type="curve"/>
      <point x="430" y="154"/>
      <point x="366" y="92"/>
      <point x="298" y="92" type="curve" smooth="yes"/>
      <point x="206" y="92"/>
      <point x="186" y="218"/>
      <point x="186" y="274" type="curve" smooth="yes"/>
      <point x="186" y="336"/>
      <point x="199" y="373"/>
      <point x="228" y="413" type="curve" smooth="yes"/>
      <point x="247" y="439"/>
      <point x="273" y="467"/>
    </contour>
  </outline>
</glyph>
<glyph name="quotesingle" format="2">
	<unicode hex="0027"/>
	<advance width="514"/>
	<outline>
		<contour>
			<point x="297" y="566" type="line" smooth="yes"/>
			<point x="298" y="580"/>
			<point x="298" y="620"/>
			<point x="257" y="620" type="curve" smooth="yes"/>
			<point x="219" y="620"/>
			<point x="216" y="584"/>
			<point x="217" y="566" type="curve" smooth="yes"/>
			<point x="227" y="362" type="line" smooth="yes"/>
			<point x="228" y="341"/>
			<point x="237" y="326"/>
			<point x="257" y="326" type="curve" smooth="yes"/>
			<point x="269" y="326"/>
			<point x="286" y="332"/>
			<point x="287" y="361" type="curve" smooth="yes"/>
		</contour>
	</outline>
</glyph>
<glyph name="parenleft" format="2">
  <advance width="1028"/>
  <unicode hex="0028"/>
  <outline>
    <contour>
      <point x="856" y="-114" type="curve" smooth="yes"/>
      <point x="856" y="-88"/>
      <point x="842" y="-80"/>
      <point x="814" y="-60" type="curve" smooth="yes"/>
      <point x="724" y="2"/>
      <point x="656" y="74"/>
      <point x="606" y="150" type="curve" smooth="yes"/>
      <point x="501" y="306"/>
      <point x="470" y="479"/>
      <point x="470" y="610" type="curve" smooth="yes"/>
      <point x="470" y="736"/>
      <point x="498" y="905"/>
      <point x="599" y="1061" type="curve" smooth="yes"/>
      <point x="650" y="1140"/>
      <point x="720" y="1217"/>
      <point x="814" y="1282" type="curve" smooth="yes"/>
      <point x="842" y="1302"/>
      <point x="856" y="1310"/>
      <point x="856" y="1336" type="curve" smooth="yes"/>
      <point x="856" y="1356"/>
      <point x="846" y="1388"/>
      <point x="798" y="1388" type="curve" smooth="yes"/>
      <point x="748" y="1388"/>
      <point x="600" y="1272"/>
      <point x="508" y="1142" type="curve" smooth="yes"/>
      <point x="396" y="986"/>
      <point x="340" y="800"/>
      <point x="340" y="610" type="curve" smooth="yes"/>
      <point x="340" y="388"/>
      <point x="420" y="202"/>
      <point x="504" y="84" type="curve" smooth="yes"/>
      <point x="596" y="-44"/>
      <point x="742" y="-166"/>
      <point x="798" y="-166" type="curve" smooth="yes"/>
      <point x="846" y="-166"/>
      <point x="856" y="-132"/>
    </contour>
  </outline>
</glyph>
<glyph name="parenright" format="2">
  <advance width="1028"/>
  <unicode hex="0029"/>
  <outline>
    <contour>
      <point x="688" y="610" type="curve" smooth="yes"/>
      <point x="688" y="766"/>
      <point x="650" y="968"/>
      <point x="506" y="1162" type="curve" smooth="yes"/>
      <point x="438" y="1254"/>
      <point x="290" y="1388"/>
      <point x="230" y="1388" type="curve" smooth="yes"/>
      <point x="184" y="1388"/>
      <point x="172" y="1354"/>
      <point x="172" y="1336" type="curve" smooth="yes"/>
      <point x="172" y="1312"/>
      <point x="186" y="1302"/>
      <point x="222" y="1278" type="curve" smooth="yes"/>
      <point x="300" y="1224"/>
      <point x="362" y="1160"/>
      <point x="410" y="1090" type="curve" smooth="yes"/>
      <point x="514" y="940"/>
      <point x="558" y="766"/>
      <point x="558" y="612" type="curve" smooth="yes"/>
      <point x="558" y="486"/>
      <point x="530" y="304"/>
      <point x="416" y="140" type="curve" smooth="yes"/>
      <point x="366" y="68"/>
      <point x="300" y="0"/>
      <point x="214" y="-60" type="curve" smooth="yes"/>
      <point x="188" y="-78"/>
      <point x="172" y="-88"/>
      <point x="172" y="-114" type="curve" smooth="yes"/>
      <point x="172" y="-132"/>
      <point x="184" y="-166"/>
      <point x="230" y="-166" type="curve" smooth="yes"/>
      <point x="280" y="-166"/>
      <point x="428" y="-50"/>
      <point x="520" y="80" type="curve" smooth="yes"/>
      <point x="636" y="244"/>
      <point x="688" y="432"/>
    </contour>
  </outline>
</glyph>
<glyph name="asterisk" format="2">
	<unicode hex="002A"/>
	<advance width="514"/>
	<outline>
		<contour>
			<point x="284" y="352" type="line"/>
			<point x="284" y="380"/>
			<point x="287" y="469"/>
			<point x="287" y="491" type="curve" smooth="yes"/>
			<point x="287" y="508"/>
			<point x="273" y="521"/>
			<point x="257" y="521" type="curve" smooth="yes"/>
			<point x="241" y="521"/>
			<point x="227" y="509"/>
			<point x="227" y="491" type="curve" smooth="yes"/>
			<point x="228" y="445"/>
			<point x="230" y="379.05882"/>
			<point x="230" y="352" type="curve"/>
			<point x="119" y="421" type="line" smooth="yes"/>
			<point x="113" y="425"/>
			<point x="105" y="429"/>
			<point x="98" y="429" type="curve" smooth="yes"/>
			<point x="84" y="429"/>
			<point x="67" y="417"/>
			<point x="67" y="398" type="curve" smooth="yes"/>
			<point x="67" y="383"/>
			<point x="76" y="374"/>
			<point x="88" y="368" type="curve" smooth="yes"/>
			<point x="204" y="306" type="line"/>
			<point x="88" y="243" type="line" smooth="yes"/>
			<point x="76" y="237"/>
			<point x="67" y="228"/>
			<point x="67" y="213" type="curve" smooth="yes"/>
			<point x="67" y="194"/>
			<point x="84" y="182"/>
			<point x="98" y="182" type="curve" smooth="yes"/>
			<point x="105" y="182"/>
			<point x="113" y="186"/>
			<point x="119" y="190" type="curve" smooth="yes"/>
			<point x="230" y="259" type="line"/>
			<point x="230" y="228"/>
			<point x="227" y="139"/>
			<point x="227" y="120" type="curve" smooth="yes"/>
			<point x="227" y="102"/>
			<point x="242" y="90"/>
			<point x="257" y="90" type="curve" smooth="yes"/>
			<point x="273" y="90"/>
			<point x="287" y="103"/>
			<point x="287" y="120" type="curve" smooth="yes"/>
			<point x="287" y="143"/>
			<point x="284" y="231"/>
			<point x="284" y="259" type="curve"/>
			<point x="316.967" y="238.687"/>
			<point x="349.934" y="218.374"/>
			<point x="383" y="198" type="curve" smooth="yes"/>
			<point x="407" y="182"/>
			<point x="409" y="182"/>
			<point x="416" y="182" type="curve" smooth="yes"/>
			<point x="430" y="182"/>
			<point x="447" y="194"/>
			<point x="447" y="213" type="curve" smooth="yes"/>
			<point x="447" y="225"/>
			<point x="440" y="234"/>
			<point x="431" y="240" type="curve" smooth="yes"/>
			<point x="406" y="255"/>
			<point x="351" y="284"/>
			<point x="310" y="305" type="curve"/>
			<point x="426" y="368" type="line" smooth="yes"/>
			<point x="438" y="374"/>
			<point x="447" y="383"/>
			<point x="447" y="398" type="curve" smooth="yes"/>
			<point x="447" y="417"/>
			<point x="430" y="429"/>
			<point x="416" y="429" type="curve" smooth="yes"/>
			<point x="409" y="429"/>
			<point x="401" y="425"/>
			<point x="395" y="421" type="curve" smooth="yes"/>
		</contour>
	</outline>
</glyph>
<glyph name="plus" format="2">
  <advance width="1028"/>
  <unicode hex="002B"/>
  <outline>
    <contour>
      <point x="580" y="546" type="line"/>
      <point x="864" y="546" type="line" smooth="yes"/>
      <point x="890" y="546"/>
      <point x="954" y="546"/>
      <point x="954" y="610" type="curve" smooth="yes"/>
      <point x="954" y="676"/>
      <point x="892" y="676"/>
      <point x="864" y="676" type="curve" smooth="yes"/>
      <point x="580" y="676" type="line"/>
      <point x="580" y="962" type="line" smooth="yes"/>
      <point x="580" y="988"/>
      <point x="580" y="1052"/>
      <point x="516" y="1052" type="curve" smooth="yes"/>
      <point x="450" y="1052"/>
      <point x="450" y="990"/>
      <point x="450" y="962" type="curve" smooth="yes"/>
      <point x="450" y="676" type="line"/>
      <point x="164" y="676" type="line" smooth="yes"/>
      <point x="138" y="676"/>
      <point x="74" y="676"/>
      <point x="74" y="612" type="curve" smooth="yes"/>
      <point x="74" y="546"/>
      <point x="136" y="546"/>
      <point x="164" y="546" type="curve" smooth="yes"/>
      <point x="450" y="546" type="line"/>
      <point x="450" y="260" type="line" smooth="yes"/>
      <point x="450" y="234"/>
      <point x="450" y="170"/>
      <point x="514" y="170" type="curve" smooth="yes"/>
      <point x="580" y="170"/>
      <point x="580" y="232"/>
      <point x="580" y="260" type="curve" smooth="yes"/>
    </contour>
  </outline>
</glyph>
<glyph name="comma" format="2">
  <advance width="514"/>
  <unicode hex="002C"/>
  <outline>
    <contour>
      <point x="276" y="3" type="curve"/>
      <point x="271" y="-28"/>
      <point x="251" y="-66"/>
      <point x="202" y="-83" type="curve"/>
      <point x="193" y="-85"/>
      <point x="178" y="-90"/>
      <point x="178" y="-109" type="curve" smooth="yes"/>
      <point x="178" y="-122"/>
      <point x="193" y="-139"/>
      <point x="209" y="-139" type="curve" smooth="yes"/>
      <point x="236" y="-139"/>
      <point x="335" y="-90"/>
      <point x="335" y="18" type="curve" smooth="yes"/>
      <point x="335" y="71"/>
      <point x="302" y="113"/>
      <point x="258" y="113" type="curve" smooth="yes"/>
      <point x="221" y="113"/>
      <point x="201" y="84"/>
      <point x="201" y="57" type="curve" smooth="yes"/>
      <point x="201" y="24"/>
      <point x="226" y="0"/>
      <point x="257" y="0" type="curve" smooth="yes"/>
      <point x="263" y="0"/>
      <point x="270" y="1"/>
    </contour>
  </outline>
</glyph>
<glyph name="period" format="2">
  <advance width="1028"/>
  <unicode hex="002E"/>
  <outline>
    <contour>
      <point x="628" y="112" type="curve" smooth="yes"/>
      <point x="628" y="178"/>
      <point x="574" y="226"/>
      <point x="516" y="226" type="curve" smooth="yes"/>
      <point x="452" y="226"/>
      <point x="402" y="176"/>
      <point x="402" y="112" type="curve" smooth="yes"/>
      <point x="402" y="52"/>
      <point x="454" y="0"/>
      <point x="514" y="0" type="curve" smooth="yes"/>
      <point x="580" y="0"/>
      <point x="628" y="54"/>
    </contour>
  </outline>
</glyph>
<glyph name="slash" format="2">
  <advance width="1028"/>
  <unicode hex="002F"/>
  <outline>
    <contour>
      <point x="902" y="1280" type="line" smooth="yes"/>
      <point x="908" y="1294"/>
      <point x="914" y="1308"/>
      <point x="914" y="1322" type="curve" smooth="yes"/>
      <point x="914" y="1364"/>
      <point x="880" y="1388"/>
      <point x="850" y="1388" type="curve" smooth="yes"/>
      <point x="808" y="1388"/>
      <point x="792" y="1354"/>
      <point x="782" y="1334" type="curve" smooth="yes"/>
      <point x="126" y="-58" type="line" smooth="yes"/>
      <point x="120" y="-72"/>
      <point x="114" y="-86"/>
      <point x="114" y="-100" type="curve" smooth="yes"/>
      <point x="114" y="-142"/>
      <point x="148" y="-166"/>
      <point x="178" y="-166" type="curve" smooth="yes"/>
      <point x="220" y="-166"/>
      <point x="236" y="-134"/>
      <point x="246" y="-112" type="curve" smooth="yes"/>
    </contour>
  </outline>
</glyph>
<glyph name="zero" format="2">
  <advance width="1028"/>
  <unicode hex="0030"/>
  <outline>
    <contour>
      <point x="928" y="610" type="curve" smooth="yes"/>
      <point x="928" y="982"/>
      <point x="730" y="1246"/>
      <point x="514" y="1246" type="curve" smooth="yes"/>
      <point x="296" y="1246"/>
      <point x="100" y="978"/>
      <point x="100" y="612" type="curve" smooth="yes"/>
      <point x="100" y="240"/>
      <point x="298" y="-24"/>
      <point x="514" y="-24" type="curve" smooth="yes"/>
      <point x="732" y="-24"/>
      <point x="928" y="244"/>
    </contour>
    <contour>
      <point x="514" y="92" type="curve" smooth="yes"/>
      <point x="356" y="92"/>
      <point x="230" y="334"/>
      <point x="230" y="632" type="curve" smooth="yes"/>
      <point x="230" y="930"/>
      <point x="368" y="1130"/>
      <point x="514" y="1130" type="curve" smooth="yes"/>
      <point x="660" y="1130"/>
      <point x="798" y="930"/>
      <point x="798" y="632" type="curve" smooth="yes"/>
      <point x="798" y="336"/>
      <point x="672" y="92"/>
    </contour>
  </outline>
</glyph>
<glyph name="one" format="2">
  <advance width="1028"/>
  <unicode hex="0031"/>
  <outline>
    <contour>
      <point x="608" y="1164" type="line" smooth="yes"/>
      <point x="608" y="1194"/>
      <point x="608" y="1246"/>
      <point x="550" y="1246" type="curve" smooth="yes"/>
      <point x="516" y="1246"/>
      <point x="504" y="1228"/>
      <point x="492" y="1202" type="curve" smooth="yes"/>
      <point x="454" y="1116"/>
      <point x="388" y="1010"/>
      <point x="282" y="1002" type="curve" smooth="yes"/>
      <point x="252" y="1000"/>
      <point x="210" y="996"/>
      <point x="210" y="944" type="curve" smooth="yes"/>
      <point x="210" y="910"/>
      <point x="230" y="886"/>
      <point x="274" y="886" type="curve" smooth="yes"/>
      <point x="386" y="886"/>
      <point x="472" y="970"/>
      <point x="478" y="974" type="curve"/>
      <point x="478" y="116" type="line"/>
      <point x="302" y="116" type="line" smooth="yes"/>
      <point x="274" y="116"/>
      <point x="220" y="116"/>
      <point x="220" y="58" type="curve" smooth="yes"/>
      <point x="220" y="0"/>
      <point x="274" y="0"/>
      <point x="302" y="0" type="curve" smooth="yes"/>
      <point x="784" y="0" type="line" smooth="yes"/>
      <point x="812" y="0"/>
      <point x="866" y="0"/>
      <point x="866" y="58" type="curve" smooth="yes"/>
      <point x="866" y="116"/>
      <point x="812" y="116"/>
      <point x="784" y="116" type="curve" smooth="yes"/>
      <point x="608" y="116" type="line"/>
    </contour>
  </outline>
</glyph>
<glyph name="two" format="2">
  <advance width="1028"/>
  <unicode hex="0032"/>
  <outline>
    <contour>
      <point x="130" y="106" type="line" smooth="yes"/>
      <point x="108" y="88"/>
      <point x="102" y="82"/>
      <point x="102" y="58" type="curve" smooth="yes"/>
      <point x="102" y="0"/>
      <point x="156" y="0"/>
      <point x="184" y="0" type="curve" smooth="yes"/>
      <point x="882" y="0" type="line"/>
      <point x="926" y="12"/>
      <point x="926" y="52"/>
      <point x="926" y="82" type="curve" smooth="yes"/>
      <point x="926" y="124" type="line" smooth="yes"/>
      <point x="926" y="160"/>
      <point x="926" y="206"/>
      <point x="862" y="206" type="curve" smooth="yes"/>
      <point x="796" y="206"/>
      <point x="796" y="164"/>
      <point x="796" y="116" type="curve"/>
      <point x="314" y="116" type="line"/>
      <point x="441" y="224"/>
      <point x="568" y="332"/>
      <point x="696" y="440" type="curve" smooth="yes"/>
      <point x="724" y="464"/>
      <point x="926" y="636"/>
      <point x="926" y="858" type="curve" smooth="yes"/>
      <point x="926" y="1086"/>
      <point x="738" y="1246"/>
      <point x="488" y="1246" type="curve" smooth="yes"/>
      <point x="256" y="1246"/>
      <point x="102" y="1072"/>
      <point x="102" y="904" type="curve" smooth="yes"/>
      <point x="102" y="820"/>
      <point x="172" y="814"/>
      <point x="184" y="814" type="curve" smooth="yes"/>
      <point x="220" y="814"/>
      <point x="264" y="842"/>
      <point x="264" y="896" type="curve" smooth="yes"/>
      <point x="264" y="934"/>
      <point x="250" y="946"/>
      <point x="240" y="954" type="curve"/>
      <point x="268" y="1060"/>
      <point x="360" y="1130"/>
      <point x="476" y="1130" type="curve" smooth="yes"/>
      <point x="646" y="1130"/>
      <point x="796" y="1032"/>
      <point x="796" y="858" type="curve" smooth="yes"/>
      <point x="796" y="702"/>
      <point x="678" y="582"/>
      <point x="570" y="488" type="curve" smooth="yes"/>
    </contour>
  </outline>
</glyph>
<glyph name="three" format="2">
  <advance width="1028"/>
  <unicode hex="0033"/>
  <outline>
    <contour>
      <point x="512" y="602" type="line" smooth="yes"/>
      <point x="720" y="602"/>
      <point x="812" y="456"/>
      <point x="812" y="348" type="curve" smooth="yes"/>
      <point x="812" y="216"/>
      <point x="696" y="92"/>
      <point x="520" y="92" type="curve" smooth="yes"/>
      <point x="320" y="92"/>
      <point x="234" y="196"/>
      <point x="228" y="230" type="curve"/>
      <point x="240" y="246"/>
      <point x="248" y="265"/>
      <point x="248" y="286" type="curve" smooth="yes"/>
      <point x="248" y="328"/>
      <point x="216" y="366"/>
      <point x="168" y="366" type="curve" smooth="yes"/>
      <point x="126" y="366"/>
      <point x="86" y="340"/>
      <point x="86" y="278" type="curve" smooth="yes"/>
      <point x="86" y="104"/>
      <point x="276" y="-24"/>
      <point x="520" y="-24" type="curve" smooth="yes"/>
      <point x="772" y="-24"/>
      <point x="942" y="156"/>
      <point x="942" y="346" type="curve" smooth="yes"/>
      <point x="942" y="448"/>
      <point x="886" y="590"/>
      <point x="710" y="666" type="curve"/>
      <point x="832" y="742"/>
      <point x="886" y="862"/>
      <point x="886" y="966" type="curve" smooth="yes"/>
      <point x="886" y="1116"/>
      <point x="736" y="1246"/>
      <point x="520" y="1246" type="curve" smooth="yes"/>
      <point x="298" y="1246"/>
      <point x="142" y="1150"/>
      <point x="142" y="1002" type="curve" smooth="yes"/>
      <point x="142" y="936"/>
      <point x="192" y="916"/>
      <point x="224" y="916" type="curve" smooth="yes"/>
      <point x="260" y="916"/>
      <point x="304" y="944"/>
      <point x="304" y="998" type="curve" smooth="yes"/>
      <point x="304" y="1030"/>
      <point x="288" y="1048"/>
      <point x="288" y="1050" type="curve"/>
      <point x="348" y="1126"/>
      <point x="486" y="1130"/>
      <point x="520" y="1130" type="curve" smooth="yes"/>
      <point x="656" y="1130"/>
      <point x="756" y="1058"/>
      <point x="756" y="964" type="curve" smooth="yes"/>
      <point x="756" y="929"/>
      <point x="742" y="854"/>
      <point x="685" y="798" type="curve" smooth="yes"/>
      <point x="647" y="761"/>
      <point x="591" y="732"/>
      <point x="508" y="726" type="curve" smooth="yes"/>
      <point x="434" y="722"/>
      <point x="402" y="718"/>
      <point x="394" y="718" type="curve" smooth="yes"/>
      <point x="354" y="716"/>
      <point x="344" y="688"/>
      <point x="344" y="660" type="curve" smooth="yes"/>
      <point x="344" y="602"/>
      <point x="386" y="602"/>
      <point x="420" y="602" type="curve" smooth="yes"/>
    </contour>
  </outline>
</glyph>
<glyph name="four" format="2">
  <advance width="514"/>
  <unicode hex="0034"/>
  <outline>
    <contour>
      <point x="38" y="240" type="line" smooth="yes"/>
      <point x="29" y="227"/>
      <point x="29" y="225"/>
      <point x="29" y="207" type="curve" smooth="yes"/>
      <point x="29" y="172"/>
      <point x="42" y="168"/>
      <point x="69" y="168" type="curve" smooth="yes"/>
      <point x="314" y="168" type="line"/>
      <point x="314" y="58" type="line"/>
      <point x="254" y="58" type="line" smooth="yes"/>
      <point x="240" y="58"/>
      <point x="214" y="58"/>
      <point x="214" y="29" type="curve" smooth="yes"/>
      <point x="214" y="0"/>
      <point x="240" y="0"/>
      <point x="254" y="0" type="curve" smooth="yes"/>
      <point x="430" y="0" type="line" smooth="yes"/>
      <point x="444" y="0"/>
      <point x="470" y="0"/>
      <point x="470" y="29" type="curve" smooth="yes"/>
      <point x="470" y="58"/>
      <point x="444" y="58"/>
      <point x="430" y="58" type="curve" smooth="yes"/>
      <point x="370" y="58" type="line"/>
      <point x="370" y="168" type="line"/>
      <point x="445" y="168" type="line" smooth="yes"/>
      <point x="459" y="168"/>
      <point x="485" y="168"/>
      <point x="485" y="197" type="curve" smooth="yes"/>
      <point x="485" y="226"/>
      <point x="459" y="226"/>
      <point x="445" y="226" type="curve" smooth="yes"/>
      <point x="370" y="226" type="line"/>
      <point x="370" y="584" type="line" smooth="yes"/>
      <point x="370" y="617"/>
      <point x="363" y="625"/>
      <point x="329" y="625" type="curve" smooth="yes"/>
      <point x="306" y="625" type="line" smooth="yes"/>
      <point x="282" y="625"/>
      <point x="277" y="624"/>
      <point x="265" y="605" type="curve" smooth="yes"/>
    </contour>
    <contour>
      <point x="96" y="226" type="line"/>
      <point x="314" y="576" type="line"/>
      <point x="314" y="226" type="line"/>
    </contour>
  </outline>
</glyph>
<glyph name="five" format="2">
  <advance width="1028"/>
  <unicode hex="0035"/>
  <outline>
    <contour>
      <point x="776" y="1106" type="line" smooth="yes"/>
      <point x="804" y="1106"/>
      <point x="856" y="1106"/>
      <point x="856" y="1164" type="curve" smooth="yes"/>
      <point x="856" y="1222"/>
      <point x="804" y="1222"/>
      <point x="776" y="1222" type="curve" smooth="yes"/>
      <point x="256" y="1222" type="line" smooth="yes"/>
      <point x="192" y="1222"/>
      <point x="176" y="1206"/>
      <point x="176" y="1144" type="curve" smooth="yes"/>
      <point x="176" y="610" type="line" smooth="yes"/>
      <point x="176" y="582"/>
      <point x="176" y="532"/>
      <point x="236" y="532" type="curve" smooth="yes"/>
      <point x="268" y="532"/>
      <point x="276" y="542"/>
      <point x="292" y="562" type="curve" smooth="yes"/>
      <point x="352" y="632"/>
      <point x="440" y="664"/>
      <point x="544" y="664" type="curve" smooth="yes"/>
      <point x="700" y="664"/>
      <point x="796" y="522"/>
      <point x="796" y="380" type="curve" smooth="yes"/>
      <point x="796" y="218"/>
      <point x="656" y="92"/>
      <point x="488" y="92" type="curve" smooth="yes"/>
      <point x="384" y="92"/>
      <point x="278" y="142"/>
      <point x="242" y="236" type="curve"/>
      <point x="250" y="244"/>
      <point x="264" y="258"/>
      <point x="264" y="294" type="curve" smooth="yes"/>
      <point x="264" y="348"/>
      <point x="218" y="376"/>
      <point x="184" y="376" type="curve" smooth="yes"/>
      <point x="166" y="376"/>
      <point x="102" y="366"/>
      <point x="102" y="288" type="curve" smooth="yes"/>
      <point x="102" y="120"/>
      <point x="268" y="-24"/>
      <point x="488" y="-24" type="curve" smooth="yes"/>
      <point x="730" y="-24"/>
      <point x="926" y="156"/>
      <point x="926" y="380" type="curve" smooth="yes"/>
      <point x="926" y="582"/>
      <point x="776" y="780"/>
      <point x="544" y="780" type="curve" smooth="yes"/>
      <point x="478" y="780"/>
      <point x="390" y="768"/>
      <point x="306" y="722" type="curve"/>
      <point x="306" y="1106" type="line"/>
    </contour>
  </outline>
</glyph>
<glyph name="six" format="2">
  <advance width="1028"/>
  <unicode hex="0036"/>
  <outline>
    <contour>
      <point x="238" y="666" type="curve"/>
      <point x="258" y="930"/>
      <point x="432" y="1130"/>
      <point x="628" y="1130" type="curve" smooth="yes"/>
      <point x="668" y="1130"/>
      <point x="714" y="1124"/>
      <point x="744" y="1092" type="curve"/>
      <point x="736" y="1082"/>
      <point x="728" y="1072"/>
      <point x="728" y="1042" type="curve" smooth="yes"/>
      <point x="728" y="1004"/>
      <point x="756" y="962"/>
      <point x="808" y="962" type="curve" smooth="yes"/>
      <point x="860" y="962"/>
      <point x="890" y="1000"/>
      <point x="890" y="1046" type="curve" smooth="yes"/>
      <point x="890" y="1152"/>
      <point x="808" y="1246"/>
      <point x="630" y="1246" type="curve" smooth="yes"/>
      <point x="368" y="1246"/>
      <point x="106" y="1002"/>
      <point x="106" y="598" type="curve" smooth="yes"/>
      <point x="106" y="116"/>
      <point x="328" y="-24"/>
      <point x="518" y="-24" type="curve" smooth="yes"/>
      <point x="732" y="-24"/>
      <point x="922" y="146"/>
      <point x="922" y="386" type="curve" smooth="yes"/>
      <point x="922" y="620"/>
      <point x="748" y="796"/>
      <point x="540" y="796" type="curve" smooth="yes"/>
      <point x="438" y="796"/>
      <point x="324" y="758"/>
    </contour>
    <contour>
      <point x="518" y="92" type="curve" smooth="yes"/>
      <point x="304" y="92"/>
      <point x="260" y="364"/>
      <point x="260" y="366" type="curve" smooth="yes"/>
      <point x="256" y="388"/>
      <point x="254" y="410"/>
      <point x="254" y="446" type="curve" smooth="yes"/>
      <point x="254" y="562"/>
      <point x="362" y="678"/>
      <point x="526" y="678" type="curve" smooth="yes"/>
      <point x="682" y="678"/>
      <point x="792" y="544"/>
      <point x="792" y="386" type="curve" smooth="yes"/>
      <point x="792" y="212"/>
      <point x="662" y="92"/>
    </contour>
  </outline>
</glyph>
<glyph name="seven" format="2">
  <advance width="1028"/>
  <unicode hex="0037"/>
  <outline>
    <contour>
      <point x="748" y="1106" type="line"/>
      <point x="358" y="674"/>
      <point x="336" y="196"/>
      <point x="336" y="66" type="curve" smooth="yes"/>
      <point x="336" y="40"/>
      <point x="336" y="-24"/>
      <point x="402" y="-24" type="curve" smooth="yes"/>
      <point x="464" y="-24"/>
      <point x="466" y="38"/>
      <point x="466" y="66" type="curve" smooth="yes"/>
      <point x="472" y="458"/>
      <point x="636" y="830"/>
      <point x="912" y="1110" type="curve"/>
      <point x="934" y="1130"/>
      <point x="942" y="1138"/>
      <point x="942" y="1164" type="curve" smooth="yes"/>
      <point x="942" y="1222"/>
      <point x="890" y="1222"/>
      <point x="862" y="1222" type="curve" smooth="yes"/>
      <point x="210" y="1222" type="line"/>
      <point x="210" y="1224"/>
      <point x="198" y="1252"/>
      <point x="152" y="1252" type="curve" smooth="yes"/>
      <point x="86" y="1252"/>
      <point x="86" y="1208"/>
      <point x="86" y="1170" type="curve" smooth="yes"/>
      <point x="86" y="1098" type="line" smooth="yes"/>
      <point x="86" y="1062"/>
      <point x="86" y="1016"/>
      <point x="150" y="1016" type="curve" smooth="yes"/>
      <point x="216" y="1016"/>
      <point x="216" y="1058"/>
      <point x="216" y="1106" type="curve"/>
    </contour>
  </outline>
</glyph>
<glyph name="eight" format="2">
  <advance width="514"/>
  <unicode hex="0038"/>
  <outline>
    <contour>
      <point x="332" y="330" type="curve"/>
      <point x="412" y="354"/>
      <point x="457" y="407"/>
      <point x="457" y="463" type="curve" smooth="yes"/>
      <point x="457" y="545"/>
      <point x="374" y="623"/>
      <point x="257" y="623" type="curve" smooth="yes"/>
      <point x="140" y="623"/>
      <point x="57" y="545"/>
      <point x="57" y="463" type="curve" smooth="yes"/>
      <point x="57" y="405"/>
      <point x="105" y="353"/>
      <point x="182" y="330" type="curve"/>
      <point x="81" y="298"/>
      <point x="43" y="229"/>
      <point x="43" y="173" type="curve" smooth="yes"/>
      <point x="43" y="75"/>
      <point x="135" y="-12"/>
      <point x="257" y="-12" type="curve" smooth="yes"/>
      <point x="379" y="-12"/>
      <point x="471" y="74"/>
      <point x="471" y="173" type="curve" smooth="yes"/>
      <point x="471" y="228"/>
      <point x="434" y="298"/>
    </contour>
    <contour>
      <point x="257" y="359" type="curve" smooth="yes"/>
      <point x="178" y="359"/>
      <point x="122" y="408"/>
      <point x="122" y="462" type="curve" smooth="yes"/>
      <point x="122" y="517"/>
      <point x="180" y="565"/>
      <point x="257" y="565" type="curve" smooth="yes"/>
      <point x="334" y="565"/>
      <point x="392" y="517"/>
      <point x="392" y="462" type="curve" smooth="yes"/>
      <point x="392" y="408"/>
      <point x="335" y="359"/>
    </contour>
    <contour>
      <point x="257" y="46" type="curve" smooth="yes"/>
      <point x="171" y="46"/>
      <point x="108" y="107"/>
      <point x="108" y="173" type="curve" smooth="yes"/>
      <point x="108" y="244"/>
      <point x="175" y="301"/>
      <point x="257" y="301" type="curve" smooth="yes"/>
      <point x="341" y="301"/>
      <point x="406" y="241"/>
      <point x="406" y="174" type="curve" smooth="yes"/>
      <point x="406" y="104"/>
      <point x="341" y="46"/>
    </contour>
  </outline>
</glyph>
<glyph name="colon" format="2">
  <advance width="1028"/>
  <unicode hex="003A"/>
  <outline>
    <contour>
      <point x="628" y="748" type="curve" smooth="yes"/>
      <point x="628" y="814"/>
      <point x="574" y="862"/>
      <point x="516" y="862" type="curve" smooth="yes"/>
      <point x="452" y="862"/>
      <point x="402" y="812"/>
      <point x="402" y="748" type="curve" smooth="yes"/>
      <point x="402" y="688"/>
      <point x="454" y="636"/>
      <point x="514" y="636" type="curve" smooth="yes"/>
      <point x="580" y="636"/>
      <point x="628" y="690"/>
    </contour>
    <contour>
      <point x="628" y="112" type="curve" smooth="yes"/>
      <point x="628" y="178"/>
      <point x="574" y="226"/>
      <point x="516" y="226" type="curve" smooth="yes"/>
      <point x="452" y="226"/>
      <point x="402" y="176"/>
      <point x="402" y="112" type="curve" smooth="yes"/>
      <point x="402" y="52"/>
      <point x="454" y="0"/>
      <point x="514" y="0" type="curve" smooth="yes"/>
      <point x="580" y="0"/>
      <point x="628" y="54"/>
    </contour>
  </outline>
</glyph>
<glyph name="semicolon" format="2">
  <advance width="1028"/>
  <unicode hex="003B"/>
  <outline>
    <contour>
      <point x="628" y="748" type="curve" smooth="yes"/>
      <point x="628" y="814"/>
      <point x="574" y="862"/>
      <point x="516" y="862" type="curve" smooth="yes"/>
      <point x="452" y="862"/>
      <point x="402" y="812"/>
      <point x="402" y="748" type="curve" smooth="yes"/>
      <point x="402" y="688"/>
      <point x="454" y="636"/>
      <point x="514" y="636" type="curve" smooth="yes"/>
      <point x="580" y="636"/>
      <point x="628" y="690"/>
    </contour>
    <contour>
      <point x="518" y="0" type="curve"/>
      <point x="500" y="-94"/>
      <point x="446" y="-140"/>
      <point x="394" y="-166" type="curve" smooth="yes"/>
      <point x="378" y="-174"/>
      <point x="356" y="-186"/>
      <point x="356" y="-218" type="curve" smooth="yes"/>
      <point x="356" y="-244"/>
      <point x="386" y="-278"/>
      <point x="418" y="-278" type="curve" smooth="yes"/>
      <point x="456" y="-278"/>
      <point x="638" y="-174"/>
      <point x="638" y="40" type="curve" smooth="yes"/>
      <point x="638" y="172"/>
      <point x="582" y="226"/>
      <point x="514" y="226" type="curve" smooth="yes"/>
      <point x="446" y="226"/>
      <point x="402" y="172"/>
      <point x="402" y="114" type="curve" smooth="yes"/>
      <point x="402" y="76"/>
      <point x="424" y="4"/>
    </contour>
  </outline>
</glyph>
<glyph name="equal" format="2">
  <advance width="1028"/>
  <unicode hex="003D"/>
  <outline>
    <contour>
      <point x="868" y="698" type="line" smooth="yes"/>
      <point x="894" y="698"/>
      <point x="954" y="698"/>
      <point x="954" y="762" type="curve" smooth="yes"/>
      <point x="954" y="828"/>
      <point x="888" y="828"/>
      <point x="858" y="828" type="curve" smooth="yes"/>
      <point x="170" y="828" type="line" smooth="yes"/>
      <point x="140" y="828"/>
      <point x="74" y="828"/>
      <point x="74" y="762" type="curve" smooth="yes"/>
      <point x="74" y="698"/>
      <point x="136" y="698"/>
      <point x="160" y="698" type="curve" smooth="yes"/>
    </contour>
    <contour>
      <point x="858" y="394" type="line" smooth="yes"/>
      <point x="888" y="394"/>
      <point x="954" y="394"/>
      <point x="954" y="460" type="curve" smooth="yes"/>
      <point x="954" y="524"/>
      <point x="892" y="524"/>
      <point x="868" y="524" type="curve" smooth="yes"/>
      <point x="160" y="524" type="line" smooth="yes"/>
      <point x="134" y="524"/>
      <point x="74" y="524"/>
      <point x="74" y="460" type="curve" smooth="yes"/>
      <point x="74" y="394"/>
      <point x="140" y="394"/>
      <point x="170" y="394" type="curve" smooth="yes"/>
    </contour>
  </outline>
</glyph>
<glyph name="question" format="2">
  <advance width="514"/>
  <unicode hex="003F"/>
  <outline>
    <contour>
      <point x="278" y="231" type="line" smooth="yes"/>
      <point x="278" y="299"/>
      <point x="313" y="349"/>
      <point x="391" y="394" type="curve" smooth="yes"/>
      <point x="435" y="420"/>
      <point x="453" y="455"/>
      <point x="453" y="491" type="curve" smooth="yes"/>
      <point x="453" y="527"/>
      <point x="430" y="617"/>
      <point x="247" y="617" type="curve" smooth="yes"/>
      <point x="116" y="617"/>
      <point x="61" y="553"/>
      <point x="61" y="493" type="curve" smooth="yes"/>
      <point x="61" y="458"/>
      <point x="90" y="450"/>
      <point x="102" y="450" type="curve" smooth="yes"/>
      <point x="117" y="450"/>
      <point x="142" y="462"/>
      <point x="142" y="491" type="curve" smooth="yes"/>
      <point x="142" y="507"/>
      <point x="137" y="512"/>
      <point x="133" y="517" type="curve"/>
      <point x="147" y="537"/>
      <point x="180" y="559"/>
      <point x="247" y="559" type="curve" smooth="yes"/>
      <point x="352" y="559"/>
      <point x="388" y="524"/>
      <point x="388" y="491" type="curve" smooth="yes"/>
      <point x="388" y="463"/>
      <point x="363" y="448"/>
      <point x="354" y="443" type="curve" smooth="yes"/>
      <point x="209" y="358"/>
      <point x="206" y="275"/>
      <point x="206" y="224" type="curve" smooth="yes"/>
      <point x="206" y="188"/>
      <point x="206" y="174"/>
      <point x="242" y="174" type="curve" smooth="yes"/>
      <point x="278" y="174"/>
      <point x="278" y="191"/>
      <point x="278" y="213" type="curve" smooth="yes"/>
    </contour>
    <contour>
      <point x="287" y="45" type="curve" smooth="yes"/>
      <point x="287" y="70"/>
      <point x="267" y="90"/>
      <point x="242" y="90" type="curve" smooth="yes"/>
      <point x="217" y="90"/>
      <point x="197" y="70"/>
      <point x="197" y="45" type="curve" smooth="yes"/>
      <point x="197" y="20"/>
      <point x="217" y="0"/>
      <point x="242" y="0" type="curve" smooth="yes"/>
      <point x="267" y="0"/>
      <point x="287" y="20"/>
    </contour>
  </outline>
</glyph>
<glyph name="at" format="2">
  <advance width="1028"/>
  <unicode hex="0040"/>
  <outline>
    <contour>
      <point x="786" y="966" type="curve"/>
      <point x="760" y="984"/>
      <point x="712" y="1008"/>
      <point x="658" y="1008" type="curve" smooth="yes"/>
      <point x="500" y="1008"/>
      <point x="372" y="836"/>
      <point x="372" y="612" type="curve" smooth="yes"/>
      <point x="372" y="376"/>
      <point x="508" y="214"/>
      <point x="656" y="214" type="curve" smooth="yes"/>
      <point x="754" y="214"/>
      <point x="942" y="300"/>
      <point x="942" y="642" type="curve" smooth="yes"/>
      <point x="942" y="776"/>
      <point x="942" y="1234"/>
      <point x="596" y="1234" type="curve" smooth="yes"/>
      <point x="332" y="1234"/>
      <point x="86" y="974"/>
      <point x="86" y="612" type="curve" smooth="yes"/>
      <point x="86" y="252"/>
      <point x="326" y="-12"/>
      <point x="600" y="-12" type="curve" smooth="yes"/>
      <point x="788" y="-12"/>
      <point x="942" y="110"/>
      <point x="942" y="158" type="curve" smooth="yes"/>
      <point x="942" y="210"/>
      <point x="892" y="210"/>
      <point x="872" y="210" type="curve" smooth="yes"/>
      <point x="842" y="210"/>
      <point x="834" y="210"/>
      <point x="814" y="192" type="curve" smooth="yes"/>
      <point x="746" y="126"/>
      <point x="670" y="104"/>
      <point x="600" y="104" type="curve" smooth="yes"/>
      <point x="386" y="104"/>
      <point x="198" y="322"/>
      <point x="198" y="610" type="curve" smooth="yes"/>
      <point x="198" y="910"/>
      <point x="394" y="1118"/>
      <point x="598" y="1118" type="curve" smooth="yes"/>
      <point x="656" y="1118"/>
      <point x="740" y="1096"/>
    </contour>
    <contour>
      <point x="658" y="330" type="curve" smooth="yes"/>
      <point x="566" y="330"/>
      <point x="484" y="454"/>
      <point x="484" y="610" type="curve" smooth="yes"/>
      <point x="484" y="778"/>
      <point x="574" y="892"/>
      <point x="656" y="892" type="curve" smooth="yes"/>
      <point x="748" y="892"/>
      <point x="830" y="768"/>
      <point x="830" y="612" type="curve" smooth="yes"/>
      <point x="830" y="444"/>
      <point x="740" y="330"/>
    </contour>
  </outline>
</glyph>
<glyph name="A" format="2">
  <advance width="1028"/>
  <unicode hex="0041"/>
  <outline>
    <contour>
      <point x="616" y="1178" type="line" smooth="yes"/>
      <point x="600" y="1250"/>
      <point x="560" y="1250"/>
      <point x="514" y="1250" type="curve"/>
      <point x="514" y="1250" type="line"/>
      <point x="452" y="1250"/>
      <point x="428" y="1242"/>
      <point x="414" y="1178" type="curve" smooth="yes"/>
      <point x="166" y="116" type="line"/>
      <point x="166" y="116"/>
      <point x="166" y="116"/>
      <point x="166" y="116" type="curve"/>
      <point x="100" y="116"/>
      <point x="54" y="116"/>
      <point x="54" y="58" type="curve" smooth="yes"/>
      <point x="54" y="0"/>
      <point x="108" y="0"/>
      <point x="136" y="0" type="curve" smooth="yes"/>
      <point x="328" y="0" type="line" smooth="yes"/>
      <point x="356" y="0"/>
      <point x="410" y="0"/>
      <point x="410" y="58" type="curve" smooth="yes"/>
      <point x="410" y="116"/>
      <point x="362" y="116"/>
      <point x="300" y="116" type="curve"/>
      <point x="352" y="340" type="line"/>
      <point x="676" y="340" type="line"/>
      <point x="728" y="116" type="line"/>
      <point x="666" y="116"/>
      <point x="618" y="116"/>
      <point x="618" y="58" type="curve" smooth="yes"/>
      <point x="618" y="0"/>
      <point x="672" y="0"/>
      <point x="700" y="0" type="curve" smooth="yes"/>
      <point x="892" y="0" type="line" smooth="yes"/>
      <point x="920" y="0"/>
      <point x="974" y="0"/>
      <point x="974" y="58" type="curve" smooth="yes"/>
      <point x="974" y="116"/>
      <point x="928" y="116"/>
      <point x="862" y="116" type="curve"/>
      <point x="862" y="116"/>
      <point x="862" y="116"/>
      <point x="862" y="116" type="curve"/>
    </contour>
    <contour>
      <point x="650" y="456" type="line"/>
      <point x="378" y="456" type="line"/>
      <point x="392" y="516"/>
      <point x="502" y="988"/>
      <point x="512" y="1084" type="curve"/>
      <point x="514" y="1084" type="line"/>
      <point x="520" y="1038"/>
      <point x="548" y="916"/>
      <point x="548" y="914" type="curve"/>
    </contour>
  </outline>
</glyph>
<glyph name="B" format="2">
  <advance width="1028"/>
  <unicode hex="0042"/>
  <outline>
    <contour>
      <point x="132" y="1222" type="line" smooth="yes"/>
      <point x="104" y="1222"/>
      <point x="52" y="1222"/>
      <point x="52" y="1164" type="curve" smooth="yes"/>
      <point x="52" y="1106"/>
      <point x="106" y="1106"/>
      <point x="134" y="1106" type="curve" smooth="yes"/>
      <point x="182" y="1106" type="line"/>
      <point x="182" y="116" type="line"/>
      <point x="134" y="116" type="line" smooth="yes"/>
      <point x="106" y="116"/>
      <point x="52" y="116"/>
      <point x="52" y="58" type="curve" smooth="yes"/>
      <point x="52" y="0"/>
      <point x="106" y="0"/>
      <point x="132" y="0" type="curve" smooth="yes"/>
      <point x="606" y="0" type="line" smooth="yes"/>
      <point x="828" y="0"/>
      <point x="946" y="176"/>
      <point x="946" y="334" type="curve" smooth="yes"/>
      <point x="946" y="476"/>
      <point x="848" y="606"/>
      <point x="690" y="640" type="curve"/>
      <point x="790" y="672"/>
      <point x="904" y="768"/>
      <point x="904" y="912" type="curve" smooth="yes"/>
      <point x="904" y="1058"/>
      <point x="786" y="1222"/>
      <point x="566" y="1222" type="curve" smooth="yes"/>
    </contour>
    <contour>
      <point x="312" y="694" type="line"/>
      <point x="312" y="1106" type="line"/>
      <point x="560" y="1106" type="line" smooth="yes"/>
      <point x="726" y="1106"/>
      <point x="774" y="982"/>
      <point x="774" y="910" type="curve" smooth="yes"/>
      <point x="774" y="816"/>
      <point x="696" y="694"/>
      <point x="528" y="694" type="curve" smooth="yes"/>
    </contour>
    <contour>
      <point x="312" y="116" type="line"/>
      <point x="312" y="578" type="line"/>
      <point x="574" y="578" type="line" smooth="yes"/>
      <point x="776" y="578"/>
      <point x="816" y="406"/>
      <point x="816" y="338" type="curve" smooth="yes"/>
      <point x="816" y="240"/>
      <point x="740" y="116"/>
      <point x="562" y="116" type="curve" smooth="yes"/>
    </contour>
  </outline>
</glyph>
<glyph name="C" format="2">
	<unicode hex="0043"/>
	<advance width="514"/>
	<outline>
		<contour>
			<point x="40" y="306" type="curve" smooth="yes"/>
			<point x="40" y="123"/>
			<point x="150" y="-12"/>
			<point x="276" y="-12" type="curve" smooth="yes"/>
			<point x="393" y="-12"/>
			<point x="474" y="81"/>
			<point x="474" y="169" type="curve" smooth="yes"/>
			<point x="474" y="200"/>
			<point x="453" y="200"/>
			<point x="441" y="200" type="curve" smooth="yes"/>
			<point x="427" y="200"/>
			<point x="411" y="195"/>
			<point x="409" y="178" type="curve"/>
			<point x="401" y="53"/>
			<point x="300" y="46"/>
			<point x="283" y="46" type="curve" smooth="yes"/>
			<point x="190" y="46"/>
			<point x="105" y="155"/>
			<point x="105" y="306" type="curve" smooth="yes"/>
			<point x="105" y="457"/>
			<point x="191" y="565"/>
			<point x="282" y="565" type="curve" smooth="yes"/>
			<point x="336" y="565"/>
			<point x="395" y="522"/>
			<point x="409" y="430" type="curve" smooth="yes"/>
			<point x="412" y="408"/>
			<point x="421" y="402"/>
			<point x="441" y="402" type="curve" smooth="yes"/>
			<point x="474" y="402"/>
			<point x="474" y="420"/>
			<point x="474" y="440" type="curve" smooth="yes"/>
			<point x="474" y="585" type="line" smooth="yes"/>
			<point x="474" y="601"/>
			<point x="474" y="623"/>
			<point x="446" y="623" type="curve" smooth="yes"/>
			<point x="428" y="623"/>
			<point x="423" y="612"/>
			<point x="419" y="605" type="curve"/>
			<point x="416" y="597"/>
			<point x="408" y="579"/>
			<point x="405" y="572" type="curve"/>
			<point x="364" y="608"/>
			<point x="318" y="623"/>
			<point x="276" y="623" type="curve" smooth="yes"/>
			<point x="147" y="623"/>
			<point x="40" y="485"/>
		</contour>
	</outline>
</glyph>
<glyph name="D" format="2">
  <advance width="1028"/>
  <unicode hex="0044"/>
  <outline>
    <contour>
      <point x="124" y="1222" type="line" smooth="yes"/>
      <point x="96" y="1222"/>
      <point x="44" y="1222"/>
      <point x="44" y="1164" type="curve" smooth="yes"/>
      <point x="44" y="1106"/>
      <point x="96" y="1106"/>
      <point x="124" y="1106" type="curve" smooth="yes"/>
      <point x="164" y="1106" type="line"/>
      <point x="164" y="116" type="line"/>
      <point x="124" y="116" type="line" smooth="yes"/>
      <point x="96" y="116"/>
      <point x="44" y="116"/>
      <point x="44" y="58" type="curve" smooth="yes"/>
      <point x="44" y="0"/>
      <point x="96" y="0"/>
      <point x="124" y="0" type="curve" smooth="yes"/>
      <point x="522" y="0" type="line" smooth="yes"/>
      <point x="780" y="0"/>
      <point x="952" y="284"/>
      <point x="952" y="600" type="curve" smooth="yes"/>
      <point x="952" y="920"/>
      <point x="786" y="1222"/>
      <point x="520" y="1222" type="curve" smooth="yes"/>
    </contour>
    <contour>
      <point x="294" y="116" type="line"/>
      <point x="294" y="1106" type="line"/>
      <point x="484" y="1106" type="line" smooth="yes"/>
      <point x="716" y="1106"/>
      <point x="822" y="830"/>
      <point x="822" y="602" type="curve" smooth="yes"/>
      <point x="822" y="360"/>
      <point x="704" y="116"/>
      <point x="486" y="116" type="curve" smooth="yes"/>
    </contour>
  </outline>
</glyph>
<glyph name="E" format="2">
  <advance width="1028"/>
  <unicode hex="0045"/>
  <outline>
    <contour>
      <point x="322" y="576" type="line"/>
      <point x="586" y="576" type="line"/>
      <point x="586" y="506"/>
      <point x="586" y="468"/>
      <point x="652" y="468" type="curve" smooth="yes"/>
      <point x="716" y="468"/>
      <point x="716" y="514"/>
      <point x="716" y="550" type="curve" smooth="yes"/>
      <point x="716" y="718" type="line" smooth="yes"/>
      <point x="716" y="754"/>
      <point x="716" y="800"/>
      <point x="652" y="800" type="curve" smooth="yes"/>
      <point x="586" y="800"/>
      <point x="586" y="762"/>
      <point x="586" y="692" type="curve"/>
      <point x="322" y="692" type="line"/>
      <point x="322" y="1106" type="line"/>
      <point x="812" y="1106" type="line"/>
      <point x="812" y="1008" type="line" smooth="yes"/>
      <point x="812" y="972"/>
      <point x="812" y="926"/>
      <point x="876" y="926" type="curve" smooth="yes"/>
      <point x="942" y="926"/>
      <point x="942" y="970"/>
      <point x="942" y="1008" type="curve" smooth="yes"/>
      <point x="942" y="1140" type="line" smooth="yes"/>
      <point x="942" y="1202"/>
      <point x="930" y="1222"/>
      <point x="862" y="1222" type="curve" smooth="yes"/>
      <point x="138" y="1222" type="line" smooth="yes"/>
      <point x="110" y="1222"/>
      <point x="56" y="1222"/>
      <point x="56" y="1164" type="curve" smooth="yes"/>
      <point x="56" y="1106"/>
      <point x="110" y="1106"/>
      <point x="138" y="1106" type="curve" smooth="yes"/>
      <point x="192" y="1106" type="line"/>
      <point x="192" y="116" type="line"/>
      <point x="138" y="116" type="line" smooth="yes"/>
      <point x="110" y="116"/>
      <point x="56" y="116"/>
      <point x="56" y="58" type="curve" smooth="yes"/>
      <point x="56" y="0"/>
      <point x="110" y="0"/>
      <point x="138" y="0" type="curve" smooth="yes"/>
      <point x="906" y="0" type="line" smooth="yes"/>
      <point x="972" y="0"/>
      <point x="986" y="18"/>
      <point x="986" y="82" type="curve" smooth="yes"/>
      <point x="986" y="244" type="line" smooth="yes"/>
      <point x="986" y="280"/>
      <point x="986" y="326"/>
      <point x="922" y="326" type="curve" smooth="yes"/>
      <point x="856" y="326"/>
      <point x="856" y="282"/>
      <point x="856" y="244" type="curve" smooth="yes"/>
      <point x="856" y="116" type="line"/>
      <point x="322" y="116" type="line"/>
    </contour>
  </outline>
</glyph>
<glyph name="F" format="2">
  <advance width="1028"/>
  <unicode hex="0046"/>
  <outline>
    <contour>
      <point x="334" y="554" type="line"/>
      <point x="606" y="554" type="line"/>
      <point x="606" y="484"/>
      <point x="606" y="446"/>
      <point x="672" y="446" type="curve" smooth="yes"/>
      <point x="736" y="446"/>
      <point x="736" y="492"/>
      <point x="736" y="528" type="curve" smooth="yes"/>
      <point x="736" y="696" type="line" smooth="yes"/>
      <point x="736" y="732"/>
      <point x="736" y="778"/>
      <point x="672" y="778" type="curve" smooth="yes"/>
      <point x="606" y="778"/>
      <point x="606" y="740"/>
      <point x="606" y="670" type="curve"/>
      <point x="334" y="670" type="line"/>
      <point x="334" y="1106" type="line"/>
      <point x="830" y="1106" type="line"/>
      <point x="830" y="1008" type="line" smooth="yes"/>
      <point x="830" y="972"/>
      <point x="830" y="926"/>
      <point x="894" y="926" type="curve" smooth="yes"/>
      <point x="960" y="926"/>
      <point x="960" y="970"/>
      <point x="960" y="1008" type="curve" smooth="yes"/>
      <point x="960" y="1140" type="line" smooth="yes"/>
      <point x="960" y="1202"/>
      <point x="948" y="1222"/>
      <point x="880" y="1222" type="curve" smooth="yes"/>
      <point x="144" y="1222" type="line" smooth="yes"/>
      <point x="116" y="1222"/>
      <point x="62" y="1222"/>
      <point x="62" y="1164" type="curve" smooth="yes"/>
      <point x="62" y="1106"/>
      <point x="116" y="1106"/>
      <point x="144" y="1106" type="curve" smooth="yes"/>
      <point x="204" y="1106" type="line"/>
      <point x="204" y="116" type="line"/>
      <point x="144" y="116" type="line" smooth="yes"/>
      <point x="116" y="116"/>
      <point x="62" y="116"/>
      <point x="62" y="58" type="curve" smooth="yes"/>
      <point x="62" y="0"/>
      <point x="116" y="0"/>
      <point x="144" y="0" type="curve" smooth="yes"/>
      <point x="430" y="0" type="line" smooth="yes"/>
      <point x="458" y="0"/>
      <point x="510" y="0"/>
      <point x="510" y="58" type="curve" smooth="yes"/>
      <point x="510" y="116"/>
      <point x="458" y="116"/>
      <point x="430" y="116" type="curve" smooth="yes"/>
      <point x="334" y="116" type="line"/>
    </contour>
  </outline>
</glyph>
<glyph name="G" format="2">
  <advance width="1028"/>
  <unicode hex="0047"/>
  <outline>
    <contour>
      <point x="880" y="424" type="line"/>
      <point x="920" y="424"/>
      <point x="972" y="424"/>
      <point x="972" y="482" type="curve" smooth="yes"/>
      <point x="972" y="540"/>
      <point x="918" y="540"/>
      <point x="890" y="540" type="curve" smooth="yes"/>
      <point x="666" y="540" type="line" smooth="yes"/>
      <point x="638" y="540"/>
      <point x="584" y="540"/>
      <point x="584" y="482" type="curve" smooth="yes"/>
      <point x="584" y="424"/>
      <point x="638" y="424"/>
      <point x="666" y="424" type="curve" smooth="yes"/>
      <point x="748" y="424" type="line"/>
      <point x="738" y="302"/>
      <point x="684" y="92"/>
      <point x="520" y="92" type="curve" smooth="yes"/>
      <point x="358" y="92"/>
      <point x="204" y="310"/>
      <point x="204" y="610" type="curve" smooth="yes"/>
      <point x="204" y="918"/>
      <point x="364" y="1130"/>
      <point x="522" y="1130" type="curve" smooth="yes"/>
      <point x="618" y="1130"/>
      <point x="724" y="1054"/>
      <point x="750" y="854" type="curve" smooth="yes"/>
      <point x="756" y="804"/>
      <point x="794" y="804"/>
      <point x="814" y="804" type="curve" smooth="yes"/>
      <point x="880" y="804"/>
      <point x="880" y="840"/>
      <point x="880" y="880" type="curve" smooth="yes"/>
      <point x="880" y="1170" type="line" smooth="yes"/>
      <point x="880" y="1202"/>
      <point x="880" y="1246"/>
      <point x="824" y="1246" type="curve" smooth="yes"/>
      <point x="790" y="1246"/>
      <point x="776" y="1224"/>
      <point x="768" y="1204" type="curve" smooth="yes"/>
      <point x="746" y="1150" type="line"/>
      <point x="680" y="1210"/>
      <point x="600" y="1246"/>
      <point x="512" y="1246" type="curve" smooth="yes"/>
      <point x="276" y="1246"/>
      <point x="74" y="976"/>
      <point x="74" y="612" type="curve" smooth="yes"/>
      <point x="74" y="242"/>
      <point x="278" y="-24"/>
      <point x="512" y="-24" type="curve" smooth="yes"/>
      <point x="598" y="-24"/>
      <point x="682" y="12"/>
      <point x="750" y="86" type="curve"/>
      <point x="750" y="34"/>
      <point x="750" y="-4"/>
      <point x="816" y="-4" type="curve" smooth="yes"/>
      <point x="880" y="-4"/>
      <point x="880" y="38"/>
      <point x="880" y="76" type="curve" smooth="yes"/>
    </contour>
  </outline>
</glyph>
<glyph name="H" format="2">
  <advance width="1028"/>
  <unicode hex="0048"/>
  <outline>
    <contour>
      <point x="856" y="1106" type="line"/>
      <point x="900" y="1106" type="line" smooth="yes"/>
      <point x="928" y="1106"/>
      <point x="980" y="1106"/>
      <point x="980" y="1164" type="curve" smooth="yes"/>
      <point x="980" y="1222"/>
      <point x="930" y="1222"/>
      <point x="900" y="1222" type="curve" smooth="yes"/>
      <point x="682" y="1222" type="line" smooth="yes"/>
      <point x="654" y="1222"/>
      <point x="600" y="1222"/>
      <point x="600" y="1164" type="curve" smooth="yes"/>
      <point x="600" y="1106"/>
      <point x="654" y="1106"/>
      <point x="682" y="1106" type="curve" smooth="yes"/>
      <point x="726" y="1106" type="line"/>
      <point x="726" y="694" type="line"/>
      <point x="302" y="694" type="line"/>
      <point x="302" y="1106" type="line"/>
      <point x="346" y="1106" type="line" smooth="yes"/>
      <point x="374" y="1106"/>
      <point x="428" y="1106"/>
      <point x="428" y="1164" type="curve" smooth="yes"/>
      <point x="428" y="1222"/>
      <point x="374" y="1222"/>
      <point x="346" y="1222" type="curve" smooth="yes"/>
      <point x="128" y="1222" type="line" smooth="yes"/>
      <point x="98" y="1222"/>
      <point x="48" y="1222"/>
      <point x="48" y="1164" type="curve" smooth="yes"/>
      <point x="48" y="1106"/>
      <point x="100" y="1106"/>
      <point x="128" y="1106" type="curve" smooth="yes"/>
      <point x="172" y="1106" type="line"/>
      <point x="172" y="116" type="line"/>
      <point x="128" y="116" type="line" smooth="yes"/>
      <point x="100" y="116"/>
      <point x="48" y="116"/>
      <point x="48" y="58" type="curve" smooth="yes"/>
      <point x="48" y="0"/>
      <point x="98" y="0"/>
      <point x="128" y="0" type="curve" smooth="yes"/>
      <point x="346" y="0" type="line" smooth="yes"/>
      <point x="374" y="0"/>
      <point x="428" y="0"/>
      <point x="428" y="58" type="curve" smooth="yes"/>
      <point x="428" y="116"/>
      <point x="374" y="116"/>
      <point x="346" y="116" type="curve" smooth="yes"/>
      <point x="302" y="116" type="line"/>
      <point x="302" y="578" type="line"/>
      <point x="726" y="578" type="line"/>
      <point x="726" y="116" type="line"/>
      <point x="682" y="116" type="line" smooth="yes"/>
      <point x="654" y="116"/>
      <point x="600" y="116"/>
      <point x="600" y="58" type="curve" smooth="yes"/>
      <point x="600" y="0"/>
      <point x="654" y="0"/>
      <point x="682" y="0" type="curve" smooth="yes"/>
      <point x="900" y="0" type="line" smooth="yes"/>
      <point x="930" y="0"/>
      <point x="980" y="0"/>
      <point x="980" y="58" type="curve" smooth="yes"/>
      <point x="980" y="116"/>
      <point x="928" y="116"/>
      <point x="900" y="116" type="curve" smooth="yes"/>
      <point x="856" y="116" type="line"/>
    </contour>
  </outline>
</glyph>
<glyph name="I" format="2">
  <advance width="1028"/>
  <unicode hex="0049"/>
  <outline>
    <contour>
      <point x="580" y="1106" type="line"/>
      <point x="784" y="1106" type="line" smooth="yes"/>
      <point x="812" y="1106"/>
      <point x="864" y="1106"/>
      <point x="864" y="1164" type="curve" smooth="yes"/>
      <point x="864" y="1222"/>
      <point x="812" y="1222"/>
      <point x="784" y="1222" type="curve" smooth="yes"/>
      <point x="246" y="1222" type="line" smooth="yes"/>
      <point x="218" y="1222"/>
      <point x="166" y="1222"/>
      <point x="166" y="1164" type="curve" smooth="yes"/>
      <point x="166" y="1106"/>
      <point x="218" y="1106"/>
      <point x="246" y="1106" type="curve" smooth="yes"/>
      <point x="450" y="1106" type="line"/>
      <point x="450" y="116" type="line"/>
      <point x="246" y="116" type="line" smooth="yes"/>
      <point x="218" y="116"/>
      <point x="166" y="116"/>
      <point x="166" y="58" type="curve" smooth="yes"/>
      <point x="166" y="0"/>
      <point x="218" y="0"/>
      <point x="246" y="0" type="curve" smooth="yes"/>
      <point x="784" y="0" type="line" smooth="yes"/>
      <point x="812" y="0"/>
      <point x="864" y="0"/>
      <point x="864" y="58" type="curve" smooth="yes"/>
      <point x="864" y="116"/>
      <point x="812" y="116"/>
      <point x="784" y="116" type="curve" smooth="yes"/>
      <point x="580" y="116" type="line"/>
    </contour>
  </outline>
</glyph>
<glyph name="J" format="2">
  <advance width="1028"/>
  <unicode hex="004A"/>
  <outline>
    <contour>
      <point x="800" y="1106" type="line"/>
      <point x="854" y="1106" type="line" smooth="yes"/>
      <point x="882" y="1106"/>
      <point x="936" y="1106"/>
      <point x="936" y="1164" type="curve" smooth="yes"/>
      <point x="936" y="1222"/>
      <point x="882" y="1222"/>
      <point x="854" y="1222" type="curve" smooth="yes"/>
      <point x="516" y="1222" type="line" smooth="yes"/>
      <point x="488" y="1222"/>
      <point x="436" y="1222"/>
      <point x="436" y="1164" type="curve" smooth="yes"/>
      <point x="436" y="1106"/>
      <point x="488" y="1106"/>
      <point x="516" y="1106" type="curve" smooth="yes"/>
      <point x="670" y="1106" type="line"/>
      <point x="670" y="280" type="line" smooth="yes"/>
      <point x="670" y="104"/>
      <point x="508" y="92"/>
      <point x="474" y="92" type="curve" smooth="yes"/>
      <point x="450" y="92"/>
      <point x="350" y="96"/>
      <point x="298" y="156" type="curve"/>
      <point x="308" y="168"/>
      <point x="314" y="186"/>
      <point x="314" y="204" type="curve" smooth="yes"/>
      <point x="314" y="246"/>
      <point x="282" y="284"/>
      <point x="234" y="284" type="curve" smooth="yes"/>
      <point x="188" y="284"/>
      <point x="152" y="254"/>
      <point x="152" y="198" type="curve" smooth="yes"/>
      <point x="152" y="70"/>
      <point x="288" y="-24"/>
      <point x="472" y="-24" type="curve" smooth="yes"/>
      <point x="640" y="-24"/>
      <point x="800" y="82"/>
      <point x="800" y="268" type="curve" smooth="yes"/>
    </contour>
  </outline>
</glyph>
<glyph name="K" format="2">
  <advance width="1028"/>
  <unicode hex="004B"/>
  <outline>
    <contour>
      <point x="542" y="716" type="line"/>
      <point x="848" y="1106" type="line"/>
      <point x="906" y="1106"/>
      <point x="952" y="1106"/>
      <point x="952" y="1164" type="curve" smooth="yes"/>
      <point x="952" y="1222"/>
      <point x="900" y="1222"/>
      <point x="872" y="1222" type="curve" smooth="yes"/>
      <point x="704" y="1222" type="line" smooth="yes"/>
      <point x="676" y="1222"/>
      <point x="624" y="1222"/>
      <point x="624" y="1164" type="curve" smooth="yes"/>
      <point x="624" y="1106"/>
      <point x="676" y="1106"/>
      <point x="704" y="1106" type="curve"/>
      <point x="284" y="570" type="line"/>
      <point x="284" y="1106" type="line"/>
      <point x="324" y="1106" type="line" smooth="yes"/>
      <point x="352" y="1106"/>
      <point x="404" y="1106"/>
      <point x="404" y="1164" type="curve" smooth="yes"/>
      <point x="404" y="1222"/>
      <point x="352" y="1222"/>
      <point x="324" y="1222" type="curve" smooth="yes"/>
      <point x="132" y="1222" type="line" smooth="yes"/>
      <point x="104" y="1222"/>
      <point x="52" y="1222"/>
      <point x="52" y="1164" type="curve" smooth="yes"/>
      <point x="52" y="1106"/>
      <point x="104" y="1106"/>
      <point x="132" y="1106" type="curve" smooth="yes"/>
      <point x="172" y="1106" type="line"/>
      <point x="172" y="116" type="line"/>
      <point x="132" y="116" type="line" smooth="yes"/>
      <point x="104" y="116"/>
      <point x="52" y="116"/>
      <point x="52" y="58" type="curve" smooth="yes"/>
      <point x="52" y="0"/>
      <point x="104" y="0"/>
      <point x="132" y="0" type="curve" smooth="yes"/>
      <point x="324" y="0" type="line" smooth="yes"/>
      <point x="352" y="0"/>
      <point x="404" y="0"/>
      <point x="404" y="58" type="curve" smooth="yes"/>
      <point x="404" y="116"/>
      <point x="352" y="116"/>
      <point x="324" y="116" type="curve" smooth="yes"/>
      <point x="284" y="116" type="line"/>
      <point x="284" y="388" type="line"/>
      <point x="466" y="620" type="line"/>
      <point x="744" y="116" type="line"/>
      <point x="718" y="116"/>
      <point x="666" y="116"/>
      <point x="666" y="58" type="curve" smooth="yes"/>
      <point x="666" y="0"/>
      <point x="718" y="0"/>
      <point x="746" y="0" type="curve" smooth="yes"/>
      <point x="890" y="0" type="line" smooth="yes"/>
      <point x="918" y="0"/>
      <point x="970" y="0"/>
      <point x="970" y="58" type="curve" smooth="yes"/>
      <point x="970" y="116"/>
      <point x="922" y="116"/>
      <point x="872" y="116" type="curve"/>
    </contour>
  </outline>
</glyph>
<glyph name="L" format="2">
  <advance width="514"/>
  <unicode hex="004C"/>
  <outline>
    <contour>
      <point x="173" y="553" type="line"/>
      <point x="225" y="553" type="line" smooth="yes"/>
      <point x="239" y="553"/>
      <point x="265" y="553"/>
      <point x="265" y="582" type="curve" smooth="yes"/>
      <point x="265" y="611"/>
      <point x="239" y="611"/>
      <point x="225" y="611" type="curve" smooth="yes"/>
      <point x="75" y="611" type="line" smooth="yes"/>
      <point x="61" y="611"/>
      <point x="34" y="611"/>
      <point x="34" y="582" type="curve" smooth="yes"/>
      <point x="34" y="553"/>
      <point x="61" y="553"/>
      <point x="75" y="553" type="curve" smooth="yes"/>
      <point x="108" y="553" type="line"/>
      <point x="108" y="58" type="line"/>
      <point x="75" y="58" type="line" smooth="yes"/>
      <point x="61" y="58"/>
      <point x="34" y="58"/>
      <point x="34" y="29" type="curve" smooth="yes"/>
      <point x="34" y="0"/>
      <point x="61" y="0"/>
      <point x="75" y="0" type="curve" smooth="yes"/>
      <point x="439" y="0" type="line" smooth="yes"/>
      <point x="472" y="0"/>
      <point x="479" y="9"/>
      <point x="479" y="41" type="curve" smooth="yes"/>
      <point x="479" y="123" type="line" smooth="yes"/>
      <point x="479" y="140"/>
      <point x="479" y="163"/>
      <point x="447" y="163" type="curve" smooth="yes"/>
      <point x="414" y="163"/>
      <point x="414" y="141"/>
      <point x="414" y="123" type="curve" smooth="yes"/>
      <point x="414" y="58" type="line"/>
      <point x="173" y="58" type="line"/>
    </contour>
  </outline>
</glyph>
<glyph name="M" format="2">
	<unicode hex="004D"/>
	<advance width="514"/>
	<outline>
		<contour>
			<point x="124" y="58" type="curve"/>
			<point x="124" y="541" type="line"/>
			<point x="125" y="541" type="line"/>
			<point x="131" y="510"/>
			<point x="134" y="499"/>
			<point x="146" y="463" type="curve" smooth="yes"/>
			<point x="169.643" y="388.741"/>
			<point x="193.286" y="314.482"/>
			<point x="217" y="240" type="curve" smooth="yes"/>
			<point x="221" y="229"/>
			<point x="228" y="204"/>
			<point x="257" y="204" type="curve" smooth="yes"/>
			<point x="269" y="204"/>
			<point x="288" y="211"/>
			<point x="294" y="230" type="curve" smooth="yes"/>
			<point x="366" y="454" type="line" smooth="yes"/>
			<point x="380" y="499"/>
			<point x="390" y="534"/>
			<point x="390" y="539" type="curve"/>
			<point x="390" y="539" type="line"/>
			<point x="390" y="58" type="line"/>
			<point x="364" y="58"/>
			<point x="339" y="58"/>
			<point x="339" y="29" type="curve" smooth="yes"/>
			<point x="339" y="0"/>
			<point x="366" y="0"/>
			<point x="380" y="0" type="curve" smooth="yes"/>
			<point x="456" y="0" type="line" smooth="yes"/>
			<point x="470" y="0"/>
			<point x="497" y="0"/>
			<point x="497" y="29" type="curve" smooth="yes"/>
			<point x="497" y="58"/>
			<point x="472" y="58"/>
			<point x="446" y="58" type="curve"/>
			<point x="446" y="553" type="line"/>
			<point x="472" y="553"/>
			<point x="497" y="553"/>
			<point x="497" y="582" type="curve" smooth="yes"/>
			<point x="497" y="611"/>
			<point x="470" y="611"/>
			<point x="456" y="611" type="curve" smooth="yes"/>
			<point x="403" y="611" type="line" smooth="yes"/>
			<point x="364" y="611"/>
			<point x="358" y="599"/>
			<point x="350" y="573" type="curve" smooth="yes"/>
			<point x="292" y="394" type="line" smooth="yes"/>
			<point x="279" y="353"/>
			<point x="263" y="305"/>
			<point x="257" y="272" type="curve"/>
			<point x="256" y="272" type="line"/>
			<point x="253" y="290"/>
			<point x="240" y="335"/>
			<point x="224" y="386" type="curve" smooth="yes"/>
			<point x="159" y="586" type="line" smooth="yes"/>
			<point x="151" y="612"/>
			<point x="128" y="611"/>
			<point x="111" y="611" type="curve" smooth="yes"/>
			<point x="58" y="611" type="line" smooth="yes"/>
			<point x="44" y="611"/>
			<point x="17" y="611"/>
			<point x="17" y="582" type="curve" smooth="yes"/>
			<point x="17" y="553"/>
			<point x="42" y="553"/>
			<point x="68" y="553" type="curve"/>
			<point x="68" y="58" type="line"/>
			<point x="42" y="58"/>
			<point x="17" y="58"/>
			<point x="17" y="29" type="curve" smooth="yes"/>
			<point x="17" y="0"/>
			<point x="44" y="0"/>
			<point x="58" y="0" type="curve" smooth="yes"/>
			<point x="134" y="0" type="line" smooth="yes"/>
			<point x="148" y="0"/>
			<point x="175" y="0"/>
			<point x="175" y="29" type="curve" smooth="yes"/>
			<point x="175" y="58"/>
			<point x="150" y="58"/>
		</contour>
	</outline>
</glyph>
<glyph name="N" format="2">
  <advance width="1028"/>
  <unicode hex="004E"/>
  <outline>
    <contour>
      <point x="608" y="1164" type="curve" smooth="yes"/>
      <point x="608" y="1106"/>
      <point x="662" y="1106"/>
      <point x="690" y="1106" type="curve" smooth="yes"/>
      <point x="734" y="1106" type="line"/>
      <point x="734" y="138" type="line"/>
      <point x="732" y="138" type="line"/>
      <point x="726" y="160"/>
      <point x="708" y="212"/>
      <point x="672" y="314" type="curve" smooth="yes"/>
      <point x="374" y="1154" type="line" smooth="yes"/>
      <point x="350" y="1222"/>
      <point x="310" y="1222"/>
      <point x="268" y="1222" type="curve" smooth="yes"/>
      <point x="138" y="1222" type="line" smooth="yes"/>
      <point x="108" y="1222"/>
      <point x="58" y="1222"/>
      <point x="58" y="1164" type="curve" smooth="yes"/>
      <point x="58" y="1106"/>
      <point x="110" y="1106"/>
      <point x="138" y="1106" type="curve" smooth="yes"/>
      <point x="182" y="1106" type="line"/>
      <point x="182" y="116" type="line"/>
      <point x="138" y="116" type="line" smooth="yes"/>
      <point x="110" y="116"/>
      <point x="58" y="116"/>
      <point x="58" y="58" type="curve" smooth="yes"/>
      <point x="58" y="0"/>
      <point x="108" y="0"/>
      <point x="138" y="0" type="curve" smooth="yes"/>
      <point x="338" y="0" type="line" smooth="yes"/>
      <point x="366" y="0"/>
      <point x="420" y="0"/>
      <point x="420" y="58" type="curve" smooth="yes"/>
      <point x="420" y="116"/>
      <point x="366" y="116"/>
      <point x="338" y="116" type="curve" smooth="yes"/>
      <point x="294" y="116" type="line"/>
      <point x="294" y="1084" type="line"/>
      <point x="296" y="1084" type="line"/>
      <point x="302" y="1062"/>
      <point x="320" y="1010"/>
      <point x="356" y="908" type="curve" smooth="yes"/>
      <point x="654" y="68" type="line" smooth="yes"/>
      <point x="678" y="0"/>
      <point x="718" y="0"/>
      <point x="762" y="0" type="curve" smooth="yes"/>
      <point x="822" y="0"/>
      <point x="846" y="6"/>
      <point x="846" y="82" type="curve" smooth="yes"/>
      <point x="846" y="1106" type="line"/>
      <point x="890" y="1106" type="line" smooth="yes"/>
      <point x="918" y="1106"/>
      <point x="970" y="1106"/>
      <point x="970" y="1164" type="curve" smooth="yes"/>
      <point x="970" y="1222"/>
      <point x="920" y="1222"/>
      <point x="890" y="1222" type="curve" smooth="yes"/>
      <point x="690" y="1222" type="line" smooth="yes"/>
      <point x="662" y="1222"/>
      <point x="608" y="1222"/>
    </contour>
  </outline>
</glyph>
<glyph name="O" format="2">
  <advance width="1028"/>
  <unicode hex="004F"/>
  <outline>
    <contour>
      <point x="918" y="610" type="curve" smooth="yes"/>
      <point x="918" y="1192"/>
      <point x="876" y="1246"/>
      <point x="514" y="1246" type="curve" smooth="yes"/>
      <point x="152" y="1246"/>
      <point x="110" y="1192"/>
      <point x="110" y="612" type="curve" smooth="yes"/>
      <point x="110" y="30"/>
      <point x="152" y="-24"/>
      <point x="514" y="-24" type="curve" smooth="yes"/>
      <point x="876" y="-24"/>
      <point x="918" y="30"/>
    </contour>
    <contour>
      <point x="514" y="92" type="curve" smooth="yes"/>
      <point x="332" y="92"/>
      <point x="288" y="140"/>
      <point x="266" y="232" type="curve" smooth="yes"/>
      <point x="240" y="334"/>
      <point x="240" y="514"/>
      <point x="240" y="628" type="curve" smooth="yes"/>
      <point x="240" y="756"/>
      <point x="240" y="898"/>
      <point x="262" y="994" type="curve" smooth="yes"/>
      <point x="290" y="1104"/>
      <point x="350" y="1130"/>
      <point x="514" y="1130" type="curve" smooth="yes"/>
      <point x="672" y="1130"/>
      <point x="736" y="1106"/>
      <point x="764" y="1000" type="curve" smooth="yes"/>
      <point x="788" y="906"/>
      <point x="788" y="750"/>
      <point x="788" y="628" type="curve" smooth="yes"/>
      <point x="788" y="504"/>
      <point x="788" y="350"/>
      <point x="766" y="242" type="curve" smooth="yes"/>
      <point x="744" y="140"/>
      <point x="700" y="92"/>
    </contour>
  </outline>
</glyph>
<glyph name="P" format="2">
	<unicode hex="0050"/>
	<advance width="514"/>
	<outline>
		<contour>
			<point x="161" y="248" type="line"/>
			<point x="285" y="248" type="line" smooth="yes"/>
			<point x="401" y="248"/>
			<point x="471" y="340"/>
			<point x="471" y="429" type="curve" smooth="yes"/>
			<point x="471" y="522"/>
			<point x="399" y="611"/>
			<point x="285" y="611" type="curve" smooth="yes"/>
			<point x="69" y="611" type="line" smooth="yes"/>
			<point x="55" y="611"/>
			<point x="28" y="611"/>
			<point x="28" y="582" type="curve" smooth="yes"/>
			<point x="28" y="553"/>
			<point x="55" y="553"/>
			<point x="69" y="553" type="curve" smooth="yes"/>
			<point x="96" y="553" type="line"/>
			<point x="96" y="58" type="line"/>
			<point x="69" y="58" type="line" smooth="yes"/>
			<point x="55" y="58"/>
			<point x="28" y="58"/>
			<point x="28" y="29" type="curve" smooth="yes"/>
			<point x="28" y="0"/>
			<point x="55" y="0"/>
			<point x="69" y="0" type="curve" smooth="yes"/>
			<point x="188" y="0" type="line" smooth="yes"/>
			<point x="202" y="0"/>
			<point x="229" y="0"/>
			<point x="229" y="29" type="curve" smooth="yes"/>
			<point x="229" y="58"/>
			<point x="202" y="58"/>
			<point x="188" y="58" type="curve" smooth="yes"/>
			<point x="161" y="58" type="line"/>
		</contour>
		<contour>
			<point x="161" y="553" type="line"/>
			<point x="267" y="553" type="line" smooth="yes"/>
			<point x="363" y="553"/>
			<point x="406" y="483"/>
			<point x="406" y="430" type="curve" smooth="yes"/>
			<point x="406" y="373"/>
			<point x="361" y="306"/>
			<point x="267" y="306" type="curve" smooth="yes"/>
			<point x="161" y="306" type="line"/>
		</contour>
	</outline>
</glyph>
<glyph name="Q" format="2">
  <advance width="1028"/>
  <unicode hex="0051"/>
  <outline>
    <contour>
      <point x="824" y="-278" type="line"/>
      <point x="860" y="-278"/>
      <point x="892" y="-278"/>
      <point x="892" y="-240" type="curve" smooth="yes"/>
      <point x="892" y="-228"/>
      <point x="856" y="-160"/>
      <point x="834" y="-122" type="curve" smooth="yes"/>
      <point x="812" y="-79"/>
      <point x="790" y="-37"/>
      <point x="768" y="6" type="curve"/>
      <point x="862" y="46"/>
      <point x="888" y="126"/>
      <point x="906" y="268" type="curve" smooth="yes"/>
      <point x="918" y="368"/>
      <point x="918" y="534"/>
      <point x="918" y="610" type="curve" smooth="yes"/>
      <point x="918" y="1192"/>
      <point x="876" y="1246"/>
      <point x="514" y="1246" type="curve" smooth="yes"/>
      <point x="152" y="1246"/>
      <point x="110" y="1192"/>
      <point x="110" y="612" type="curve" smooth="yes"/>
      <point x="110" y="30"/>
      <point x="152" y="-24"/>
      <point x="514" y="-24" type="curve" smooth="yes"/>
      <point x="542" y="-24"/>
      <point x="606" y="-24"/>
      <point x="630" y="-22" type="curve"/>
      <point x="656" y="-72"/>
      <point x="716" y="-196"/>
      <point x="744" y="-246" type="curve" smooth="yes"/>
      <point x="764" y="-278"/>
      <point x="780" y="-278"/>
      <point x="824" y="-278" type="curve"/>
    </contour>
    <contour>
      <point x="570" y="92" type="line"/>
      <point x="498" y="92" type="line" smooth="yes"/>
      <point x="304" y="92"/>
      <point x="278" y="162"/>
      <point x="260" y="254" type="curve" smooth="yes"/>
      <point x="240" y="352"/>
      <point x="240" y="504"/>
      <point x="240" y="610" type="curve" smooth="yes"/>
      <point x="240" y="730"/>
      <point x="240" y="872"/>
      <point x="260" y="970" type="curve" smooth="yes"/>
      <point x="282" y="1086"/>
      <point x="326" y="1130"/>
      <point x="514" y="1130" type="curve" smooth="yes"/>
      <point x="704" y="1130"/>
      <point x="746" y="1084"/>
      <point x="768" y="968" type="curve" smooth="yes"/>
      <point x="788" y="870"/>
      <point x="788" y="718"/>
      <point x="788" y="612" type="curve" smooth="yes"/>
      <point x="788" y="482"/>
      <point x="784" y="390"/>
      <point x="778" y="324" type="curve" smooth="yes"/>
      <point x="764" y="170"/>
      <point x="734" y="150"/>
      <point x="702" y="128" type="curve"/>
      <point x="604" y="314" type="line" smooth="yes"/>
      <point x="590" y="342"/>
      <point x="582" y="342"/>
      <point x="544" y="342" type="curve" smooth="yes"/>
      <point x="530" y="342" type="line" smooth="yes"/>
      <point x="502" y="342"/>
      <point x="466" y="342"/>
      <point x="466" y="304" type="curve" smooth="yes"/>
      <point x="466" y="294"/>
      <point x="468" y="290"/>
      <point x="474" y="278" type="curve" smooth="yes"/>
    </contour>
  </outline>
</glyph>
<glyph name="R" format="2">
  <advance width="1028"/>
  <unicode hex="0052"/>
  <outline>
    <contour>
      <point x="680" y="608" type="curve"/>
      <point x="790" y="672"/>
      <point x="850" y="780"/>
      <point x="850" y="888" type="curve" smooth="yes"/>
      <point x="850" y="1054"/>
      <point x="704" y="1222"/>
      <point x="468" y="1222" type="curve" smooth="yes"/>
      <point x="128" y="1222" type="line" smooth="yes"/>
      <point x="98" y="1222"/>
      <point x="48" y="1222"/>
      <point x="48" y="1164" type="curve" smooth="yes"/>
      <point x="48" y="1106"/>
      <point x="100" y="1106"/>
      <point x="128" y="1106" type="curve" smooth="yes"/>
      <point x="172" y="1106" type="line"/>
      <point x="172" y="116" type="line"/>
      <point x="128" y="116" type="line" smooth="yes"/>
      <point x="100" y="116"/>
      <point x="48" y="116"/>
      <point x="48" y="58" type="curve" smooth="yes"/>
      <point x="48" y="0"/>
      <point x="98" y="0"/>
      <point x="128" y="0" type="curve" smooth="yes"/>
      <point x="346" y="0" type="line" smooth="yes"/>
      <point x="374" y="0"/>
      <point x="428" y="0"/>
      <point x="428" y="58" type="curve" smooth="yes"/>
      <point x="428" y="116"/>
      <point x="374" y="116"/>
      <point x="346" y="116" type="curve" smooth="yes"/>
      <point x="302" y="116" type="line"/>
      <point x="302" y="554" type="line"/>
      <point x="460" y="554" type="line" smooth="yes"/>
      <point x="496" y="554"/>
      <point x="558" y="554"/>
      <point x="622" y="498" type="curve" smooth="yes"/>
      <point x="668" y="456"/>
      <point x="668" y="410"/>
      <point x="668" y="324" type="curve" smooth="yes"/>
      <point x="668" y="184"/>
      <point x="668" y="126"/>
      <point x="706" y="58" type="curve" smooth="yes"/>
      <point x="738" y="6"/>
      <point x="790" y="-24"/>
      <point x="852" y="-24" type="curve" smooth="yes"/>
      <point x="984" y="-24"/>
      <point x="1024" y="114"/>
      <point x="1024" y="186" type="curve" smooth="yes"/>
      <point x="1024" y="226"/>
      <point x="1006" y="252"/>
      <point x="958" y="252" type="curve" smooth="yes"/>
      <point x="898" y="252"/>
      <point x="894" y="204"/>
      <point x="894" y="186" type="curve" smooth="yes"/>
      <point x="894" y="172"/>
      <point x="888" y="92"/>
      <point x="852" y="92" type="curve" smooth="yes"/>
      <point x="798" y="92"/>
      <point x="798" y="180"/>
      <point x="798" y="294" type="curve" smooth="yes"/>
      <point x="798" y="430"/>
      <point x="798" y="442"/>
      <point x="778" y="492" type="curve" smooth="yes"/>
      <point x="752" y="550"/>
      <point x="704" y="590"/>
    </contour>
    <contour>
      <point x="448" y="670" type="curve" smooth="yes"/>
      <point x="302" y="670" type="line"/>
      <point x="302" y="1106" type="line"/>
      <point x="448" y="1106" type="line" smooth="yes"/>
      <point x="632" y="1106"/>
      <point x="720" y="986"/>
      <point x="720" y="888" type="curve" smooth="yes"/>
      <point x="720" y="790"/>
      <point x="632" y="670"/>
    </contour>
  </outline>
</glyph>
<glyph name="S" format="2">
  <advance width="1028"/>
  <unicode hex="0053"/>
  <outline>
    <contour>
      <point x="102" y="918" type="curve" smooth="yes"/>
      <point x="102" y="800"/>
      <point x="172" y="722"/>
      <point x="184" y="710" type="curve" smooth="yes"/>
      <point x="254" y="640"/>
      <point x="290" y="620"/>
      <point x="422" y="590" type="curve" smooth="yes"/>
      <point x="460" y="582"/>
      <point x="512" y="568"/>
      <point x="636" y="538" type="curve" smooth="yes"/>
      <point x="740" y="512"/>
      <point x="802" y="416"/>
      <point x="802" y="320" type="curve" smooth="yes"/>
      <point x="802" y="212"/>
      <point x="716" y="92"/>
      <point x="558" y="92" type="curve" smooth="yes"/>
      <point x="472" y="92"/>
      <point x="392" y="110"/>
      <point x="334" y="152" type="curve" smooth="yes"/>
      <point x="276" y="192"/>
      <point x="236" y="254"/>
      <point x="232" y="342" type="curve" smooth="yes"/>
      <point x="230" y="372"/>
      <point x="228" y="406"/>
      <point x="168" y="406" type="curve" smooth="yes"/>
      <point x="102" y="406"/>
      <point x="102" y="368"/>
      <point x="102" y="328" type="curve" smooth="yes"/>
      <point x="102" y="52" type="line" smooth="yes"/>
      <point x="102" y="20"/>
      <point x="102" y="-24"/>
      <point x="158" y="-24" type="curve" smooth="yes"/>
      <point x="200" y="-24"/>
      <point x="204" y="-8"/>
      <point x="228" y="76" type="curve"/>
      <point x="338" y="-10"/>
      <point x="476" y="-24"/>
      <point x="558" y="-24" type="curve" smooth="yes"/>
      <point x="784" y="-24"/>
      <point x="926" y="150"/>
      <point x="926" y="328" type="curve" smooth="yes"/>
      <point x="926" y="468"/>
      <point x="844" y="554"/>
      <point x="834" y="564" type="curve" smooth="yes"/>
      <point x="756" y="644"/>
      <point x="716" y="654"/>
      <point x="514" y="702" type="curve" smooth="yes"/>
      <point x="468" y="714"/>
      <point x="394" y="730"/>
      <point x="376" y="736" type="curve" smooth="yes"/>
      <point x="294" y="764"/>
      <point x="226" y="836"/>
      <point x="226" y="926" type="curve" smooth="yes"/>
      <point x="226" y="1032"/>
      <point x="326" y="1130"/>
      <point x="464" y="1130" type="curve" smooth="yes"/>
      <point x="614" y="1130"/>
      <point x="716" y="1050"/>
      <point x="742" y="880" type="curve" smooth="yes"/>
      <point x="748" y="842"/>
      <point x="752" y="816"/>
      <point x="808" y="816" type="curve" smooth="yes"/>
      <point x="874" y="816"/>
      <point x="874" y="852"/>
      <point x="874" y="892" type="curve" smooth="yes"/>
      <point x="874" y="1170" type="line" smooth="yes"/>
      <point x="874" y="1202"/>
      <point x="874" y="1246"/>
      <point x="818" y="1246" type="curve" smooth="yes"/>
      <point x="776" y="1246"/>
      <point x="772" y="1230"/>
      <point x="748" y="1146" type="curve"/>
      <point x="650" y="1232"/>
      <point x="536" y="1246"/>
      <point x="466" y="1246" type="curve" smooth="yes"/>
      <point x="254" y="1246"/>
      <point x="102" y="1094"/>
    </contour>
  </outline>
</glyph>
<glyph name="T" format="2">
	<unicode hex="0054"/>
	<advance width="514"/>
	<outline>
		<contour>
			<point x="290" y="553" type="line"/>
			<point x="423" y="553" type="line"/>
			<point x="423" y="504" type="line" smooth="yes"/>
			<point x="423" y="486"/>
			<point x="423" y="463"/>
			<point x="455" y="463" type="curve" smooth="yes"/>
			<point x="488" y="463"/>
			<point x="488" y="485"/>
			<point x="488" y="504" type="curve" smooth="yes"/>
			<point x="488" y="570" type="line" smooth="yes"/>
			<point x="488" y="601"/>
			<point x="482" y="611"/>
			<point x="448" y="611" type="curve" smooth="yes"/>
			<point x="67" y="611" type="line" smooth="yes"/>
			<point x="34" y="611"/>
			<point x="26" y="603"/>
			<point x="26" y="570" type="curve" smooth="yes"/>
			<point x="26" y="504" type="line" smooth="yes"/>
			<point x="26" y="486"/>
			<point x="26" y="463"/>
			<point x="58" y="463" type="curve" smooth="yes"/>
			<point x="91" y="463"/>
			<point x="91" y="485"/>
			<point x="91" y="504" type="curve" smooth="yes"/>
			<point x="91" y="553" type="line"/>
			<point x="225" y="553" type="line"/>
			<point x="225" y="58" type="line"/>
			<point x="177" y="58" type="line" smooth="yes"/>
			<point x="163" y="58"/>
			<point x="137" y="58"/>
			<point x="137" y="29" type="curve" smooth="yes"/>
			<point x="137" y="0"/>
			<point x="163" y="0"/>
			<point x="177" y="0" type="curve" smooth="yes"/>
			<point x="338" y="0" type="line" smooth="yes"/>
			<point x="352" y="0"/>
			<point x="378" y="0"/>
			<point x="378" y="29" type="curve" smooth="yes"/>
			<point x="378" y="58"/>
			<point x="352" y="58"/>
			<point x="338" y="58" type="curve" smooth="yes"/>
			<point x="290" y="58" type="line"/>
		</contour>
	</outline>
</glyph>
<glyph name="U" format="2">
  <advance width="1028"/>
  <unicode hex="0055"/>
  <outline>
    <contour>
      <point x="878" y="1106" type="line"/>
      <point x="932" y="1106" type="line" smooth="yes"/>
      <point x="960" y="1106"/>
      <point x="1014" y="1106"/>
      <point x="1014" y="1164" type="curve" smooth="yes"/>
      <point x="1014" y="1222"/>
      <point x="960" y="1222"/>
      <point x="932" y="1222" type="curve" smooth="yes"/>
      <point x="694" y="1222" type="line" smooth="yes"/>
      <point x="666" y="1222"/>
      <point x="612" y="1222"/>
      <point x="612" y="1164" type="curve" smooth="yes"/>
      <point x="612" y="1106"/>
      <point x="666" y="1106"/>
      <point x="694" y="1106" type="curve" smooth="yes"/>
      <point x="748" y="1106" type="line"/>
      <point x="748" y="418" type="line" smooth="yes"/>
      <point x="748" y="200"/>
      <point x="618" y="92"/>
      <point x="514" y="92" type="curve" smooth="yes"/>
      <point x="408" y="92"/>
      <point x="280" y="202"/>
      <point x="280" y="418" type="curve" smooth="yes"/>
      <point x="280" y="1106" type="line"/>
      <point x="334" y="1106" type="line" smooth="yes"/>
      <point x="362" y="1106"/>
      <point x="416" y="1106"/>
      <point x="416" y="1164" type="curve" smooth="yes"/>
      <point x="416" y="1222"/>
      <point x="362" y="1222"/>
      <point x="334" y="1222" type="curve" smooth="yes"/>
      <point x="96" y="1222" type="line" smooth="yes"/>
      <point x="68" y="1222"/>
      <point x="14" y="1222"/>
      <point x="14" y="1164" type="curve" smooth="yes"/>
      <point x="14" y="1106"/>
      <point x="68" y="1106"/>
      <point x="96" y="1106" type="curve" smooth="yes"/>
      <point x="150" y="1106" type="line"/>
      <point x="150" y="406" type="line" smooth="yes"/>
      <point x="150" y="164"/>
      <point x="316" y="-24"/>
      <point x="514" y="-24" type="curve" smooth="yes"/>
      <point x="712" y="-24"/>
      <point x="878" y="164"/>
      <point x="878" y="406" type="curve" smooth="yes"/>
    </contour>
  </outline>
</glyph>
<glyph name="V" format="2">
  <advance width="1028"/>
  <unicode hex="0056"/>
  <outline>
    <contour>
      <point x="884" y="1106" type="line"/>
      <point x="946" y="1106"/>
      <point x="992" y="1106"/>
      <point x="992" y="1164" type="curve" smooth="yes"/>
      <point x="992" y="1222"/>
      <point x="940" y="1222"/>
      <point x="912" y="1222" type="curve" smooth="yes"/>
      <point x="724" y="1222" type="line" smooth="yes"/>
      <point x="696" y="1222"/>
      <point x="642" y="1222"/>
      <point x="642" y="1164" type="curve" smooth="yes"/>
      <point x="642" y="1106"/>
      <point x="690" y="1106"/>
      <point x="750" y="1106" type="curve"/>
      <point x="588" y="460" type="line" smooth="yes"/>
      <point x="562" y="358"/>
      <point x="528" y="218"/>
      <point x="516" y="136" type="curve"/>
      <point x="514" y="136" type="line"/>
      <point x="502" y="214"/>
      <point x="480" y="298"/>
      <point x="460" y="380" type="curve" smooth="yes"/>
      <point x="278" y="1106" type="line"/>
      <point x="338" y="1106"/>
      <point x="386" y="1106"/>
      <point x="386" y="1164" type="curve" smooth="yes"/>
      <point x="386" y="1222"/>
      <point x="332" y="1222"/>
      <point x="304" y="1222" type="curve" smooth="yes"/>
      <point x="116" y="1222" type="line" smooth="yes"/>
      <point x="88" y="1222"/>
      <point x="36" y="1222"/>
      <point x="36" y="1164" type="curve" smooth="yes"/>
      <point x="36" y="1106"/>
      <point x="82" y="1106"/>
      <point x="144" y="1106" type="curve"/>
      <point x="410" y="54" type="line"/>
      <point x="428" y="-18"/>
      <point x="470" y="-18"/>
      <point x="514" y="-18" type="curve" smooth="yes"/>
      <point x="558" y="-18"/>
      <point x="598" y="-18"/>
      <point x="616" y="50" type="curve" smooth="yes"/>
    </contour>
  </outline>
</glyph>
<glyph name="W" format="2">
	<unicode hex="0057"/>
	<advance width="514"/>
	<outline>
		<contour>
			<point x="467" y="553" type="line"/>
			<point x="474" y="553"/>
			<point x="503" y="553"/>
			<point x="503" y="582" type="curve" smooth="yes"/>
			<point x="503" y="611"/>
			<point x="476" y="611"/>
			<point x="462" y="611" type="curve" smooth="yes"/>
			<point x="388" y="611" type="line" smooth="yes"/>
			<point x="374" y="611"/>
			<point x="347" y="611"/>
			<point x="347" y="582" type="curve" smooth="yes"/>
			<point x="347" y="553"/>
			<point x="374" y="553"/>
			<point x="388" y="553" type="curve" smooth="yes"/>
			<point x="411" y="553" type="line"/>
			<point x="368" y="229" type="line" smooth="yes"/>
			<point x="361" y="172"/>
			<point x="352" y="110"/>
			<point x="351" y="72" type="curve"/>
			<point x="350" y="72" type="line"/>
			<point x="345" y="143"/>
			<point x="303" y="318"/>
			<point x="298" y="341" type="curve" smooth="yes"/>
			<point x="293" y="366"/>
			<point x="266" y="367"/>
			<point x="257" y="367" type="curve" smooth="yes"/>
			<point x="248" y="367"/>
			<point x="224" y="365"/>
			<point x="218" y="346" type="curve" smooth="yes"/>
			<point x="215" y="337"/>
			<point x="169" y="139"/>
			<point x="164" y="72" type="curve"/>
			<point x="163" y="72" type="line"/>
			<point x="162" y="99"/>
			<point x="160" y="113"/>
			<point x="155" y="153" type="curve" smooth="yes"/>
			<point x="104" y="553" type="line"/>
			<point x="126" y="553" type="line" smooth="yes"/>
			<point x="140" y="553"/>
			<point x="167" y="553"/>
			<point x="167" y="582" type="curve" smooth="yes"/>
			<point x="167" y="611"/>
			<point x="140" y="611"/>
			<point x="126" y="611" type="curve" smooth="yes"/>
			<point x="52" y="611" type="line" smooth="yes"/>
			<point x="38" y="611"/>
			<point x="11" y="611"/>
			<point x="11" y="582" type="curve" smooth="yes"/>
			<point x="11" y="553"/>
			<point x="40" y="553"/>
			<point x="47" y="553" type="curve"/>
			<point x="119" y="30" type="line" smooth="yes"/>
			<point x="122" y="10"/>
			<point x="124" y="-9"/>
			<point x="158" y="-9" type="curve" smooth="yes"/>
			<point x="168" y="-9"/>
			<point x="190" y="-9"/>
			<point x="198" y="14" type="curve" smooth="yes"/>
			<point x="200" y="20"/>
			<point x="252" y="247"/>
			<point x="256" y="296" type="curve"/>
			<point x="257" y="296" type="line"/>
			<point x="261" y="250"/>
			<point x="312" y="22"/>
			<point x="317" y="11" type="curve" smooth="yes"/>
			<point x="326" y="-8"/>
			<point x="346" y="-9"/>
			<point x="356" y="-9" type="curve" smooth="yes"/>
			<point x="390" y="-9"/>
			<point x="392" y="11"/>
			<point x="395" y="29" type="curve" smooth="yes"/>
		</contour>
	</outline>
</glyph>
<glyph name="X" format="2">
  <advance width="1028"/>
  <unicode hex="0058"/>
  <outline>
    <contour>
      <point x="568" y="650" type="line"/>
      <point x="798" y="1106" type="line"/>
      <point x="834" y="1106" type="line" smooth="yes"/>
      <point x="862" y="1106"/>
      <point x="916" y="1106"/>
      <point x="916" y="1164" type="curve" smooth="yes"/>
      <point x="916" y="1222"/>
      <point x="862" y="1222"/>
      <point x="834" y="1222" type="curve" smooth="yes"/>
      <point x="646" y="1222" type="line" smooth="yes"/>
      <point x="618" y="1222"/>
      <point x="564" y="1222"/>
      <point x="564" y="1164" type="curve" smooth="yes"/>
      <point x="564" y="1106"/>
      <point x="616" y="1106"/>
      <point x="654" y="1106" type="curve"/>
      <point x="504" y="798" type="line"/>
      <point x="342" y="1106" type="line"/>
      <point x="376" y="1106"/>
      <point x="426" y="1106"/>
      <point x="426" y="1164" type="curve" smooth="yes"/>
      <point x="426" y="1222"/>
      <point x="374" y="1222"/>
      <point x="346" y="1222" type="curve" smooth="yes"/>
      <point x="156" y="1222" type="line" smooth="yes"/>
      <point x="128" y="1222"/>
      <point x="76" y="1222"/>
      <point x="76" y="1164" type="curve" smooth="yes"/>
      <point x="76" y="1106"/>
      <point x="128" y="1106"/>
      <point x="156" y="1106" type="curve" smooth="yes"/>
      <point x="196" y="1106" type="line"/>
      <point x="438" y="650" type="line"/>
      <point x="172" y="116" type="line"/>
      <point x="134" y="116" type="line" smooth="yes"/>
      <point x="106" y="116"/>
      <point x="54" y="116"/>
      <point x="54" y="58" type="curve" smooth="yes"/>
      <point x="54" y="0"/>
      <point x="106" y="0"/>
      <point x="134" y="0" type="curve" smooth="yes"/>
      <point x="324" y="0" type="line" smooth="yes"/>
      <point x="352" y="0"/>
      <point x="404" y="0"/>
      <point x="404" y="58" type="curve" smooth="yes"/>
      <point x="404" y="116"/>
      <point x="354" y="116"/>
      <point x="314" y="116" type="curve"/>
      <point x="504" y="516" type="line"/>
      <point x="708" y="116" type="line"/>
      <point x="674" y="116"/>
      <point x="620" y="116"/>
      <point x="620" y="58" type="curve" smooth="yes"/>
      <point x="620" y="0"/>
      <point x="674" y="0"/>
      <point x="702" y="0" type="curve" smooth="yes"/>
      <point x="892" y="0" type="line" smooth="yes"/>
      <point x="920" y="0"/>
      <point x="972" y="0"/>
      <point x="972" y="58" type="curve" smooth="yes"/>
      <point x="972" y="116"/>
      <point x="920" y="116"/>
      <point x="892" y="116" type="curve" smooth="yes"/>
      <point x="852" y="116" type="line"/>
    </contour>
  </outline>
</glyph>
<glyph name="Y" format="2">
  <advance width="514"/>
  <unicode hex="0059"/>
  <outline>
    <contour>
      <point x="437" y="553" type="line"/>
      <point x="455" y="553" type="line" smooth="yes"/>
      <point x="468" y="553"/>
      <point x="496" y="553"/>
      <point x="496" y="582" type="curve" smooth="yes"/>
      <point x="496" y="611"/>
      <point x="468" y="611"/>
      <point x="455" y="611" type="curve" smooth="yes"/>
      <point x="361" y="611" type="line" smooth="yes"/>
      <point x="347" y="611"/>
      <point x="320" y="611"/>
      <point x="320" y="582" type="curve" smooth="yes"/>
      <point x="320" y="553"/>
      <point x="346" y="553"/>
      <point x="365" y="553" type="curve"/>
      <point x="308" y="432" type="line" smooth="yes"/>
      <point x="283" y="377"/>
      <point x="264" y="333"/>
      <point x="257" y="309" type="curve"/>
      <point x="243" y="360"/>
      <point x="184" y="481"/>
      <point x="149" y="553" type="curve"/>
      <point x="168" y="553"/>
      <point x="194" y="553"/>
      <point x="194" y="582" type="curve" smooth="yes"/>
      <point x="194" y="611"/>
      <point x="167" y="611"/>
      <point x="153" y="611" type="curve" smooth="yes"/>
      <point x="59" y="611" type="line" smooth="yes"/>
      <point x="45" y="611"/>
      <point x="18" y="611"/>
      <point x="18" y="582" type="curve" smooth="yes"/>
      <point x="18" y="553"/>
      <point x="45" y="553"/>
      <point x="59" y="553" type="curve" smooth="yes"/>
      <point x="77" y="553" type="line"/>
      <point x="225" y="244" type="line"/>
      <point x="225" y="58" type="line"/>
      <point x="203" y="58" type="line" smooth="yes"/>
      <point x="189" y="58"/>
      <point x="163" y="58"/>
      <point x="163" y="29" type="curve" smooth="yes"/>
      <point x="163" y="0"/>
      <point x="188" y="0"/>
      <point x="203" y="0" type="curve" smooth="yes"/>
      <point x="312" y="0" type="line" smooth="yes"/>
      <point x="327" y="0"/>
      <point x="352" y="0"/>
      <point x="352" y="29" type="curve" smooth="yes"/>
      <point x="352" y="58"/>
      <point x="326" y="58"/>
      <point x="312" y="58" type="curve" smooth="yes"/>
      <point x="290" y="58" type="line"/>
      <point x="290" y="244" type="line"/>
    </contour>
  </outline>
</glyph>
<glyph name="Z" format="2">
  <advance width="1028"/>
  <unicode hex="005A"/>
  <outline>
    <contour>
      <point x="916" y="1100" type="line" smooth="yes"/>
      <point x="934" y="1126"/>
      <point x="934" y="1134"/>
      <point x="934" y="1156" type="curve" smooth="yes"/>
      <point x="934" y="1222"/>
      <point x="890" y="1222"/>
      <point x="852" y="1222" type="curve" smooth="yes"/>
      <point x="198" y="1222" type="line" smooth="yes"/>
      <point x="132" y="1222"/>
      <point x="116" y="1206"/>
      <point x="116" y="1140" type="curve" smooth="yes"/>
      <point x="116" y="1008" type="line" smooth="yes"/>
      <point x="116" y="972"/>
      <point x="116" y="926"/>
      <point x="180" y="926" type="curve" smooth="yes"/>
      <point x="246" y="926"/>
      <point x="246" y="970"/>
      <point x="246" y="1008" type="curve" smooth="yes"/>
      <point x="246" y="1106" type="line"/>
      <point x="766" y="1106" type="line"/>
      <point x="112" y="122" type="line" smooth="yes"/>
      <point x="94" y="96"/>
      <point x="94" y="88"/>
      <point x="94" y="66" type="curve" smooth="yes"/>
      <point x="94" y="0"/>
      <point x="138" y="0"/>
      <point x="176" y="0" type="curve" smooth="yes"/>
      <point x="864" y="0" type="line" smooth="yes"/>
      <point x="930" y="0"/>
      <point x="944" y="18"/>
      <point x="944" y="82" type="curve" smooth="yes"/>
      <point x="944" y="250" type="line" smooth="yes"/>
      <point x="944" y="286"/>
      <point x="944" y="332"/>
      <point x="880" y="332" type="curve" smooth="yes"/>
      <point x="814" y="332"/>
      <point x="814" y="288"/>
      <point x="814" y="250" type="curve" smooth="yes"/>
      <point x="814" y="116" type="line"/>
      <point x="262" y="116" type="line"/>
    </contour>
  </outline>
</glyph>
<glyph name="bracketleft" format="2">
  <advance width="1028"/>
  <unicode hex="005B"/>
  <outline>
    <contour>
      <point x="868" y="1272" type="line" smooth="yes"/>
      <point x="896" y="1272"/>
      <point x="948" y="1272"/>
      <point x="948" y="1330" type="curve" smooth="yes"/>
      <point x="948" y="1388"/>
      <point x="896" y="1388"/>
      <point x="868" y="1388" type="curve" smooth="yes"/>
      <point x="520" y="1388" type="line" smooth="yes"/>
      <point x="454" y="1388"/>
      <point x="440" y="1370"/>
      <point x="440" y="1306" type="curve" smooth="yes"/>
      <point x="440" y="-84" type="line" smooth="yes"/>
      <point x="440" y="-146"/>
      <point x="452" y="-166"/>
      <point x="520" y="-166" type="curve" smooth="yes"/>
      <point x="868" y="-166" type="line" smooth="yes"/>
      <point x="896" y="-166"/>
      <point x="948" y="-166"/>
      <point x="948" y="-108" type="curve" smooth="yes"/>
      <point x="948" y="-50"/>
      <point x="896" y="-50"/>
      <point x="868" y="-50" type="curve" smooth="yes"/>
      <point x="570" y="-50" type="line"/>
      <point x="570" y="1272" type="line"/>
    </contour>
  </outline>
</glyph>
<glyph name="backslash" format="2">
  <advance width="1028"/>
  <unicode hex="005C"/>
  <outline>
    <contour>
      <point x="246" y="1330" type="line" smooth="yes"/>
      <point x="230" y="1366"/>
      <point x="218" y="1388"/>
      <point x="178" y="1388" type="curve" smooth="yes"/>
      <point x="148" y="1388"/>
      <point x="114" y="1364"/>
      <point x="114" y="1322" type="curve" smooth="yes"/>
      <point x="114" y="1306"/>
      <point x="118" y="1298"/>
      <point x="124" y="1286" type="curve" smooth="yes"/>
      <point x="782" y="-112" type="line" smooth="yes"/>
      <point x="792" y="-132"/>
      <point x="808" y="-166"/>
      <point x="850" y="-166" type="curve" smooth="yes"/>
      <point x="880" y="-166"/>
      <point x="914" y="-142"/>
      <point x="914" y="-100" type="curve" smooth="yes"/>
      <point x="914" y="-84"/>
      <point x="910" y="-76"/>
      <point x="904" y="-64" type="curve" smooth="yes"/>
    </contour>
  </outline>
</glyph>
<glyph name="bracketright" format="2">
  <advance width="1028"/>
  <unicode hex="005D"/>
  <outline>
    <contour>
      <point x="588" y="1306" type="line" smooth="yes"/>
      <point x="588" y="1368"/>
      <point x="576" y="1388"/>
      <point x="508" y="1388" type="curve" smooth="yes"/>
      <point x="160" y="1388" type="line" smooth="yes"/>
      <point x="132" y="1388"/>
      <point x="80" y="1388"/>
      <point x="80" y="1330" type="curve" smooth="yes"/>
      <point x="80" y="1272"/>
      <point x="132" y="1272"/>
      <point x="160" y="1272" type="curve" smooth="yes"/>
      <point x="458" y="1272" type="line"/>
      <point x="458" y="-50" type="line"/>
      <point x="160" y="-50" type="line" smooth="yes"/>
      <point x="132" y="-50"/>
      <point x="80" y="-50"/>
      <point x="80" y="-108" type="curve" smooth="yes"/>
      <point x="80" y="-166"/>
      <point x="132" y="-166"/>
      <point x="160" y="-166" type="curve" smooth="yes"/>
      <point x="508" y="-166" type="line" smooth="yes"/>
      <point x="574" y="-166"/>
      <point x="588" y="-148"/>
      <point x="588" y="-84" type="curve" smooth="yes"/>
    </contour>
  </outline>
</glyph>
<glyph name="asciicircum" format="2">
	<unicode hex="005E"/>
	<advance width="514"/>
	<outline>
		<contour>
			<point x="279" y="602" type="line" smooth="yes"/>
			<point x="264" y="611"/>
			<point x="262" y="611"/>
			<point x="257" y="611" type="curve" smooth="yes"/>
			<point x="252" y="611"/>
			<point x="246" y="609"/>
			<point x="235" y="603" type="curve" smooth="yes"/>
			<point x="118" y="537" type="line" smooth="yes"/>
			<point x="107" y="531"/>
			<point x="99" y="524"/>
			<point x="99" y="509" type="curve" smooth="yes"/>
			<point x="99" y="502"/>
			<point x="104" y="475"/>
			<point x="132" y="475" type="curve" smooth="yes"/>
			<point x="138" y="475"/>
			<point x="142" y="476"/>
			<point x="150" y="481" type="curve" smooth="yes"/>
			<point x="257" y="545" type="line"/>
			<point x="360" y="483" type="line" smooth="yes"/>
			<point x="374" y="475"/>
			<point x="375" y="474"/>
			<point x="383" y="474" type="curve" smooth="yes"/>
			<point x="405" y="474"/>
			<point x="415" y="500"/>
			<point x="415" y="509" type="curve" smooth="yes"/>
			<point x="415" y="526"/>
			<point x="405" y="532"/>
			<point x="397" y="536" type="curve" smooth="yes"/>
		</contour>
	</outline>
</glyph>
<glyph name="underscore" format="2">
  <advance width="1028"/>
  <unicode hex="005F"/>
  <outline>
    <contour>
      <point x="828" y="-186" type="line" smooth="yes"/>
      <point x="854" y="-186"/>
      <point x="918" y="-186"/>
      <point x="918" y="-122" type="curve" smooth="yes"/>
      <point x="918" y="-56"/>
      <point x="856" y="-56"/>
      <point x="828" y="-56" type="curve" smooth="yes"/>
      <point x="200" y="-56" type="line" smooth="yes"/>
      <point x="174" y="-56"/>
      <point x="110" y="-56"/>
      <point x="110" y="-120" type="curve" smooth="yes"/>
      <point x="110" y="-186"/>
      <point x="172" y="-186"/>
      <point x="200" y="-186" type="curve" smooth="yes"/>
    </contour>
  </outline>
</glyph>
<glyph name="grave" format="2">
	<unicode hex="0060"/>
	<advance width="514"/>
	<outline>
		<contour>
			<point x="272" y="483" type="line"/>
			<point x="285" y="476"/>
			<point x="287" y="476"/>
			<point x="292" y="476" type="curve" smooth="yes"/>
			<point x="318" y="476"/>
			<point x="324" y="509"/>
			<point x="324" y="512" type="curve" smooth="yes"/>
			<point x="324" y="529"/>
			<point x="312" y="535"/>
			<point x="301" y="540" type="curve" smooth="yes"/>
			<point x="167" y="604" type="line" smooth="yes"/>
			<point x="154" y="611"/>
			<point x="152" y="611"/>
			<point x="147" y="611" type="curve" smooth="yes"/>
			<point x="128" y="611"/>
			<point x="114" y="596"/>
			<point x="114" y="578" type="curve" smooth="yes"/>
			<point x="114" y="558"/>
			<point x="132" y="550"/>
			<point x="139" y="546" type="curve"/>
		</contour>
	</outline>
</glyph>
<glyph name="b" format="2">
  <advance width="1028"/>
  <unicode hex="0062"/>
  <outline>
    <contour>
      <point x="192" y="1106" type="line"/>
      <point x="192" y="82" type="line" smooth="yes"/>
      <point x="192" y="46"/>
      <point x="192" y="0"/>
      <point x="258" y="0" type="curve" smooth="yes"/>
      <point x="322" y="0"/>
      <point x="322" y="42"/>
      <point x="322" y="100" type="curve"/>
      <point x="370" y="46"/>
      <point x="444" y="-12"/>
      <point x="556" y="-12" type="curve" smooth="yes"/>
      <point x="768" y="-12"/>
      <point x="954" y="178"/>
      <point x="954" y="432" type="curve" smooth="yes"/>
      <point x="954" y="678"/>
      <point x="786" y="874"/>
      <point x="578" y="874" type="curve" smooth="yes"/>
      <point x="432" y="874"/>
      <point x="340" y="786"/>
      <point x="322" y="766" type="curve"/>
      <point x="322" y="1140" type="line" smooth="yes"/>
      <point x="322" y="1202"/>
      <point x="310" y="1222"/>
      <point x="242" y="1222" type="curve" smooth="yes"/>
      <point x="110" y="1222" type="line" smooth="yes"/>
      <point x="82" y="1222"/>
      <point x="30" y="1222"/>
      <point x="30" y="1164" type="curve" smooth="yes"/>
      <point x="30" y="1106"/>
      <point x="82" y="1106"/>
      <point x="110" y="1106" type="curve" smooth="yes"/>
    </contour>
    <contour>
      <point x="546" y="104" type="curve" smooth="yes"/>
      <point x="396" y="104"/>
      <point x="322" y="274"/>
      <point x="322" y="374" type="curve" smooth="yes"/>
      <point x="322" y="532" type="line" smooth="yes"/>
      <point x="322" y="646"/>
      <point x="434" y="758"/>
      <point x="564" y="758" type="curve" smooth="yes"/>
      <point x="708" y="758"/>
      <point x="824" y="612"/>
      <point x="824" y="432" type="curve" smooth="yes"/>
      <point x="824" y="240"/>
      <point x="688" y="104"/>
    </contour>
  </outline>
</glyph>
<glyph name="c" format="2">
	<unicode hex="0063"/>
	<advance width="514"/>
	<outline>
		<contour>
			<point x="287" y="-6" type="curve" smooth="yes"/>
			<point x="421" y="-6"/>
			<point x="456" y="93"/>
			<point x="456" y="109" type="curve" smooth="yes"/>
			<point x="456" y="135"/>
			<point x="431" y="135"/>
			<point x="423" y="135" type="curve" smooth="yes"/>
			<point x="400" y="135"/>
			<point x="396" y="127"/>
			<point x="391" y="113" type="curve" smooth="yes"/>
			<point x="369" y="58"/>
			<point x="320" y="52"/>
			<point x="296" y="52" type="curve" smooth="yes"/>
			<point x="211" y="52"/>
			<point x="139" y="123"/>
			<point x="139" y="216" type="curve" smooth="yes"/>
			<point x="139" y="267"/>
			<point x="168" y="382"/>
			<point x="299" y="382" type="curve" smooth="yes"/>
			<point x="326" y="382"/>
			<point x="347" y="380"/>
			<point x="356" y="379" type="curve"/>
			<point x="363" y="377"/>
			<point x="364" y="376"/>
			<point x="364" y="371" type="curve"/>
			<point x="367" y="330"/>
			<point x="398" y="329"/>
			<point x="404" y="329" type="curve" smooth="yes"/>
			<point x="426" y="329"/>
			<point x="445" y="344"/>
			<point x="445" y="371" type="curve" smooth="yes"/>
			<point x="445" y="440"/>
			<point x="344" y="440"/>
			<point x="300" y="440" type="curve" smooth="yes"/>
			<point x="129" y="440"/>
			<point x="74" y="300"/>
			<point x="74" y="216" type="curve" smooth="yes"/>
			<point x="74" y="94"/>
			<point x="167" y="-6"/>
		</contour>
	</outline>
</glyph>
<glyph name="d" format="2">
  <advance width="1028"/>
  <unicode hex="0064"/>
  <outline>
    <contour>
      <point x="452" y="-12" type="curve" smooth="yes"/>
      <point x="582" y="-12"/>
      <point x="668" y="66"/>
      <point x="706" y="110" type="curve"/>
      <point x="706" y="26"/>
      <point x="706" y="0"/>
      <point x="786" y="0" type="curve" smooth="yes"/>
      <point x="918" y="0" type="line" smooth="yes"/>
      <point x="946" y="0"/>
      <point x="998" y="0"/>
      <point x="998" y="58" type="curve" smooth="yes"/>
      <point x="998" y="116"/>
      <point x="946" y="116"/>
      <point x="918" y="116" type="curve" smooth="yes"/>
      <point x="836" y="116" type="line"/>
      <point x="836" y="1140" type="line" smooth="yes"/>
      <point x="836" y="1202"/>
      <point x="824" y="1222"/>
      <point x="756" y="1222" type="curve" smooth="yes"/>
      <point x="624" y="1222" type="line" smooth="yes"/>
      <point x="596" y="1222"/>
      <point x="544" y="1222"/>
      <point x="544" y="1164" type="curve" smooth="yes"/>
      <point x="544" y="1106"/>
      <point x="596" y="1106"/>
      <point x="624" y="1106" type="curve" smooth="yes"/>
      <point x="706" y="1106" type="line"/>
      <point x="706" y="774" type="line"/>
      <point x="674" y="806"/>
      <point x="592" y="874"/>
      <point x="470" y="874" type="curve" smooth="yes"/>
      <point x="258" y="874"/>
      <point x="74" y="682"/>
      <point x="74" y="430" type="curve" smooth="yes"/>
      <point x="74" y="184"/>
      <point x="246" y="-12"/>
    </contour>
    <contour>
      <point x="706" y="380" type="line" smooth="yes"/>
      <point x="706" y="268"/>
      <point x="614" y="104"/>
      <point x="464" y="104" type="curve" smooth="yes"/>
      <point x="320" y="104"/>
      <point x="204" y="250"/>
      <point x="204" y="430" type="curve" smooth="yes"/>
      <point x="204" y="622"/>
      <point x="340" y="758"/>
      <point x="482" y="758" type="curve" smooth="yes"/>
      <point x="612" y="758"/>
      <point x="706" y="640"/>
      <point x="706" y="536" type="curve" smooth="yes"/>
    </contour>
  </outline>
</glyph>
<glyph name="e" format="2">
  <advance width="1028"/>
  <unicode hex="0065"/>
  <outline>
    <contour>
      <point x="832" y="384" type="line" smooth="yes"/>
      <point x="874" y="384"/>
      <point x="912" y="384"/>
      <point x="912" y="458" type="curve" smooth="yes"/>
      <point x="912" y="692"/>
      <point x="780" y="880"/>
      <point x="530" y="880" type="curve" smooth="yes"/>
      <point x="298" y="880"/>
      <point x="112" y="680"/>
      <point x="112" y="436" type="curve" smooth="yes"/>
      <point x="112" y="184"/>
      <point x="314" y="-12"/>
      <point x="560" y="-12" type="curve" smooth="yes"/>
      <point x="818" y="-12"/>
      <point x="912" y="166"/>
      <point x="912" y="218" type="curve" smooth="yes"/>
      <point x="912" y="230"/>
      <point x="908" y="274"/>
      <point x="846" y="274" type="curve" smooth="yes"/>
      <point x="808" y="274"/>
      <point x="796" y="260"/>
      <point x="784" y="230" type="curve" smooth="yes"/>
      <point x="734" y="114"/>
      <point x="604" y="104"/>
      <point x="566" y="104" type="curve" smooth="yes"/>
      <point x="400" y="104"/>
      <point x="268" y="230"/>
      <point x="246" y="384" type="curve"/>
    </contour>
    <contour>
      <point x="248" y="494" type="line"/>
      <point x="274" y="664"/>
      <point x="404" y="764"/>
      <point x="530" y="764" type="curve" smooth="yes"/>
      <point x="730" y="764"/>
      <point x="772" y="594"/>
      <point x="780" y="494" type="curve"/>
    </contour>
  </outline>
</glyph>
<glyph name="f" format="2">
  <advance width="1028"/>
  <unicode hex="0066"/>
  <outline>
    <contour>
      <point x="494" y="746" type="line"/>
      <point x="736" y="746" type="line" smooth="yes"/>
      <point x="764" y="746"/>
      <point x="816" y="746"/>
      <point x="816" y="804" type="curve" smooth="yes"/>
      <point x="816" y="862"/>
      <point x="764" y="862"/>
      <point x="736" y="862" type="curve" smooth="yes"/>
      <point x="494" y="862" type="line"/>
      <point x="494" y="962" type="line" smooth="yes"/>
      <point x="494" y="1118"/>
      <point x="634" y="1118"/>
      <point x="698" y="1118" type="curve"/>
      <point x="698" y="1114"/>
      <point x="714" y="1040"/>
      <point x="780" y="1040" type="curve" smooth="yes"/>
      <point x="812" y="1040"/>
      <point x="858" y="1064"/>
      <point x="858" y="1120" type="curve" smooth="yes"/>
      <point x="858" y="1234"/>
      <point x="706" y="1234"/>
      <point x="676" y="1234" type="curve" smooth="yes"/>
      <point x="524" y="1234"/>
      <point x="364" y="1148"/>
      <point x="364" y="970" type="curve" smooth="yes"/>
      <point x="364" y="862" type="line"/>
      <point x="166" y="862" type="line" smooth="yes"/>
      <point x="138" y="862"/>
      <point x="84" y="862"/>
      <point x="84" y="804" type="curve" smooth="yes"/>
      <point x="84" y="746"/>
      <point x="136" y="746"/>
      <point x="164" y="746" type="curve" smooth="yes"/>
      <point x="364" y="746" type="line"/>
      <point x="364" y="116" type="line"/>
      <point x="174" y="116" type="line" smooth="yes"/>
      <point x="146" y="116"/>
      <point x="94" y="116"/>
      <point x="94" y="58" type="curve" smooth="yes"/>
      <point x="94" y="0"/>
      <point x="146" y="0"/>
      <point x="174" y="0" type="curve" smooth="yes"/>
      <point x="684" y="0" type="line" smooth="yes"/>
      <point x="712" y="0"/>
      <point x="764" y="0"/>
      <point x="764" y="58" type="curve" smooth="yes"/>
      <point x="764" y="116"/>
      <point x="712" y="116"/>
      <point x="684" y="116" type="curve" smooth="yes"/>
      <point x="494" y="116" type="line"/>
    </contour>
  </outline>
</glyph>
<glyph name="g" format="2">
  <advance width="1028"/>
  <unicode hex="0067"/>
  <outline>
    <contour>
      <point x="58" y="-166" type="curve" smooth="yes"/>
      <point x="58" y="-332"/>
      <point x="260" y="-458"/>
      <point x="514" y="-458" type="curve" smooth="yes"/>
      <point x="768" y="-458"/>
      <point x="970" y="-334"/>
      <point x="970" y="-166" type="curve" smooth="yes"/>
      <point x="970" y="122"/>
      <point x="616" y="122"/>
      <point x="550" y="122" type="curve" smooth="yes"/>
      <point x="493" y="122"/>
      <point x="437" y="122"/>
      <point x="380" y="122" type="curve" smooth="yes"/>
      <point x="356" y="122"/>
      <point x="264" y="122"/>
      <point x="264" y="230" type="curve" smooth="yes"/>
      <point x="264" y="268"/>
      <point x="270" y="276"/>
      <point x="278" y="292" type="curve"/>
      <point x="318" y="264"/>
      <point x="384" y="238"/>
      <point x="456" y="238" type="curve" smooth="yes"/>
      <point x="638" y="238"/>
      <point x="778" y="384"/>
      <point x="778" y="556" type="curve" smooth="yes"/>
      <point x="778" y="606"/>
      <point x="766" y="668"/>
      <point x="724" y="734" type="curve"/>
      <point x="776" y="762"/>
      <point x="824" y="768"/>
      <point x="854" y="770" type="curve"/>
      <point x="866" y="708"/>
      <point x="924" y="706"/>
      <point x="926" y="706" type="curve" smooth="yes"/>
      <point x="950" y="706"/>
      <point x="1000" y="722"/>
      <point x="1000" y="782" type="curve" smooth="yes"/>
      <point x="1000" y="820"/>
      <point x="970" y="886"/>
      <point x="858" y="886" type="curve" smooth="yes"/>
      <point x="822" y="886"/>
      <point x="732" y="878"/>
      <point x="648" y="812" type="curve"/>
      <point x="582" y="858"/>
      <point x="514" y="874"/>
      <point x="458" y="874" type="curve" smooth="yes"/>
      <point x="276" y="874"/>
      <point x="136" y="728"/>
      <point x="136" y="556" type="curve" smooth="yes"/>
      <point x="136" y="512"/>
      <point x="146" y="436"/>
      <point x="202" y="364" type="curve"/>
      <point x="164" y="308"/>
      <point x="158" y="248"/>
      <point x="158" y="224" type="curve" smooth="yes"/>
      <point x="158" y="154"/>
      <point x="192" y="98"/>
      <point x="208" y="80" type="curve"/>
      <point x="98" y="20"/>
      <point x="58" y="-88"/>
    </contour>
    <contour>
      <point x="456" y="350" type="curve" smooth="yes"/>
      <point x="356" y="350"/>
      <point x="266" y="438"/>
      <point x="266" y="556" type="curve" smooth="yes"/>
      <point x="266" y="674"/>
      <point x="358" y="762"/>
      <point x="456" y="762" type="curve" smooth="yes"/>
      <point x="562" y="762"/>
      <point x="648" y="670"/>
      <point x="648" y="556" type="curve" smooth="yes"/>
      <point x="648" y="442"/>
      <point x="562" y="350"/>
    </contour>
    <contour>
      <point x="514" y="-346" type="curve" smooth="yes"/>
      <point x="318" y="-346"/>
      <point x="172" y="-258"/>
      <point x="172" y="-166" type="curve" smooth="yes"/>
      <point x="172" y="-136"/>
      <point x="182" y="-66"/>
      <point x="256" y="-20" type="curve" smooth="yes"/>
      <point x="302" y="10"/>
      <point x="322" y="10"/>
      <point x="460" y="10" type="curve" smooth="yes"/>
      <point x="636" y="10"/>
      <point x="856" y="10"/>
      <point x="856" y="-166" type="curve" smooth="yes"/>
      <point x="856" y="-258"/>
      <point x="710" y="-346"/>
    </contour>
  </outline>
</glyph>
<glyph name="h" format="2">
	<unicode hex="0068"/>
	<advance width="514"/>
	<outline>
		<contour>
			<point x="418" y="293" type="line" smooth="yes"/>
			<point x="418" y="391"/>
			<point x="372" y="437"/>
			<point x="290" y="437" type="curve" smooth="yes"/>
			<point x="222" y="437"/>
			<point x="178" y="399"/>
			<point x="161" y="380" type="curve"/>
			<point x="161" y="570" type="line" smooth="yes"/>
			<point x="161" y="601"/>
			<point x="155" y="611"/>
			<point x="121" y="611" type="curve" smooth="yes"/>
			<point x="55" y="611" type="line" smooth="yes"/>
			<point x="41" y="611"/>
			<point x="15" y="611"/>
			<point x="15" y="582" type="curve" smooth="yes"/>
			<point x="15" y="553"/>
			<point x="41" y="553"/>
			<point x="55" y="553" type="curve" smooth="yes"/>
			<point x="96" y="553" type="line"/>
			<point x="96" y="58" type="line"/>
			<point x="55" y="58" type="line" smooth="yes"/>
			<point x="41" y="58"/>
			<point x="15" y="58"/>
			<point x="15" y="29" type="curve" smooth="yes"/>
			<point x="15" y="0"/>
			<point x="41" y="0"/>
			<point x="55" y="0" type="curve" smooth="yes"/>
			<point x="202" y="0" type="line" smooth="yes"/>
			<point x="216" y="0"/>
			<point x="242" y="0"/>
			<point x="242" y="29" type="curve" smooth="yes"/>
			<point x="242" y="58"/>
			<point x="216" y="58"/>
			<point x="202" y="58" type="curve" smooth="yes"/>
			<point x="161" y="58" type="line"/>
			<point x="161" y="239" type="line" smooth="yes"/>
			<point x="161" y="336"/>
			<point x="229" y="379"/>
			<point x="283" y="379" type="curve" smooth="yes"/>
			<point x="341" y="379"/>
			<point x="353" y="346"/>
			<point x="353" y="289" type="curve" smooth="yes"/>
			<point x="353" y="58" type="line"/>
			<point x="312" y="58" type="line" smooth="yes"/>
			<point x="298" y="58"/>
			<point x="272" y="58"/>
			<point x="272" y="29" type="curve" smooth="yes"/>
			<point x="272" y="0"/>
			<point x="298" y="0"/>
			<point x="312" y="0" type="curve" smooth="yes"/>
			<point x="459" y="0" type="line" smooth="yes"/>
			<point x="473" y="0"/>
			<point x="499" y="0"/>
			<point x="499" y="29" type="curve" smooth="yes"/>
			<point x="499" y="58"/>
			<point x="473" y="58"/>
			<point x="459" y="58" type="curve" smooth="yes"/>
			<point x="418" y="58" type="line"/>
		</contour>
	</outline>
</glyph>
<glyph name="j" format="2">
  <advance width="514"/>
  <unicode hex="006A"/>
  <outline>
    <contour>
      <point x="360" y="567" type="curve" smooth="yes"/>
      <point x="360" y="592"/>
      <point x="340" y="612"/>
      <point x="315" y="612" type="curve" smooth="yes"/>
      <point x="290" y="612"/>
      <point x="270" y="592"/>
      <point x="270" y="567" type="curve" smooth="yes"/>
      <point x="270" y="542"/>
      <point x="290" y="522"/>
      <point x="315" y="522" type="curve" smooth="yes"/>
      <point x="340" y="522"/>
      <point x="360" y="542"/>
    </contour>
    <contour>
      <point x="173" y="431" type="line" smooth="yes"/>
      <point x="159" y="431"/>
      <point x="133" y="431"/>
      <point x="133" y="402" type="curve" smooth="yes"/>
      <point x="133" y="373"/>
      <point x="157" y="373"/>
      <point x="173" y="373" type="curve" smooth="yes"/>
      <point x="295" y="373" type="line"/>
      <point x="295" y="-39" type="line" smooth="yes"/>
      <point x="295" y="-55"/>
      <point x="295" y="-98"/>
      <point x="267" y="-135" type="curve" smooth="yes"/>
      <point x="240" y="-170"/>
      <point x="212" y="-170"/>
      <point x="188" y="-170" type="curve" smooth="yes"/>
      <point x="168" y="-170"/>
      <point x="144" y="-169"/>
      <point x="127" y="-165" type="curve"/>
      <point x="127" y="-151"/>
      <point x="127" y="-114"/>
      <point x="88" y="-114" type="curve" smooth="yes"/>
      <point x="70" y="-114"/>
      <point x="47" y="-127"/>
      <point x="47" y="-156" type="curve" smooth="yes"/>
      <point x="47" y="-228"/>
      <point x="145" y="-228"/>
      <point x="185" y="-228" type="curve" smooth="yes"/>
      <point x="221" y="-228"/>
      <point x="262" y="-228"/>
      <point x="312" y="-177" type="curve" smooth="yes"/>
      <point x="322" y="-167"/>
      <point x="360" y="-121"/>
      <point x="360" y="-44" type="curve" smooth="yes"/>
      <point x="360" y="390" type="line" smooth="yes"/>
      <point x="360" y="421"/>
      <point x="354" y="431"/>
      <point x="320" y="431" type="curve" smooth="yes"/>
    </contour>
  </outline>
</glyph>
<glyph name="k" format="2">
  <advance width="1028"/>
  <unicode hex="006B"/>
  <outline>
    <contour>
      <point x="564" y="510" type="line"/>
      <point x="812" y="746" type="line"/>
      <point x="872" y="746" type="line" smooth="yes"/>
      <point x="900" y="746"/>
      <point x="952" y="746"/>
      <point x="952" y="804" type="curve" smooth="yes"/>
      <point x="952" y="862"/>
      <point x="900" y="862"/>
      <point x="872" y="862" type="curve" smooth="yes"/>
      <point x="580" y="862" type="line" smooth="yes"/>
      <point x="552" y="862"/>
      <point x="498" y="862"/>
      <point x="498" y="804" type="curve" smooth="yes"/>
      <point x="498" y="746"/>
      <point x="552" y="746"/>
      <point x="580" y="746" type="curve" smooth="yes"/>
      <point x="650" y="746" type="line"/>
      <point x="326" y="438" type="line"/>
      <point x="326" y="1140" type="line" smooth="yes"/>
      <point x="326" y="1202"/>
      <point x="314" y="1222"/>
      <point x="246" y="1222" type="curve" smooth="yes"/>
      <point x="124" y="1222" type="line" smooth="yes"/>
      <point x="96" y="1222"/>
      <point x="42" y="1222"/>
      <point x="42" y="1164" type="curve" smooth="yes"/>
      <point x="42" y="1106"/>
      <point x="96" y="1106"/>
      <point x="124" y="1106" type="curve" smooth="yes"/>
      <point x="214" y="1106" type="line"/>
      <point x="214" y="116" type="line"/>
      <point x="124" y="116" type="line" smooth="yes"/>
      <point x="96" y="116"/>
      <point x="42" y="116"/>
      <point x="42" y="58" type="curve" smooth="yes"/>
      <point x="42" y="0"/>
      <point x="96" y="0"/>
      <point x="124" y="0" type="curve" smooth="yes"/>
      <point x="416" y="0" type="line" smooth="yes"/>
      <point x="444" y="0"/>
      <point x="498" y="0"/>
      <point x="498" y="58" type="curve" smooth="yes"/>
      <point x="498" y="116"/>
      <point x="444" y="116"/>
      <point x="416" y="116" type="curve" smooth="yes"/>
      <point x="326" y="116" type="line"/>
      <point x="326" y="284" type="line"/>
      <point x="482" y="432" type="line"/>
      <point x="720" y="116" type="line"/>
      <point x="656" y="116"/>
      <point x="608" y="116"/>
      <point x="608" y="58" type="curve" smooth="yes"/>
      <point x="608" y="0"/>
      <point x="662" y="0"/>
      <point x="690" y="0" type="curve" smooth="yes"/>
      <point x="914" y="0" type="line" smooth="yes"/>
      <point x="942" y="0"/>
      <point x="994" y="0"/>
      <point x="994" y="58" type="curve" smooth="yes"/>
      <point x="994" y="116"/>
      <point x="942" y="116"/>
      <point x="914" y="116" type="curve" smooth="yes"/>
      <point x="860" y="116" type="line"/>
    </contour>
  </outline>
</glyph>
<glyph name="l" format="2">
  <advance width="1028"/>
  <unicode hex="006C"/>
  <outline>
    <contour>
      <point x="580" y="1140" type="line" smooth="yes"/>
      <point x="580" y="1202"/>
      <point x="568" y="1222"/>
      <point x="500" y="1222" type="curve" smooth="yes"/>
      <point x="206" y="1222" type="line" smooth="yes"/>
      <point x="178" y="1222"/>
      <point x="126" y="1222"/>
      <point x="126" y="1164" type="curve" smooth="yes"/>
      <point x="126" y="1106"/>
      <point x="178" y="1106"/>
      <point x="206" y="1106" type="curve" smooth="yes"/>
      <point x="450" y="1106" type="line"/>
      <point x="450" y="116" type="line"/>
      <point x="206" y="116" type="line" smooth="yes"/>
      <point x="178" y="116"/>
      <point x="126" y="116"/>
      <point x="126" y="58" type="curve" smooth="yes"/>
      <point x="126" y="0"/>
      <point x="178" y="0"/>
      <point x="206" y="0" type="curve" smooth="yes"/>
      <point x="824" y="0" type="line" smooth="yes"/>
      <point x="852" y="0"/>
      <point x="904" y="0"/>
      <point x="904" y="58" type="curve" smooth="yes"/>
      <point x="904" y="116"/>
      <point x="852" y="116"/>
      <point x="824" y="116" type="curve" smooth="yes"/>
      <point x="580" y="116" type="line"/>
    </contour>
  </outline>
</glyph>
<glyph name="m" format="2">
  <advance width="1028"/>
  <unicode hex="006D"/>
  <outline>
    <contour>
      <point x="906" y="606" type="line" smooth="yes"/>
      <point x="906" y="650"/>
      <point x="906" y="874"/>
      <point x="730" y="874" type="curve" smooth="yes"/>
      <point x="660" y="874"/>
      <point x="592" y="842"/>
      <point x="538" y="768" type="curve"/>
      <point x="526" y="798"/>
      <point x="482" y="874"/>
      <point x="386" y="874" type="curve" smooth="yes"/>
      <point x="296" y="874"/>
      <point x="234" y="816"/>
      <point x="218" y="798" type="curve"/>
      <point x="216" y="862"/>
      <point x="174" y="862"/>
      <point x="138" y="862" type="curve" smooth="yes"/>
      <point x="78" y="862" type="line" smooth="yes"/>
      <point x="50" y="862"/>
      <point x="-2" y="862"/>
      <point x="-2" y="804" type="curve" smooth="yes"/>
      <point x="-2" y="746"/>
      <point x="44" y="746"/>
      <point x="106" y="746" type="curve"/>
      <point x="106" y="116" type="line"/>
      <point x="42" y="116"/>
      <point x="-2" y="116"/>
      <point x="-2" y="58" type="curve" smooth="yes"/>
      <point x="-2" y="0"/>
      <point x="50" y="0"/>
      <point x="78" y="0" type="curve" smooth="yes"/>
      <point x="246" y="0" type="line" smooth="yes"/>
      <point x="274" y="0"/>
      <point x="326" y="0"/>
      <point x="326" y="58" type="curve" smooth="yes"/>
      <point x="326" y="116"/>
      <point x="280" y="116"/>
      <point x="218" y="116" type="curve"/>
      <point x="218" y="484" type="line" smooth="yes"/>
      <point x="218" y="652"/>
      <point x="290" y="758"/>
      <point x="378" y="758" type="curve" smooth="yes"/>
      <point x="434" y="758"/>
      <point x="450" y="688"/>
      <point x="450" y="594" type="curve" smooth="yes"/>
      <point x="450" y="116" type="line"/>
      <point x="416" y="116"/>
      <point x="362" y="116"/>
      <point x="362" y="58" type="curve" smooth="yes"/>
      <point x="362" y="0"/>
      <point x="416" y="0"/>
      <point x="444" y="0" type="curve" smooth="yes"/>
      <point x="590" y="0" type="line" smooth="yes"/>
      <point x="618" y="0"/>
      <point x="670" y="0"/>
      <point x="670" y="58" type="curve" smooth="yes"/>
      <point x="670" y="116"/>
      <point x="624" y="116"/>
      <point x="562" y="116" type="curve"/>
      <point x="562" y="484" type="line" smooth="yes"/>
      <point x="562" y="652"/>
      <point x="634" y="758"/>
      <point x="722" y="758" type="curve" smooth="yes"/>
      <point x="778" y="758"/>
      <point x="794" y="688"/>
      <point x="794" y="594" type="curve" smooth="yes"/>
      <point x="794" y="116" type="line"/>
      <point x="760" y="116"/>
      <point x="706" y="116"/>
      <point x="706" y="58" type="curve" smooth="yes"/>
      <point x="706" y="0"/>
      <point x="760" y="0"/>
      <point x="788" y="0" type="curve" smooth="yes"/>
      <point x="934" y="0" type="line" smooth="yes"/>
      <point x="962" y="0"/>
      <point x="1014" y="0"/>
      <point x="1014" y="58" type="curve" smooth="yes"/>
      <point x="1014" y="116"/>
      <point x="968" y="116"/>
      <point x="906" y="116" type="curve"/>
    </contour>
  </outline>
</glyph>
<glyph name="n" format="2">
  <advance width="1028"/>
  <unicode hex="006E"/>
  <outline>
    <contour>
      <point x="836" y="586" type="line" smooth="yes"/>
      <point x="836" y="782"/>
      <point x="744" y="874"/>
      <point x="580" y="874" type="curve" smooth="yes"/>
      <point x="444" y="874"/>
      <point x="356" y="798"/>
      <point x="322" y="760" type="curve"/>
      <point x="322" y="834"/>
      <point x="322" y="862"/>
      <point x="242" y="862" type="curve" smooth="yes"/>
      <point x="110" y="862" type="line" smooth="yes"/>
      <point x="82" y="862"/>
      <point x="30" y="862"/>
      <point x="30" y="804" type="curve" smooth="yes"/>
      <point x="30" y="746"/>
      <point x="82" y="746"/>
      <point x="110" y="746" type="curve" smooth="yes"/>
      <point x="192" y="746" type="line"/>
      <point x="192" y="116" type="line"/>
      <point x="110" y="116" type="line" smooth="yes"/>
      <point x="82" y="116"/>
      <point x="30" y="116"/>
      <point x="30" y="58" type="curve" smooth="yes"/>
      <point x="30" y="0"/>
      <point x="82" y="0"/>
      <point x="110" y="0" type="curve" smooth="yes"/>
      <point x="404" y="0" type="line" smooth="yes"/>
      <point x="432" y="0"/>
      <point x="484" y="0"/>
      <point x="484" y="58" type="curve" smooth="yes"/>
      <point x="484" y="116"/>
      <point x="432" y="116"/>
      <point x="404" y="116" type="curve" smooth="yes"/>
      <point x="322" y="116" type="line"/>
      <point x="322" y="478" type="line" smooth="yes"/>
      <point x="322" y="672"/>
      <point x="458" y="758"/>
      <point x="566" y="758" type="curve" smooth="yes"/>
      <point x="682" y="758"/>
      <point x="706" y="692"/>
      <point x="706" y="578" type="curve" smooth="yes"/>
      <point x="706" y="116" type="line"/>
      <point x="624" y="116" type="line" smooth="yes"/>
      <point x="596" y="116"/>
      <point x="544" y="116"/>
      <point x="544" y="58" type="curve" smooth="yes"/>
      <point x="544" y="0"/>
      <point x="596" y="0"/>
      <point x="624" y="0" type="curve" smooth="yes"/>
      <point x="918" y="0" type="line" smooth="yes"/>
      <point x="946" y="0"/>
      <point x="998" y="0"/>
      <point x="998" y="58" type="curve" smooth="yes"/>
      <point x="998" y="116"/>
      <point x="946" y="116"/>
      <point x="918" y="116" type="curve" smooth="yes"/>
      <point x="836" y="116" type="line"/>
    </contour>
  </outline>
</glyph>
<glyph name="o" format="2">
  <advance width="1028"/>
  <unicode hex="006F"/>
  <outline>
    <contour>
      <point x="912" y="432" type="curve" smooth="yes"/>
      <point x="912" y="682"/>
      <point x="730" y="880"/>
      <point x="514" y="880" type="curve" smooth="yes"/>
      <point x="298" y="880"/>
      <point x="116" y="682"/>
      <point x="116" y="432" type="curve" smooth="yes"/>
      <point x="116" y="180"/>
      <point x="300" y="-12"/>
      <point x="514" y="-12" type="curve" smooth="yes"/>
      <point x="728" y="-12"/>
      <point x="912" y="180"/>
    </contour>
    <contour>
      <point x="514" y="104" type="curve" smooth="yes"/>
      <point x="370" y="104"/>
      <point x="246" y="256"/>
      <point x="246" y="446" type="curve" smooth="yes"/>
      <point x="246" y="632"/>
      <point x="374" y="764"/>
      <point x="514" y="764" type="curve" smooth="yes"/>
      <point x="654" y="764"/>
      <point x="782" y="632"/>
      <point x="782" y="446" type="curve" smooth="yes"/>
      <point x="782" y="254"/>
      <point x="658" y="104"/>
    </contour>
  </outline>
</glyph>
<glyph name="p" format="2">
  <advance width="1028"/>
  <unicode hex="0070"/>
  <outline>
    <contour>
      <point x="404" y="-444" type="line" smooth="yes"/>
      <point x="432" y="-444"/>
      <point x="484" y="-444"/>
      <point x="484" y="-386" type="curve" smooth="yes"/>
      <point x="484" y="-328"/>
      <point x="432" y="-328"/>
      <point x="404" y="-328" type="curve" smooth="yes"/>
      <point x="322" y="-328" type="line"/>
      <point x="322" y="100" type="line"/>
      <point x="370" y="46"/>
      <point x="444" y="-12"/>
      <point x="556" y="-12" type="curve" smooth="yes"/>
      <point x="768" y="-12"/>
      <point x="954" y="178"/>
      <point x="954" y="432" type="curve" smooth="yes"/>
      <point x="954" y="678"/>
      <point x="786" y="874"/>
      <point x="578" y="874" type="curve" smooth="yes"/>
      <point x="432" y="874"/>
      <point x="340" y="786"/>
      <point x="322" y="766" type="curve"/>
      <point x="322" y="832"/>
      <point x="322" y="862"/>
      <point x="242" y="862" type="curve" smooth="yes"/>
      <point x="110" y="862" type="line" smooth="yes"/>
      <point x="82" y="862"/>
      <point x="30" y="862"/>
      <point x="30" y="804" type="curve" smooth="yes"/>
      <point x="30" y="746"/>
      <point x="82" y="746"/>
      <point x="110" y="746" type="curve" smooth="yes"/>
      <point x="192" y="746" type="line"/>
      <point x="192" y="-328" type="line"/>
      <point x="110" y="-328" type="line" smooth="yes"/>
      <point x="82" y="-328"/>
      <point x="30" y="-328"/>
      <point x="30" y="-386" type="curve" smooth="yes"/>
      <point x="30" y="-444"/>
      <point x="82" y="-444"/>
      <point x="110" y="-444" type="curve" smooth="yes"/>
    </contour>
    <contour>
      <point x="322" y="532" type="line" smooth="yes"/>
      <point x="322" y="646"/>
      <point x="434" y="758"/>
      <point x="564" y="758" type="curve" smooth="yes"/>
      <point x="708" y="758"/>
      <point x="824" y="612"/>
      <point x="824" y="432" type="curve" smooth="yes"/>
      <point x="824" y="240"/>
      <point x="688" y="104"/>
      <point x="546" y="104" type="curve" smooth="yes"/>
      <point x="396" y="104"/>
      <point x="322" y="274"/>
      <point x="322" y="374" type="curve" smooth="yes"/>
    </contour>
  </outline>
</glyph>
<glyph name="q" format="2">
  <advance width="1028"/>
  <unicode hex="0071"/>
  <outline>
    <contour>
      <point x="82" y="430" type="curve" smooth="yes"/>
      <point x="82" y="186"/>
      <point x="258" y="-12"/>
      <point x="476" y="-12" type="curve" smooth="yes"/>
      <point x="622" y="-12"/>
      <point x="704" y="74"/>
      <point x="746" y="118" type="curve"/>
      <point x="746" y="-328" type="line"/>
      <point x="656" y="-328" type="line" smooth="yes"/>
      <point x="628" y="-328"/>
      <point x="574" y="-328"/>
      <point x="574" y="-386" type="curve" smooth="yes"/>
      <point x="574" y="-444"/>
      <point x="628" y="-444"/>
      <point x="656" y="-444" type="curve" smooth="yes"/>
      <point x="966" y="-444" type="line" smooth="yes"/>
      <point x="994" y="-444"/>
      <point x="1048" y="-444"/>
      <point x="1048" y="-386" type="curve" smooth="yes"/>
      <point x="1048" y="-328"/>
      <point x="994" y="-328"/>
      <point x="966" y="-328" type="curve" smooth="yes"/>
      <point x="876" y="-328" type="line"/>
      <point x="876" y="792" type="line" smooth="yes"/>
      <point x="876" y="828"/>
      <point x="876" y="874"/>
      <point x="812" y="874" type="curve" smooth="yes"/>
      <point x="746" y="874"/>
      <point x="746" y="830"/>
      <point x="746" y="792" type="curve" smooth="yes"/>
      <point x="746" y="754" type="line"/>
      <point x="708" y="794"/>
      <point x="634" y="874"/>
      <point x="496" y="874" type="curve" smooth="yes"/>
      <point x="278" y="874"/>
      <point x="82" y="686"/>
    </contour>
    <contour>
      <point x="488" y="104" type="curve" smooth="yes"/>
      <point x="336" y="104"/>
      <point x="212" y="250"/>
      <point x="212" y="430" type="curve" smooth="yes"/>
      <point x="212" y="618"/>
      <point x="352" y="758"/>
      <point x="508" y="758" type="curve" smooth="yes"/>
      <point x="660" y="758"/>
      <point x="746" y="596"/>
      <point x="746" y="472" type="curve" smooth="yes"/>
      <point x="746" y="382" type="line" smooth="yes"/>
      <point x="746" y="270"/>
      <point x="648" y="104"/>
    </contour>
  </outline>
</glyph>
<glyph name="r" format="2">
  <advance width="1028"/>
  <unicode hex="0072"/>
  <outline>
    <contour>
      <point x="432" y="378" type="line" smooth="yes"/>
      <point x="432" y="616"/>
      <point x="600" y="758"/>
      <point x="770" y="758" type="curve" smooth="yes"/>
      <point x="780" y="758"/>
      <point x="792" y="758"/>
      <point x="802" y="756" type="curve"/>
      <point x="808" y="684"/>
      <point x="864" y="678"/>
      <point x="878" y="678" type="curve" smooth="yes"/>
      <point x="924" y="678"/>
      <point x="956" y="712"/>
      <point x="956" y="756" type="curve" smooth="yes"/>
      <point x="956" y="842"/>
      <point x="872" y="874"/>
      <point x="772" y="874" type="curve" smooth="yes"/>
      <point x="638" y="874"/>
      <point x="524" y="814"/>
      <point x="432" y="702" type="curve"/>
      <point x="432" y="780" type="line" smooth="yes"/>
      <point x="432" y="842"/>
      <point x="420" y="862"/>
      <point x="352" y="862" type="curve" smooth="yes"/>
      <point x="150" y="862" type="line" smooth="yes"/>
      <point x="122" y="862"/>
      <point x="70" y="862"/>
      <point x="70" y="804" type="curve" smooth="yes"/>
      <point x="70" y="746"/>
      <point x="122" y="746"/>
      <point x="150" y="746" type="curve" smooth="yes"/>
      <point x="302" y="746" type="line"/>
      <point x="302" y="116" type="line"/>
      <point x="150" y="116" type="line" smooth="yes"/>
      <point x="122" y="116"/>
      <point x="70" y="116"/>
      <point x="70" y="58" type="curve" smooth="yes"/>
      <point x="70" y="0"/>
      <point x="122" y="0"/>
      <point x="150" y="0" type="curve" smooth="yes"/>
      <point x="642" y="0" type="line" smooth="yes"/>
      <point x="670" y="0"/>
      <point x="722" y="0"/>
      <point x="722" y="58" type="curve" smooth="yes"/>
      <point x="722" y="116"/>
      <point x="670" y="116"/>
      <point x="642" y="116" type="curve" smooth="yes"/>
      <point x="432" y="116" type="line"/>
    </contour>
  </outline>
</glyph>
<glyph name="s" format="2">
  <advance width="1028"/>
  <unicode hex="0073"/>
  <outline>
    <contour>
      <point x="142" y="646" type="curve" smooth="yes"/>
      <point x="142" y="538"/>
      <point x="230" y="456"/>
      <point x="392" y="424" type="curve" smooth="yes"/>
      <point x="440" y="414"/>
      <point x="500" y="408"/>
      <point x="598" y="388" type="curve" smooth="yes"/>
      <point x="680" y="370"/>
      <point x="782" y="336"/>
      <point x="782" y="248" type="curve" smooth="yes"/>
      <point x="782" y="174"/>
      <point x="714" y="104"/>
      <point x="528" y="104" type="curve" smooth="yes"/>
      <point x="400" y="104"/>
      <point x="316" y="154"/>
      <point x="274" y="298" type="curve"/>
      <point x="264" y="326"/>
      <point x="258" y="348"/>
      <point x="208" y="348" type="curve" smooth="yes"/>
      <point x="142" y="348"/>
      <point x="142" y="310"/>
      <point x="142" y="270" type="curve" smooth="yes"/>
      <point x="142" y="64" type="line" smooth="yes"/>
      <point x="142" y="32"/>
      <point x="142" y="-12"/>
      <point x="198" y="-12" type="curve" smooth="yes"/>
      <point x="222" y="-12"/>
      <point x="240" y="-12"/>
      <point x="270" y="70" type="curve"/>
      <point x="362" y="-6"/>
      <point x="466" y="-12"/>
      <point x="528" y="-12" type="curve" smooth="yes"/>
      <point x="898" y="-12"/>
      <point x="898" y="228"/>
      <point x="898" y="248" type="curve" smooth="yes"/>
      <point x="898" y="412"/>
      <point x="738" y="478"/>
      <point x="622" y="500" type="curve" smooth="yes"/>
      <point x="528" y="518"/>
      <point x="487" y="522"/>
      <point x="436" y="534" type="curve" smooth="yes"/>
      <point x="326" y="556"/>
      <point x="258" y="582"/>
      <point x="258" y="646" type="curve" smooth="yes"/>
      <point x="258" y="700"/>
      <point x="320" y="764"/>
      <point x="508" y="764" type="curve" smooth="yes"/>
      <point x="698" y="764"/>
      <point x="706" y="674"/>
      <point x="710" y="622" type="curve" smooth="yes"/>
      <point x="714" y="582"/>
      <point x="750" y="576"/>
      <point x="774" y="576" type="curve" smooth="yes"/>
      <point x="840" y="576"/>
      <point x="840" y="612"/>
      <point x="840" y="652" type="curve" smooth="yes"/>
      <point x="840" y="804" type="line" smooth="yes"/>
      <point x="840" y="836"/>
      <point x="840" y="880"/>
      <point x="784" y="880" type="curve" smooth="yes"/>
      <point x="736" y="880"/>
      <point x="724" y="834"/>
      <point x="724" y="832" type="curve"/>
      <point x="644" y="880"/>
      <point x="552" y="880"/>
      <point x="512" y="880" type="curve" smooth="yes"/>
      <point x="186" y="880"/>
      <point x="142" y="714"/>
    </contour>
  </outline>
</glyph>
<glyph name="t" format="2">
	<unicode hex="0074"/>
	<advance width="514"/>
	<outline>
		<contour>
			<point x="216" y="373" type="line"/>
			<point x="378" y="373" type="line" smooth="yes"/>
			<point x="392" y="373"/>
			<point x="418" y="373"/>
			<point x="418" y="402" type="curve" smooth="yes"/>
			<point x="418" y="431"/>
			<point x="392" y="431"/>
			<point x="378" y="431" type="curve" smooth="yes"/>
			<point x="216" y="431" type="line"/>
			<point x="216" y="513" type="line" smooth="yes"/>
			<point x="216" y="531"/>
			<point x="216" y="554"/>
			<point x="184" y="554" type="curve" smooth="yes"/>
			<point x="151" y="554"/>
			<point x="151" y="531"/>
			<point x="151" y="513" type="curve" smooth="yes"/>
			<point x="151" y="431" type="line"/>
			<point x="66" y="431" type="line" smooth="yes"/>
			<point x="52" y="431"/>
			<point x="25" y="431"/>
			<point x="25" y="402" type="curve" smooth="yes"/>
			<point x="25" y="373"/>
			<point x="51" y="373"/>
			<point x="65" y="373" type="curve" smooth="yes"/>
			<point x="151" y="373" type="line"/>
			<point x="151" y="121" type="line" smooth="yes"/>
			<point x="151" y="28"/>
			<point x="215" y="-6"/>
			<point x="287" y="-6" type="curve" smooth="yes"/>
			<point x="341" y="-6"/>
			<point x="440" y="21"/>
			<point x="440" y="123" type="curve" smooth="yes"/>
			<point x="440" y="143"/>
			<point x="440" y="165"/>
			<point x="407" y="165" type="curve" smooth="yes"/>
			<point x="375" y="165"/>
			<point x="375" y="143"/>
			<point x="375" y="122" type="curve" smooth="yes"/>
			<point x="374" y="62"/>
			<point x="317" y="52"/>
			<point x="294" y="52" type="curve" smooth="yes"/>
			<point x="216" y="52"/>
			<point x="216" y="102"/>
			<point x="216" y="126" type="curve" smooth="yes"/>
		</contour>
	</outline>
</glyph>
<glyph name="u" format="2">
  <advance width="1028"/>
  <unicode hex="0075"/>
  <outline>
    <contour>
      <point x="704" y="72" type="curve"/>
      <point x="704" y="0"/>
      <point x="752" y="0"/>
      <point x="786" y="0" type="curve" smooth="yes"/>
      <point x="918" y="0" type="line" smooth="yes"/>
      <point x="946" y="0"/>
      <point x="998" y="0"/>
      <point x="998" y="58" type="curve" smooth="yes"/>
      <point x="998" y="116"/>
      <point x="946" y="116"/>
      <point x="918" y="116" type="curve" smooth="yes"/>
      <point x="836" y="116" type="line"/>
      <point x="836" y="780" type="line" smooth="yes"/>
      <point x="836" y="842"/>
      <point x="824" y="862"/>
      <point x="756" y="862" type="curve" smooth="yes"/>
      <point x="624" y="862" type="line" smooth="yes"/>
      <point x="596" y="862"/>
      <point x="544" y="862"/>
      <point x="544" y="804" type="curve" smooth="yes"/>
      <point x="544" y="746"/>
      <point x="596" y="746"/>
      <point x="624" y="746" type="curve" smooth="yes"/>
      <point x="706" y="746" type="line"/>
      <point x="706" y="312" type="line" smooth="yes"/>
      <point x="706" y="148"/>
      <point x="570" y="104"/>
      <point x="480" y="104" type="curve" smooth="yes"/>
      <point x="322" y="104"/>
      <point x="322" y="176"/>
      <point x="322" y="238" type="curve" smooth="yes"/>
      <point x="322" y="780" type="line" smooth="yes"/>
      <point x="322" y="842"/>
      <point x="310" y="862"/>
      <point x="242" y="862" type="curve" smooth="yes"/>
      <point x="110" y="862" type="line" smooth="yes"/>
      <point x="82" y="862"/>
      <point x="30" y="862"/>
      <point x="30" y="804" type="curve" smooth="yes"/>
      <point x="30" y="746"/>
      <point x="82" y="746"/>
      <point x="110" y="746" type="curve" smooth="yes"/>
      <point x="192" y="746" type="line"/>
      <point x="192" y="228" type="line" smooth="yes"/>
      <point x="192" y="44"/>
      <point x="312" y="-12"/>
      <point x="466" y="-12" type="curve" smooth="yes"/>
      <point x="588" y="-12"/>
      <point x="664" y="38"/>
    </contour>
  </outline>
</glyph>
<glyph name="v" format="2">
  <advance width="1028"/>
  <unicode hex="0076"/>
  <outline>
    <contour>
      <point x="848" y="746" type="line"/>
      <point x="900" y="746" type="line" smooth="yes"/>
      <point x="928" y="746"/>
      <point x="982" y="746"/>
      <point x="982" y="804" type="curve" smooth="yes"/>
      <point x="982" y="862"/>
      <point x="928" y="862"/>
      <point x="900" y="862" type="curve" smooth="yes"/>
      <point x="680" y="862" type="line" smooth="yes"/>
      <point x="652" y="862"/>
      <point x="598" y="862"/>
      <point x="598" y="804" type="curve" smooth="yes"/>
      <point x="598" y="746"/>
      <point x="652" y="746"/>
      <point x="680" y="746" type="curve" smooth="yes"/>
      <point x="730" y="746" type="line"/>
      <point x="514" y="102" type="line"/>
      <point x="298" y="746" type="line"/>
      <point x="348" y="746" type="line" smooth="yes"/>
      <point x="376" y="746"/>
      <point x="430" y="746"/>
      <point x="430" y="804" type="curve" smooth="yes"/>
      <point x="430" y="862"/>
      <point x="376" y="862"/>
      <point x="348" y="862" type="curve" smooth="yes"/>
      <point x="128" y="862" type="line" smooth="yes"/>
      <point x="100" y="862"/>
      <point x="46" y="862"/>
      <point x="46" y="804" type="curve" smooth="yes"/>
      <point x="46" y="746"/>
      <point x="100" y="746"/>
      <point x="128" y="746" type="curve" smooth="yes"/>
      <point x="180" y="746" type="line"/>
      <point x="410" y="58" type="line" smooth="yes"/>
      <point x="432" y="-10"/>
      <point x="476" y="-10"/>
      <point x="514" y="-10" type="curve" smooth="yes"/>
      <point x="552" y="-10"/>
      <point x="596" y="-10"/>
      <point x="618" y="58" type="curve" smooth="yes"/>
    </contour>
  </outline>
</glyph>
<glyph name="w" format="2">
	<unicode hex="0077"/>
	<advance width="514"/>
	<outline>
		<contour>
			<point x="450" y="373" type="line"/>
			<point x="474" y="373"/>
			<point x="499" y="373"/>
			<point x="499" y="402" type="curve" smooth="yes"/>
			<point x="499" y="431"/>
			<point x="472" y="431"/>
			<point x="458" y="431" type="curve" smooth="yes"/>
			<point x="346" y="431" type="line" smooth="yes"/>
			<point x="332" y="431"/>
			<point x="305" y="431"/>
			<point x="305" y="402" type="curve" smooth="yes"/>
			<point x="305" y="373"/>
			<point x="332" y="373"/>
			<point x="346" y="373" type="curve" smooth="yes"/>
			<point x="393" y="373" type="line"/>
			<point x="343" y="68" type="line"/>
			<point x="342" y="68" type="line"/>
			<point x="338" y="94"/>
			<point x="322" y="150"/>
			<point x="312" y="182" type="curve" smooth="yes"/>
			<point x="294" y="247"/>
			<point x="291" y="259"/>
			<point x="258" y="259" type="curve" smooth="yes"/>
			<point x="226" y="259"/>
			<point x="222" y="247"/>
			<point x="204" y="183" type="curve" smooth="yes"/>
			<point x="184" y="115"/>
			<point x="177" y="86"/>
			<point x="174" y="68" type="curve"/>
			<point x="173" y="68" type="line"/>
			<point x="121" y="373" type="line"/>
			<point x="168" y="373" type="line" smooth="yes"/>
			<point x="182" y="373"/>
			<point x="209" y="373"/>
			<point x="209" y="402" type="curve" smooth="yes"/>
			<point x="209" y="431"/>
			<point x="182" y="431"/>
			<point x="168" y="431" type="curve" smooth="yes"/>
			<point x="56" y="431" type="line" smooth="yes"/>
			<point x="42" y="431"/>
			<point x="15" y="431"/>
			<point x="15" y="402" type="curve" smooth="yes"/>
			<point x="15" y="373"/>
			<point x="40" y="373"/>
			<point x="64" y="373" type="curve"/>
			<point x="124" y="33" type="line" smooth="yes"/>
			<point x="130" y="-2"/>
			<point x="146" y="-5"/>
			<point x="169" y="-5" type="curve" smooth="yes"/>
			<point x="208" y="-5"/>
			<point x="210" y="3"/>
			<point x="230" y="72" type="curve" smooth="yes"/>
			<point x="239" y="107"/>
			<point x="255" y="162"/>
			<point x="258" y="189" type="curve"/>
			<point x="259" y="189" type="line"/>
			<point x="260" y="176"/>
			<point x="265" y="148"/>
			<point x="286" y="71" type="curve" smooth="yes"/>
			<point x="306" y="4"/>
			<point x="308" y="-5"/>
			<point x="346" y="-5" type="curve" smooth="yes"/>
			<point x="363" y="-5"/>
			<point x="383" y="-5"/>
			<point x="390" y="32" type="curve" smooth="yes"/>
		</contour>
	</outline>
</glyph>
<glyph name="x" format="2">
  <advance width="1028"/>
  <unicode hex="0078"/>
  <outline>
    <contour>
      <point x="564" y="444" type="line"/>
      <point x="794" y="746" type="line"/>
      <point x="864" y="746" type="line" smooth="yes"/>
      <point x="892" y="746"/>
      <point x="944" y="746"/>
      <point x="944" y="804" type="curve" smooth="yes"/>
      <point x="944" y="862"/>
      <point x="892" y="862"/>
      <point x="864" y="862" type="curve" smooth="yes"/>
      <point x="642" y="862" type="line" smooth="yes"/>
      <point x="614" y="862"/>
      <point x="562" y="862"/>
      <point x="562" y="804" type="curve" smooth="yes"/>
      <point x="562" y="746"/>
      <point x="610" y="746"/>
      <point x="658" y="746" type="curve"/>
      <point x="508" y="540" type="line"/>
      <point x="354" y="746" type="line"/>
      <point x="400" y="746"/>
      <point x="448" y="746"/>
      <point x="448" y="804" type="curve" smooth="yes"/>
      <point x="448" y="862"/>
      <point x="396" y="862"/>
      <point x="368" y="862" type="curve" smooth="yes"/>
      <point x="146" y="862" type="line" smooth="yes"/>
      <point x="118" y="862"/>
      <point x="66" y="862"/>
      <point x="66" y="804" type="curve" smooth="yes"/>
      <point x="66" y="746"/>
      <point x="118" y="746"/>
      <point x="146" y="746" type="curve" smooth="yes"/>
      <point x="216" y="746" type="line"/>
      <point x="454" y="444" type="line"/>
      <point x="204" y="116" type="line"/>
      <point x="136" y="116" type="line" smooth="yes"/>
      <point x="108" y="116"/>
      <point x="54" y="116"/>
      <point x="54" y="58" type="curve" smooth="yes"/>
      <point x="54" y="0"/>
      <point x="108" y="0"/>
      <point x="136" y="0" type="curve" smooth="yes"/>
      <point x="356" y="0" type="line" smooth="yes"/>
      <point x="384" y="0"/>
      <point x="436" y="0"/>
      <point x="436" y="58" type="curve" smooth="yes"/>
      <point x="436" y="116"/>
      <point x="390" y="116"/>
      <point x="336" y="116" type="curve"/>
      <point x="508" y="368" type="line"/>
      <point x="688" y="116" type="line"/>
      <point x="638" y="116"/>
      <point x="590" y="116"/>
      <point x="590" y="58" type="curve" smooth="yes"/>
      <point x="590" y="0"/>
      <point x="642" y="0"/>
      <point x="670" y="0" type="curve" smooth="yes"/>
      <point x="892" y="0" type="line" smooth="yes"/>
      <point x="920" y="0"/>
      <point x="972" y="0"/>
      <point x="972" y="58" type="curve" smooth="yes"/>
      <point x="972" y="116"/>
      <point x="920" y="116"/>
      <point x="892" y="116" type="curve" smooth="yes"/>
      <point x="822" y="116" type="line"/>
    </contour>
  </outline>
</glyph>
<glyph name="y" format="2">
  <advance width="1028"/>
  <unicode hex="0079"/>
  <outline>
    <contour>
      <point x="848" y="746" type="line"/>
      <point x="865" y="746"/>
      <point x="883" y="746"/>
      <point x="900" y="746" type="curve" smooth="yes"/>
      <point x="928" y="746"/>
      <point x="982" y="746"/>
      <point x="982" y="804" type="curve" smooth="yes"/>
      <point x="982" y="862"/>
      <point x="928" y="862"/>
      <point x="900" y="862" type="curve" smooth="yes"/>
      <point x="680" y="862" type="line" smooth="yes"/>
      <point x="652" y="862"/>
      <point x="598" y="862"/>
      <point x="598" y="804" type="curve" smooth="yes"/>
      <point x="598" y="746"/>
      <point x="652" y="746"/>
      <point x="680" y="746" type="curve" smooth="yes"/>
      <point x="697" y="746"/>
      <point x="713" y="746"/>
      <point x="730" y="746" type="curve"/>
      <point x="683" y="602"/>
      <point x="637" y="458"/>
      <point x="590" y="314" type="curve" smooth="yes"/>
      <point x="566" y="238"/>
      <point x="542" y="174"/>
      <point x="532" y="134" type="curve"/>
      <point x="530" y="134" type="line"/>
      <point x="520" y="178"/>
      <point x="512" y="200"/>
      <point x="492" y="254" type="curve" smooth="yes"/>
      <point x="306" y="746" type="line"/>
      <point x="321" y="746"/>
      <point x="337" y="746"/>
      <point x="352" y="746" type="curve" smooth="yes"/>
      <point x="380" y="746"/>
      <point x="434" y="746"/>
      <point x="434" y="804" type="curve" smooth="yes"/>
      <point x="434" y="862"/>
      <point x="380" y="862"/>
      <point x="352" y="862" type="curve" smooth="yes"/>
      <point x="132" y="862" type="line" smooth="yes"/>
      <point x="104" y="862"/>
      <point x="50" y="862"/>
      <point x="50" y="804" type="curve" smooth="yes"/>
      <point x="50" y="746"/>
      <point x="104" y="746"/>
      <point x="132" y="746" type="curve" smooth="yes"/>
      <point x="150" y="746"/>
      <point x="168" y="746"/>
      <point x="186" y="746" type="curve"/>
      <point x="282" y="499"/>
      <point x="378" y="252"/>
      <point x="474" y="4" type="curve"/>
      <point x="474" y="-6"/>
      <point x="422" y="-178"/>
      <point x="392" y="-234" type="curve" smooth="yes"/>
      <point x="380" y="-254"/>
      <point x="330" y="-348"/>
      <point x="234" y="-338" type="curve"/>
      <point x="236" y="-332"/>
      <point x="242" y="-320"/>
      <point x="242" y="-298" type="curve" smooth="yes"/>
      <point x="242" y="-252"/>
      <point x="210" y="-220"/>
      <point x="164" y="-220" type="curve" smooth="yes"/>
      <point x="114" y="-220"/>
      <point x="84" y="-254"/>
      <point x="84" y="-300" type="curve" smooth="yes"/>
      <point x="84" y="-376"/>
      <point x="148" y="-456"/>
      <point x="248" y="-456" type="curve" smooth="yes"/>
      <point x="442" y="-456"/>
      <point x="528" y="-198"/>
      <point x="534" y="-182" type="curve" smooth="yes"/>
    </contour>
  </outline>
</glyph>
<glyph name="z" format="2">
  <advance width="1028"/>
  <unicode hex="007A"/>
  <outline>
    <contour>
      <point x="732" y="746" type="line"/>
      <point x="96" y="132" type="line" smooth="yes"/>
      <point x="72" y="110"/>
      <point x="64" y="102"/>
      <point x="64" y="66" type="curve" smooth="yes"/>
      <point x="64" y="0"/>
      <point x="108" y="0"/>
      <point x="146" y="0" type="curve" smooth="yes"/>
      <point x="852" y="0" type="line" smooth="yes"/>
      <point x="918" y="0"/>
      <point x="932" y="18"/>
      <point x="932" y="82" type="curve" smooth="yes"/>
      <point x="932" y="184" type="line" smooth="yes"/>
      <point x="932" y="220"/>
      <point x="932" y="266"/>
      <point x="868" y="266" type="curve" smooth="yes"/>
      <point x="802" y="266"/>
      <point x="802" y="222"/>
      <point x="802" y="184" type="curve" smooth="yes"/>
      <point x="802" y="116" type="line"/>
      <point x="258" y="116" type="line"/>
      <point x="894" y="730" type="line" smooth="yes"/>
      <point x="918" y="752"/>
      <point x="926" y="760"/>
      <point x="926" y="796" type="curve" smooth="yes"/>
      <point x="926" y="862"/>
      <point x="882" y="862"/>
      <point x="844" y="862" type="curve" smooth="yes"/>
      <point x="178" y="862" type="line" smooth="yes"/>
      <point x="112" y="862"/>
      <point x="96" y="846"/>
      <point x="96" y="780" type="curve" smooth="yes"/>
      <point x="96" y="700" type="line" smooth="yes"/>
      <point x="96" y="664"/>
      <point x="96" y="618"/>
      <point x="160" y="618" type="curve" smooth="yes"/>
      <point x="226" y="618"/>
      <point x="226" y="662"/>
      <point x="226" y="700" type="curve" smooth="yes"/>
      <point x="226" y="746" type="line"/>
    </contour>
  </outline>
</glyph>
<glyph name="braceleft" format="2">
	<unicode hex="007B"/>
	<advance width="514"/>
	<outline>
		<contour>
			<point x="290" y="206" type="line" smooth="yes"/>
			<point x="290" y="233"/>
			<point x="285" y="278"/>
			<point x="228" y="305" type="curve"/>
			<point x="290" y="337"/>
			<point x="290" y="383"/>
			<point x="290" y="415" type="curve" smooth="yes"/>
			<point x="290" y="581" type="line" smooth="yes"/>
			<point x="290" y="635"/>
			<point x="401" y="636"/>
			<point x="433" y="636" type="curve" smooth="yes"/>
			<point x="443" y="636"/>
			<point x="457" y="644"/>
			<point x="457" y="665" type="curve" smooth="yes"/>
			<point x="457" y="694"/>
			<point x="436" y="694"/>
			<point x="417" y="694" type="curve" smooth="yes"/>
			<point x="387.625" y="694"/>
			<point x="319.96875" y="690.875"/>
			<point x="273.357421875" y="662.896484375" type="curve" smooth="yes"/>
			<point x="245.390625" y="646.109375"/>
			<point x="225" y="620"/>
			<point x="225" y="581" type="curve" smooth="yes"/>
			<point x="225" y="399" type="line" smooth="yes"/>
			<point x="225" y="352"/>
			<point x="161" y="337"/>
			<point x="106" y="335" type="curve" smooth="yes"/>
			<point x="76" y="334"/>
			<point x="57" y="334"/>
			<point x="57" y="306" type="curve" smooth="yes"/>
			<point x="57" y="277"/>
			<point x="79" y="276"/>
			<point x="93" y="276" type="curve" smooth="yes"/>
			<point x="157" y="275"/>
			<point x="223" y="259"/>
			<point x="225" y="216" type="curve" smooth="yes"/>
			<point x="225" y="50" type="line" smooth="yes"/>
			<point x="225" y="24.60944"/>
			<point x="225" y="-24.093039488"/>
			<point x="277.981499567" y="-54.9915872375" type="curve" smooth="yes"/>
			<point x="306.3797916672" y="-71.5533303296"/>
			<point x="349.99968" y="-83"/>
			<point x="417" y="-83" type="curve" smooth="yes"/>
			<point x="436" y="-83"/>
			<point x="457" y="-83"/>
			<point x="457" y="-54" type="curve" smooth="yes"/>
			<point x="457" y="-38"/>
			<point x="449" y="-25"/>
			<point x="431" y="-25" type="curve" smooth="yes"/>
			<point x="290" y="-22"/>
			<point x="290" y="13"/>
			<point x="290" y="45" type="curve" smooth="yes"/>
		</contour>
	</outline>
</glyph>
<glyph name="bar" format="2">
  <advance width="1028"/>
  <unicode hex="007C"/>
  <outline>
    <contour>
      <point x="580" y="1298" type="line" smooth="yes"/>
      <point x="580" y="1324"/>
      <point x="580" y="1388"/>
      <point x="516" y="1388" type="curve" smooth="yes"/>
      <point x="450" y="1388"/>
      <point x="450" y="1326"/>
      <point x="450" y="1298" type="curve" smooth="yes"/>
      <point x="450" y="-76" type="line" smooth="yes"/>
      <point x="450" y="-102"/>
      <point x="450" y="-166"/>
      <point x="514" y="-166" type="curve" smooth="yes"/>
      <point x="580" y="-166"/>
      <point x="580" y="-104"/>
      <point x="580" y="-76" type="curve" smooth="yes"/>
    </contour>
  </outline>
</glyph>
<glyph name="braceright" format="2">
	<unicode hex="007D"/>
	<advance width="514"/>
	<outline>
		<contour>
			<point x="290" y="213" type="line" smooth="yes"/>
			<point x="290" y="259"/>
			<point x="358" y="275"/>
			<point x="408" y="276" type="curve" smooth="yes"/>
			<point x="438" y="277"/>
			<point x="457" y="277"/>
			<point x="457" y="305" type="curve" smooth="yes"/>
			<point x="457" y="334"/>
			<point x="435" y="335"/>
			<point x="421" y="335" type="curve" smooth="yes"/>
			<point x="347" y="336"/>
			<point x="290" y="356"/>
			<point x="290" y="395" type="curve" smooth="yes"/>
			<point x="290" y="561" type="line" smooth="yes"/>
			<point x="290" y="586.25913"/>
			<point x="290" y="634.5894635895"/>
			<point x="237.5653163498" y="665.5103382614" type="curve" smooth="yes"/>
			<point x="209.0410492223" y="682.3311756834"/>
			<point x="164.99969" y="694"/>
			<point x="97" y="694" type="curve" smooth="yes"/>
			<point x="79" y="694"/>
			<point x="57" y="694"/>
			<point x="57" y="665" type="curve" smooth="yes"/>
			<point x="57" y="649"/>
			<point x="65" y="636"/>
			<point x="83" y="636" type="curve" smooth="yes"/>
			<point x="225" y="633"/>
			<point x="225" y="599"/>
			<point x="225" y="566" type="curve" smooth="yes"/>
			<point x="225" y="405" type="line" smooth="yes"/>
			<point x="225" y="387"/>
			<point x="225" y="336"/>
			<point x="287" y="306" type="curve"/>
			<point x="225" y="274"/>
			<point x="225" y="228"/>
			<point x="225" y="196" type="curve" smooth="yes"/>
			<point x="224" y="29" type="line" smooth="yes"/>
			<point x="224" y="-23"/>
			<point x="116" y="-25"/>
			<point x="81" y="-25" type="curve" smooth="yes"/>
			<point x="72" y="-25"/>
			<point x="57" y="-32"/>
			<point x="57" y="-54" type="curve" smooth="yes"/>
			<point x="57" y="-83"/>
			<point x="79" y="-83"/>
			<point x="97" y="-83" type="curve" smooth="yes"/>
			<point x="125.28504" y="-83"/>
			<point x="178.3489277888" y="-80.4366709184"/>
			<point x="221.6877273232" y="-62.0860372673" type="curve" smooth="yes"/>
			<point x="259.556392064" y="-46.0515831296"/>
			<point x="290" y="-17.9636"/>
			<point x="290" y="31" type="curve" smooth="yes"/>
		</contour>
	</outline>
</glyph>
<glyph name="asciitilde" format="2">
  <advance width="1028"/>
  <unicode hex="007E"/>
  <outline>
    <contour>
      <point x="856" y="1164" type="curve" smooth="yes"/>
      <point x="856" y="1194"/>
      <point x="828" y="1222"/>
      <point x="798" y="1222" type="curve" smooth="yes"/>
      <point x="776" y="1222"/>
      <point x="762" y="1212"/>
      <point x="746" y="1194" type="curve"/>
      <point x="744" y="1192"/>
      <point x="658" y="1110"/>
      <point x="610" y="1110" type="curve" smooth="yes"/>
      <point x="594" y="1110"/>
      <point x="582" y="1120"/>
      <point x="568" y="1136" type="curve" smooth="yes"/>
      <point x="514" y="1198"/>
      <point x="476" y="1222"/>
      <point x="422" y="1222" type="curve" smooth="yes"/>
      <point x="354" y="1222"/>
      <point x="288" y="1170"/>
      <point x="268" y="1154" type="curve" smooth="yes"/>
      <point x="218" y="1116"/>
      <point x="172" y="1082"/>
      <point x="172" y="1046" type="curve" smooth="yes"/>
      <point x="172" y="1016"/>
      <point x="200" y="988"/>
      <point x="230" y="988" type="curve" smooth="yes"/>
      <point x="252" y="988"/>
      <point x="266" y="998"/>
      <point x="282" y="1016" type="curve"/>
      <point x="284" y="1018"/>
      <point x="370" y="1100"/>
      <point x="418" y="1100" type="curve" smooth="yes"/>
      <point x="434" y="1100"/>
      <point x="446" y="1090"/>
      <point x="460" y="1074" type="curve" smooth="yes"/>
      <point x="514" y="1012"/>
      <point x="552" y="988"/>
      <point x="606" y="988" type="curve" smooth="yes"/>
      <point x="674" y="988"/>
      <point x="740" y="1040"/>
      <point x="760" y="1056" type="curve" smooth="yes"/>
      <point x="810" y="1094"/>
      <point x="856" y="1128"/>
    </contour>
  </outline>
</glyph>
<glyph name="exclamdown" format="2">
	<unicode hex="00A1"/>
	<advance width="514"/>
	<outline>
		<contour>
			<point x="302" y="344" type="curve" smooth="yes"/>
			<point x="302" y="369"/>
			<point x="282" y="389"/>
			<point x="257" y="389" type="curve" smooth="yes"/>
			<point x="232" y="389"/>
			<point x="212" y="369"/>
			<point x="212" y="344" type="curve" smooth="yes"/>
			<point x="212" y="319"/>
			<point x="232" y="299"/>
			<point x="257" y="299" type="curve" smooth="yes"/>
			<point x="282" y="299"/>
			<point x="302" y="319"/>
		</contour>
		<contour>
			<point x="302" y="-181" type="curve" smooth="yes"/>
			<point x="300" y="-73"/>
			<point x="296" y="37"/>
			<point x="294" y="150" type="curve" smooth="yes"/>
			<point x="293" y="206"/>
			<point x="292" y="215"/>
			<point x="257" y="215" type="curve" smooth="yes"/>
			<point x="219" y="215"/>
			<point x="221" y="199"/>
			<point x="220" y="149" type="curve" smooth="yes"/>
			<point x="217" y="40"/>
			<point x="214" y="-73"/>
			<point x="212" y="-181" type="curve" smooth="yes"/>
			<point x="211" y="-231"/>
			<point x="248" y="-234"/>
			<point x="257" y="-234" type="curve" smooth="yes"/>
			<point x="267" y="-234"/>
			<point x="303" y="-230"/>
		</contour>
	</outline>
</glyph>
<glyph name="dieresis" format="2">
  <advance width="1028"/>
  <unicode hex="00A8"/>
  <outline>
    <contour>
      <point x="404" y="1134" type="curve" smooth="yes"/>
      <point x="404" y="1184"/>
      <point x="364" y="1224"/>
      <point x="314" y="1224" type="curve" smooth="yes"/>
      <point x="264" y="1224"/>
      <point x="224" y="1182"/>
      <point x="224" y="1134" type="curve" smooth="yes"/>
      <point x="224" y="1086"/>
      <point x="264" y="1044"/>
      <point x="314" y="1044" type="curve" smooth="yes"/>
      <point x="364" y="1044"/>
      <point x="404" y="1084"/>
    </contour>
    <contour>
      <point x="804" y="1134" type="curve" smooth="yes"/>
      <point x="804" y="1182"/>
      <point x="764" y="1224"/>
      <point x="714" y="1224" type="curve" smooth="yes"/>
      <point x="664" y="1224"/>
      <point x="624" y="1184"/>
      <point x="624" y="1134" type="curve" smooth="yes"/>
      <point x="624" y="1084"/>
      <point x="664" y="1044"/>
      <point x="714" y="1044" type="curve" smooth="yes"/>
      <point x="764" y="1044"/>
      <point x="804" y="1086"/>
    </contour>
  </outline>
</glyph>
<glyph name="macron" format="2">
  <advance width="514"/>
  <unicode hex="00AF"/>
  <outline>
    <contour>
      <point x="403" y="515" type="line" smooth="yes"/>
      <point x="417" y="515"/>
      <point x="443" y="515"/>
      <point x="443" y="544" type="curve" smooth="yes"/>
      <point x="443" y="574"/>
      <point x="418" y="574"/>
      <point x="403" y="574" type="curve" smooth="yes"/>
      <point x="111" y="574" type="line" smooth="yes"/>
      <point x="97" y="574"/>
      <point x="71" y="574"/>
      <point x="71" y="545" type="curve" smooth="yes"/>
      <point x="71" y="515"/>
      <point x="97" y="515"/>
      <point x="112" y="515" type="curve" smooth="yes"/>
    </contour>
  </outline>
</glyph>
<glyph name="acute" format="2">
  <advance width="514"/>
  <unicode hex="00B4"/>
  <outline>
    <contour>
      <point x="374" y="545" type="line" smooth="yes"/>
      <point x="392" y="553"/>
      <point x="400" y="565"/>
      <point x="400" y="578" type="curve" smooth="yes"/>
      <point x="400" y="589"/>
      <point x="395" y="611"/>
      <point x="361" y="611" type="curve"/>
      <point x="212" y="540" type="line" smooth="yes"/>
      <point x="204" y="536"/>
      <point x="190" y="530"/>
      <point x="190" y="512" type="curve" smooth="yes"/>
      <point x="190" y="509"/>
      <point x="192" y="476"/>
      <point x="228" y="476" type="curve"/>
    </contour>
  </outline>
</glyph>
<glyph name="cedilla" format="2">
  <advance width="1028"/>
  <unicode hex="00B8"/>
  <outline>
    <contour>
      <point x="706" y="-216" type="curve" smooth="yes"/>
      <point x="706" y="-298"/>
      <point x="502" y="-298"/>
      <point x="442" y="-298" type="curve" smooth="yes"/>
      <point x="402" y="-298" type="line" smooth="yes"/>
      <point x="374" y="-298"/>
      <point x="320" y="-298"/>
      <point x="320" y="-356" type="curve" smooth="yes"/>
      <point x="320" y="-414"/>
      <point x="368" y="-414"/>
      <point x="428" y="-414" type="curve" smooth="yes"/>
      <point x="582" y="-414"/>
      <point x="836" y="-406"/>
      <point x="836" y="-216" type="curve" smooth="yes"/>
      <point x="836" y="-134"/>
      <point x="780" y="-52"/>
      <point x="644" y="-26" type="curve"/>
      <point x="644" y="48"/>
      <point x="644" y="88"/>
      <point x="578" y="88" type="curve" smooth="yes"/>
      <point x="514" y="88"/>
      <point x="514" y="42"/>
      <point x="514" y="10" type="curve" smooth="yes"/>
      <point x="514" y="-56" type="line" smooth="yes"/>
      <point x="514" y="-92"/>
      <point x="514" y="-130"/>
      <point x="576" y="-134" type="curve" smooth="yes"/>
      <point x="650" y="-138"/>
      <point x="706" y="-168"/>
    </contour>
  </outline>
</glyph>
<glyph name="questiondown" format="2">
	<unicode hex="00BF"/>
	<advance width="514"/>
	<outline>
		<contour>
			<point x="287" y="344" type="curve" smooth="yes"/>
			<point x="287" y="369"/>
			<point x="267" y="389"/>
			<point x="242" y="389" type="curve" smooth="yes"/>
			<point x="217" y="389"/>
			<point x="197" y="369"/>
			<point x="197" y="344" type="curve" smooth="yes"/>
			<point x="197" y="319"/>
			<point x="217" y="299"/>
			<point x="242" y="299" type="curve" smooth="yes"/>
			<point x="267" y="299"/>
			<point x="287" y="319"/>
		</contour>
		<contour>
			<point x="206" y="157" type="line" smooth="yes"/>
			<point x="206" y="97"/>
			<point x="183" y="42"/>
			<point x="116" y="-5" type="curve" smooth="yes"/>
			<point x="86" y="-26"/>
			<point x="61" y="-55"/>
			<point x="61" y="-102" type="curve" smooth="yes"/>
			<point x="61" y="-128"/>
			<point x="70" y="-228"/>
			<point x="243" y="-228" type="curve" smooth="yes"/>
			<point x="393" y="-228"/>
			<point x="453" y="-170"/>
			<point x="453" y="-104" type="curve" smooth="yes"/>
			<point x="453" y="-69"/>
			<point x="424" y="-61"/>
			<point x="412" y="-61" type="curve" smooth="yes"/>
			<point x="397" y="-61"/>
			<point x="372" y="-73"/>
			<point x="372" y="-102" type="curve" smooth="yes"/>
			<point x="372" y="-118"/>
			<point x="377" y="-123"/>
			<point x="381" y="-128" type="curve"/>
			<point x="352" y="-166"/>
			<point x="276" y="-170"/>
			<point x="243" y="-170" type="curve" smooth="yes"/>
			<point x="223" y="-170"/>
			<point x="126" y="-170"/>
			<point x="126" y="-102" type="curve" smooth="yes"/>
			<point x="126" y="-72"/>
			<point x="146" y="-58"/>
			<point x="155" y="-52" type="curve" smooth="yes"/>
			<point x="278" y="34"/>
			<point x="278" y="124"/>
			<point x="278" y="164" type="curve" smooth="yes"/>
			<point x="278" y="201"/>
			<point x="278" y="215"/>
			<point x="242" y="215" type="curve" smooth="yes"/>
			<point x="206" y="215"/>
			<point x="206" y="198"/>
			<point x="206" y="176" type="curve" smooth="yes"/>
		</contour>
	</outline>
</glyph>
<glyph name="AE" format="2">
  <advance width="514"/>
  <unicode hex="00C6"/>
  <outline>
    <contour>
      <point x="151" y="186" type="line"/>
      <point x="259" y="186" type="line"/>
      <point x="259" y="58" type="line"/>
      <point x="248" y="58"/>
      <point x="221" y="58"/>
      <point x="221" y="29" type="curve" smooth="yes"/>
      <point x="221" y="0"/>
      <point x="247" y="0"/>
      <point x="261" y="0" type="curve" smooth="yes"/>
      <point x="450" y="0" type="line" smooth="yes"/>
      <point x="483" y="0"/>
      <point x="490" y="9"/>
      <point x="490" y="41" type="curve" smooth="yes"/>
      <point x="490" y="122" type="line" smooth="yes"/>
      <point x="490" y="136"/>
      <point x="490" y="163"/>
      <point x="462" y="163" type="curve" smooth="yes"/>
      <point x="434" y="163"/>
      <point x="434" y="136"/>
      <point x="434" y="122" type="curve" smooth="yes"/>
      <point x="434" y="58" type="line"/>
      <point x="315" y="58" type="line"/>
      <point x="315" y="288" type="line"/>
      <point x="426" y="288" type="line" smooth="yes"/>
      <point x="440" y="288"/>
      <point x="466" y="288"/>
      <point x="466" y="317" type="curve" smooth="yes"/>
      <point x="466" y="346"/>
      <point x="440" y="346"/>
      <point x="426" y="346" type="curve" smooth="yes"/>
      <point x="315" y="346" type="line"/>
      <point x="315" y="553" type="line"/>
      <point x="426" y="553" type="line"/>
      <point x="426" y="504" type="line" smooth="yes"/>
      <point x="426" y="490"/>
      <point x="426" y="463"/>
      <point x="454" y="463" type="curve" smooth="yes"/>
      <point x="482" y="463"/>
      <point x="482" y="490"/>
      <point x="482" y="504" type="curve" smooth="yes"/>
      <point x="482" y="570" type="line" smooth="yes"/>
      <point x="482" y="601"/>
      <point x="476" y="611"/>
      <point x="442" y="611" type="curve" smooth="yes"/>
      <point x="170" y="611" type="line" smooth="yes"/>
      <point x="156" y="611"/>
      <point x="130" y="611"/>
      <point x="130" y="582" type="curve" smooth="yes"/>
      <point x="130" y="553"/>
      <point x="156" y="553"/>
      <point x="168" y="553" type="curve"/>
      <point x="68" y="58" type="line"/>
      <point x="48" y="58"/>
      <point x="22" y="58"/>
      <point x="22" y="29" type="curve" smooth="yes"/>
      <point x="22" y="0"/>
      <point x="49" y="0"/>
      <point x="63" y="0" type="curve" smooth="yes"/>
      <point x="129" y="0" type="line" smooth="yes"/>
      <point x="143" y="0"/>
      <point x="170" y="0"/>
      <point x="170" y="29" type="curve" smooth="yes"/>
      <point x="170" y="58"/>
      <point x="143" y="58"/>
      <point x="126" y="58" type="curve"/>
    </contour>
    <contour>
      <point x="225" y="553" type="line"/>
      <point x="259" y="553" type="line"/>
      <point x="259" y="244" type="line"/>
      <point x="163" y="244" type="line"/>
    </contour>
  </outline>
</glyph>
<glyph name="germandbls" format="2">
	<unicode hex="00DF"/>
	<advance width="514"/>
	<outline>
		<contour>
			<point x="371" y="396" type="curve"/>
			<point x="445" y="434"/>
			<point x="457" y="482"/>
			<point x="457" y="508" type="curve" smooth="yes"/>
			<point x="457" y="576"/>
			<point x="372" y="617"/>
			<point x="284" y="617" type="curve" smooth="yes"/>
			<point x="235" y="617"/>
			<point x="110" y="601"/>
			<point x="110" y="500" type="curve" smooth="yes"/>
			<point x="110" y="431" type="line"/>
			<point x="60" y="431" type="line" smooth="yes"/>
			<point x="46" y="431"/>
			<point x="20" y="431"/>
			<point x="20" y="402" type="curve" smooth="yes"/>
			<point x="20" y="373"/>
			<point x="46" y="373"/>
			<point x="60" y="373" type="curve" smooth="yes"/>
			<point x="110" y="373" type="line"/>
			<point x="110" y="58" type="line"/>
			<point x="60" y="58" type="line" smooth="yes"/>
			<point x="46" y="58"/>
			<point x="20" y="58"/>
			<point x="20" y="29" type="curve" smooth="yes"/>
			<point x="20" y="0"/>
			<point x="46" y="0"/>
			<point x="60" y="0" type="curve" smooth="yes"/>
			<point x="135" y="0" type="line" smooth="yes"/>
			<point x="168" y="0"/>
			<point x="175" y="9"/>
			<point x="175" y="41" type="curve" smooth="yes"/>
			<point x="175" y="496" type="line" smooth="yes"/>
			<point x="175" y="515"/>
			<point x="175" y="529"/>
			<point x="210" y="544" type="curve"/>
			<point x="220" y="549"/>
			<point x="242" y="559"/>
			<point x="283" y="559" type="curve" smooth="yes"/>
			<point x="346" y="559"/>
			<point x="392" y="533"/>
			<point x="392" y="508" type="curve" smooth="yes"/>
			<point x="392" y="475"/>
			<point x="344" y="434"/>
			<point x="267" y="431" type="curve" smooth="yes"/>
			<point x="253" y="430"/>
			<point x="232" y="430"/>
			<point x="232" y="402" type="curve" smooth="yes"/>
			<point x="232" y="387"/>
			<point x="238" y="374"/>
			<point x="258" y="373" type="curve" smooth="yes"/>
			<point x="373" y="366"/>
			<point x="420" y="255"/>
			<point x="420" y="175" type="curve" smooth="yes"/>
			<point x="420" y="97"/>
			<point x="360" y="52"/>
			<point x="305" y="52" type="curve" smooth="yes"/>
			<point x="289" y="52"/>
			<point x="286" y="53"/>
			<point x="278" y="57" type="curve"/>
			<point x="279" y="60"/>
			<point x="279" y="65"/>
			<point x="279" y="67" type="curve" smooth="yes"/>
			<point x="279" y="89"/>
			<point x="263" y="104"/>
			<point x="242" y="104" type="curve" smooth="yes"/>
			<point x="218" y="104"/>
			<point x="205" y="86"/>
			<point x="205" y="66" type="curve" smooth="yes"/>
			<point x="205" y="26"/>
			<point x="244" y="-6"/>
			<point x="305" y="-6" type="curve" smooth="yes"/>
			<point x="397" y="-6"/>
			<point x="485" y="66"/>
			<point x="485" y="175" type="curve" smooth="yes"/>
			<point x="485" y="260"/>
			<point x="445" y="350"/>
		</contour>
	</outline>
</glyph>
<glyph name="ae" format="2">
  <advance width="1028"/>
  <unicode hex="00E6"/>
  <outline>
    <contour>
      <point x="458" y="490" type="line"/>
      <point x="150" y="478"/>
      <point x="62" y="342"/>
      <point x="62" y="230" type="curve" smooth="yes"/>
      <point x="62" y="118"/>
      <point x="140" y="-12"/>
      <point x="286" y="-12" type="curve" smooth="yes"/>
      <point x="392" y="-12"/>
      <point x="496" y="46"/>
      <point x="540" y="126" type="curve"/>
      <point x="582" y="62"/>
      <point x="662" y="-12"/>
      <point x="762" y="-12" type="curve" smooth="yes"/>
      <point x="930" y="-12"/>
      <point x="988" y="176"/>
      <point x="988" y="218" type="curve" smooth="yes"/>
      <point x="988" y="248"/>
      <point x="964" y="274"/>
      <point x="932" y="274" type="curve" smooth="yes"/>
      <point x="888" y="274"/>
      <point x="878" y="236"/>
      <point x="876" y="224" type="curve"/>
      <point x="854" y="140"/>
      <point x="812" y="104"/>
      <point x="766" y="104" type="curve" smooth="yes"/>
      <point x="684" y="104"/>
      <point x="590" y="206"/>
      <point x="572" y="384" type="curve"/>
      <point x="908" y="384" type="line" smooth="yes"/>
      <point x="980" y="384"/>
      <point x="988" y="406"/>
      <point x="988" y="468" type="curve" smooth="yes"/>
      <point x="988" y="752"/>
      <point x="872" y="880"/>
      <point x="744" y="880" type="curve" smooth="yes"/>
      <point x="648" y="880"/>
      <point x="578" y="812"/>
      <point x="532" y="738" type="curve"/>
      <point x="516" y="770"/>
      <point x="452" y="880"/>
      <point x="308" y="880" type="curve" smooth="yes"/>
      <point x="126" y="880"/>
      <point x="86" y="796"/>
      <point x="86" y="742" type="curve" smooth="yes"/>
      <point x="86" y="688"/>
      <point x="124" y="658"/>
      <point x="168" y="658" type="curve" smooth="yes"/>
      <point x="232" y="658"/>
      <point x="246" y="706"/>
      <point x="246" y="740" type="curve" smooth="yes"/>
      <point x="246" y="748"/>
      <point x="246" y="754"/>
      <point x="246" y="760" type="curve"/>
      <point x="266" y="762"/>
      <point x="284" y="764"/>
      <point x="304" y="764" type="curve" smooth="yes"/>
      <point x="398" y="764"/>
      <point x="458" y="690"/>
      <point x="458" y="564" type="curve" smooth="yes"/>
    </contour>
    <contour>
      <point x="574" y="494" type="line"/>
      <point x="588" y="662"/>
      <point x="672" y="764"/>
      <point x="744" y="764" type="curve" smooth="yes"/>
      <point x="808" y="764"/>
      <point x="870" y="674"/>
      <point x="874" y="494" type="curve"/>
    </contour>
    <contour>
      <point x="458" y="378" type="curve"/>
      <point x="458" y="346"/>
      <point x="458" y="314"/>
      <point x="458" y="282" type="curve" smooth="yes"/>
      <point x="458" y="234"/>
      <point x="458" y="192"/>
      <point x="420" y="152" type="curve"/>
      <point x="400" y="134"/>
      <point x="358" y="104"/>
      <point x="298" y="104" type="curve" smooth="yes"/>
      <point x="224" y="104"/>
      <point x="174" y="168"/>
      <point x="174" y="232" type="curve" smooth="yes"/>
      <point x="174" y="312"/>
      <point x="278" y="374"/>
    </contour>
  </outline>
</glyph>
<glyph name="dotlessi" format="2">
  <advance width="1028"/>
  <unicode hex="0131"/>
  <outline>
    <contour>
      <point x="604" y="780" type="line" smooth="yes"/>
      <point x="604" y="842"/>
      <point x="592" y="862"/>
      <point x="524" y="862" type="curve" smooth="yes"/>
      <point x="260" y="862" type="line" smooth="yes"/>
      <point x="232" y="862"/>
      <point x="180" y="862"/>
      <point x="180" y="804" type="curve" smooth="yes"/>
      <point x="180" y="746"/>
      <point x="232" y="746"/>
      <point x="260" y="746" type="curve" smooth="yes"/>
      <point x="474" y="746" type="line"/>
      <point x="474" y="116" type="line"/>
      <point x="246" y="116" type="line" smooth="yes"/>
      <point x="218" y="116"/>
      <point x="164" y="116"/>
      <point x="164" y="58" type="curve" smooth="yes"/>
      <point x="164" y="0"/>
      <point x="218" y="0"/>
      <point x="246" y="0" type="curve" smooth="yes"/>
      <point x="802" y="0" type="line" smooth="yes"/>
      <point x="830" y="0"/>
      <point x="882" y="0"/>
      <point x="882" y="58" type="curve" smooth="yes"/>
      <point x="882" y="116"/>
      <point x="830" y="116"/>
      <point x="802" y="116" type="curve" smooth="yes"/>
      <point x="604" y="116" type="line"/>
    </contour>
  </outline>
</glyph>
<glyph name="OE" format="2">
  <advance width="1028"/>
  <unicode hex="0152"/>
  <outline>
    <contour>
      <point x="626" y="576" type="line"/>
      <point x="862" y="576" type="line" smooth="yes"/>
      <point x="890" y="576"/>
      <point x="942" y="576"/>
      <point x="942" y="634" type="curve" smooth="yes"/>
      <point x="942" y="692"/>
      <point x="890" y="692"/>
      <point x="862" y="692" type="curve" smooth="yes"/>
      <point x="626" y="692" type="line"/>
      <point x="626" y="1106" type="line"/>
      <point x="858" y="1106" type="line"/>
      <point x="858" y="1008" type="line" smooth="yes"/>
      <point x="858" y="980"/>
      <point x="858" y="926"/>
      <point x="914" y="926" type="curve" smooth="yes"/>
      <point x="970" y="926"/>
      <point x="970" y="980"/>
      <point x="970" y="1008" type="curve" smooth="yes"/>
      <point x="970" y="1140" type="line" smooth="yes"/>
      <point x="970" y="1202"/>
      <point x="958" y="1222"/>
      <point x="890" y="1222" type="curve" smooth="yes"/>
      <point x="584" y="1222" type="line" smooth="yes"/>
      <point x="564" y="1222"/>
      <point x="540" y="1222"/>
      <point x="504" y="1230" type="curve" smooth="yes"/>
      <point x="434" y="1246"/>
      <point x="416" y="1246"/>
      <point x="378" y="1246" type="curve" smooth="yes"/>
      <point x="158" y="1246"/>
      <point x="106" y="1178"/>
      <point x="82" y="1050" type="curve" smooth="yes"/>
      <point x="60" y="932"/>
      <point x="58" y="796"/>
      <point x="58" y="612" type="curve" smooth="yes"/>
      <point x="58" y="452"/>
      <point x="58" y="288"/>
      <point x="84" y="160" type="curve" smooth="yes"/>
      <point x="110" y="38"/>
      <point x="164" y="-24"/>
      <point x="378" y="-24" type="curve" smooth="yes"/>
      <point x="420" y="-24"/>
      <point x="432" y="-24"/>
      <point x="506" y="-8" type="curve" smooth="yes"/>
      <point x="540" y="0"/>
      <point x="562" y="0"/>
      <point x="584" y="0" type="curve" smooth="yes"/>
      <point x="906" y="0" type="line" smooth="yes"/>
      <point x="972" y="0"/>
      <point x="986" y="18"/>
      <point x="986" y="82" type="curve" smooth="yes"/>
      <point x="986" y="244" type="line" smooth="yes"/>
      <point x="986" y="272"/>
      <point x="986" y="326"/>
      <point x="930" y="326" type="curve" smooth="yes"/>
      <point x="874" y="326"/>
      <point x="874" y="272"/>
      <point x="874" y="244" type="curve" smooth="yes"/>
      <point x="874" y="116" type="line"/>
      <point x="626" y="116" type="line"/>
    </contour>
    <contour>
      <point x="514" y="342" type="line" smooth="yes"/>
      <point x="514" y="138"/>
      <point x="486" y="92"/>
      <point x="392" y="92" type="curve" smooth="yes"/>
      <point x="170" y="92"/>
      <point x="170" y="216"/>
      <point x="170" y="628" type="curve" smooth="yes"/>
      <point x="170" y="1020"/>
      <point x="170" y="1130"/>
      <point x="388" y="1130" type="curve" smooth="yes"/>
      <point x="484" y="1130"/>
      <point x="514" y="1092"/>
      <point x="514" y="880" type="curve" smooth="yes"/>
    </contour>
  </outline>
</glyph>
